<?xml version="1.0" encoding="UTF-8" standalone="no"?>
<!-- Created with Inkscape (http://www.inkscape.org/) -->

<svg
   xmlns:dc="http://purl.org/dc/elements/1.1/"
   xmlns:cc="http://creativecommons.org/ns#"
   xmlns:rdf="http://www.w3.org/1999/02/22-rdf-syntax-ns#"
   xmlns:svg="http://www.w3.org/2000/svg"
   xmlns="http://www.w3.org/2000/svg"
   xmlns:sodipodi="http://sodipodi.sourceforge.net/DTD/sodipodi-0.dtd"
   xmlns:inkscape="http://www.inkscape.org/namespaces/inkscape"
   id="svg2"
   version="1.1"
   inkscape:version="0.48.2 r9819"
   width="210.5925"
   height="360.45624"
   xml:space="preserve"
   sodipodi:docname="floral_ornaments_by_idealhut.eps"><metadata
     id="metadata8"><rdf:RDF><cc:Work
         rdf:about=""><dc:format>image/svg+xml</dc:format><dc:type
           rdf:resource="http://purl.org/dc/dcmitype/StillImage" /><dc:title></dc:title></cc:Work></rdf:RDF></metadata><defs
     id="defs6" /><sodipodi:namedview
     pagecolor="#ffffff"
     bordercolor="#666666"
     borderopacity="1"
     objecttolerance="10"
     gridtolerance="10"
     guidetolerance="10"
     inkscape:pageopacity="0"
     inkscape:pageshadow="2"
     inkscape:window-width="2479"
     inkscape:window-height="1396"
     id="namedview4"
     showgrid="false"
     inkscape:zoom="1.5112765"
     inkscape:cx="71.710674"
     inkscape:cy="274.38154"
     inkscape:window-x="0"
     inkscape:window-y="922"
     inkscape:window-maximized="1"
     inkscape:current-layer="g10"
     fit-margin-top="0"
     fit-margin-left="0"
     fit-margin-right="0"
     fit-margin-bottom="0" /><g
     id="g10"
     inkscape:groupmode="layer"
     inkscape:label="ink_ext_XXXXXX"
     transform="matrix(1.25,0,0,-1.25,-201.70179,512.48085)"><path
       inkscape:connector-curvature="0"
       id="path1316"
       style="fill:#231f20;fill-opacity:1;fill-rule:nonzero;stroke:none"
       d="m 227.40443,171.98068 c 0.204,0.368 0.082,0.843 -0.274,1.06 -0.357,0.217 -0.824,0.069 -1.044,-0.325 -0.221,-0.397 -0.099,-0.871 0.272,-1.06 0.372,-0.188 0.84,-0.042 1.046,0.325 z m 1.923,4.16 c -0.323,0.273 -0.803,0.196 -1.08,-0.162 -0.276,-0.36 -0.225,-0.848 0.112,-1.092 0.339,-0.244 0.821,-0.169 1.078,0.166 0.259,0.334 0.204,0.825 -0.11,1.088 z m -3.453,-7.505 c 0.147,0.394 -0.049,0.842 -0.434,1.001 -0.385,0.158 -0.827,-0.06 -0.984,-0.486 -0.157,-0.426 0.037,-0.874 0.434,-1.002 0.397,-0.126 0.837,0.092 0.984,0.487 z m 46.508,-33.273 0.216,0.042 c -0.138,0.709 -0.289,1.427 -0.453,2.153 l -0.213,-0.048 c 0.163,-0.724 0.313,-1.44 0.45,-2.147 z m -40.42,43.519 c -0.282,0.316 -0.78,0.323 -1.098,0 -0.323,-0.317 -0.341,-0.81 -0.042,-1.1 0.299,-0.291 0.785,-0.286 1.087,0.011 0.298,0.302 0.327,0.784 0.053,1.089 z m 39.669,-40.091 0.212,0.052 c -0.171,0.703 -0.356,1.413 -0.555,2.128 l -0.211,-0.058 c 0.197,-0.714 0.382,-1.421 0.554,-2.122 z m -43.713,43.934 -0.055,-0.21 c 0.714,-0.189 1.417,-0.384 2.109,-0.586 l 0.063,0.21 c -0.695,0.204 -1.399,0.399 -2.117,0.586 z m -3.416,0.824 -0.046,-0.215 c 0.721,-0.158 1.432,-0.323 2.134,-0.495 l 0.051,0.212 c -0.702,0.173 -1.415,0.339 -2.139,0.498 z m 12.176,-3.697 c -0.55,0.22 -1.113,0.432 -1.677,0.641 0.106,0.237 0.102,0.513 -0.052,0.74 -0.232,0.344 -0.735,0.433 -1.09,0.153 -0.362,-0.271 -0.445,-0.757 -0.19,-1.086 0.257,-0.329 0.738,-0.391 1.075,-0.134 0.053,0.04 0.099,0.088 0.139,0.139 0.578,-0.215 1.152,-0.431 1.713,-0.656 l 0.082,0.203 z m -3.295,1.224 c -0.684,0.234 -1.379,0.463 -2.086,0.684 l -0.066,-0.21 c 0.705,-0.219 1.399,-0.447 2.081,-0.683 l 0.071,0.208 0,0.001 z m 29.194,3.711 c -0.133,-0.395 0.083,-0.831 0.481,-0.974 0.402,-0.134 0.841,0.031 1.003,0.417 0.159,0.383 -0.044,0.852 -0.473,0.996 -0.425,0.154 -0.878,-0.044 -1.011,-0.439 z m 24.328,59.645 0.18,0.125 c -0.416,0.602 -0.834,1.203 -1.257,1.799 l -0.179,-0.126 c 0.422,-0.596 0.84,-1.196 1.256,-1.798 z m -4.081,5.71 0.177,0.132 c -0.435,0.589 -0.871,1.176 -1.311,1.761 l -0.175,-0.13 c 0.438,-0.586 0.875,-1.173 1.309,-1.763 z m 2.062,-2.838 0.179,0.127 c -0.425,0.596 -0.855,1.19 -1.286,1.781 l -0.177,-0.13 c 0.431,-0.591 0.86,-1.183 1.284,-1.778 z m -15.429,-67.086 c 0.329,-0.262 0.817,-0.218 1.091,0.097 0.272,0.316 0.205,0.801 -0.151,1.083 -0.355,0.284 -0.843,0.241 -1.089,-0.095 -0.247,-0.337 -0.18,-0.824 0.149,-1.085 z m -48.401,4.014 -0.039,-0.217 c 0.727,-0.129 1.445,-0.267 2.153,-0.412 l 0.043,0.216 c -0.709,0.146 -1.428,0.281 -2.157,0.413 z m 75.06,45.271 0.193,0.104 c -0.347,0.646 -0.7,1.288 -1.058,1.925 l -0.192,-0.107 c 0.358,-0.636 0.709,-1.276 1.057,-1.922 z m 1.626,-3.112 0.196,0.099 c -0.332,0.655 -0.668,1.306 -1.007,1.952 l -0.195,-0.101 c 0.339,-0.647 0.675,-1.296 1.006,-1.95 z m -27.028,-84.214 0.209,0.062 c -0.207,0.695 -0.428,1.396 -0.662,2.097 l -0.209,-0.069 c 0.235,-0.701 0.454,-1.397 0.662,-2.09 z m 20.07,96.405 0.186,0.116 c -0.393,0.62 -0.791,1.234 -1.19,1.848 l -0.183,-0.12 c 0.399,-0.612 0.794,-1.227 1.187,-1.844 z m 1.848,-2.984 0.187,0.113 c -0.378,0.627 -0.761,1.251 -1.148,1.872 l -0.186,-0.115 c 0.386,-0.621 0.768,-1.244 1.147,-1.87 z m -33.725,-49.822 c -0.08,-0.405 0.195,-0.802 0.606,-0.905 0.414,-0.099 0.834,0.149 0.939,0.552 0.106,0.404 -0.164,0.815 -0.603,0.918 -0.438,0.109 -0.861,-0.151 -0.942,-0.565 z m 35.504,46.795 0.191,0.11 c -0.365,0.636 -0.732,1.27 -1.105,1.899 l -0.189,-0.112 c 0.373,-0.628 0.74,-1.261 1.103,-1.897 z m -107.063,12.661 c -0.224,-0.35 -0.198,-0.772 0.06,-0.939 0.256,-0.167 0.666,-0.03 0.914,0.304 0.247,0.334 0.221,0.755 -0.059,0.939 -0.28,0.184 -0.689,0.048 -0.915,-0.304 z m -1.392,0.84 c 0.199,0.366 0.117,0.783 -0.186,0.931 -0.302,0.147 -0.686,-0.041 -0.858,-0.42 -0.172,-0.38 -0.089,-0.799 0.186,-0.933 0.274,-0.134 0.66,0.055 0.858,0.422 z m -2.878,2.017 c -0.32,0.104 -0.669,-0.135 -0.778,-0.537 -0.11,-0.403 0.037,-0.808 0.326,-0.903 0.289,-0.096 0.637,0.146 0.778,0.537 0.14,0.394 -0.007,0.798 -0.326,0.903 z m -2.831,0.649 c -0.333,0.059 -0.637,-0.23 -0.682,-0.645 -0.044,-0.413 0.165,-0.794 0.464,-0.848 0.3,-0.053 0.605,0.235 0.682,0.646 0.076,0.41 -0.132,0.79 -0.464,0.847 z m -3.469,-0.533 c 0.017,-0.416 0.278,-0.764 0.584,-0.774 0.306,-0.01 0.565,0.318 0.578,0.734 0.013,0.417 -0.249,0.765 -0.585,0.775 -0.335,0.01 -0.594,-0.319 -0.577,-0.735 z m -12.761,-0.647 c 0,0 -1.043,0.35 -1.449,0.551 l -1.207,-0.898 c 0,0 1.093,-0.843 1.42,-0.723 0,0 1.121,0.651 1.236,1.07 z m 9.389,3.489 c -3.995,1.902 -7.422,0.627 -7.422,0.627 3.112,1.768 8.18,-0.579 8.18,-0.579 -0.871,1.38 -3.856,1.703 -3.856,1.703 -3.995,0.846 -7.245,-1.999 -7.245,-1.999 0.077,-0.585 2.241,-1.344 2.241,-1.344 2.943,2.854 8.102,1.592 8.102,1.592 z m -8.316,-1.82 c 0,0 -1.043,0.35 -1.151,0.5 l -1.549,-1.105 1.677,-0.766 1.023,1.371 z m 9.813,0.512 c -2.503,-5.742 -7.64,-4.882 -7.64,-4.882 5.024,-0.225 7.091,4.49 7.091,4.49 -4.003,-5.493 -8.546,-3.189 -8.546,-3.189 -1.751,-1.247 -1.574,-2.024 -1.574,-2.024 2.177,-0.675 4.704,-0.307 4.704,-0.307 6.061,1.495 5.965,5.912 5.965,5.912 z m -10.616,-2.403 -1.377,-1.133 1.676,-0.766 0.943,0.898 c -0.129,0.021 -1.242,1.001 -1.242,1.001 z m 26.248,-3.569 c -0.258,0.211 -0.682,0.123 -0.949,-0.197 -0.268,-0.32 -0.29,-0.738 -0.051,-0.932 0.247,-0.188 0.645,-0.135 0.931,0.174 0.28,0.302 0.333,0.751 0.069,0.955 z m 2.053,-1.996 c -0.229,0.24 -0.665,0.188 -0.963,-0.102 -0.299,-0.292 -0.358,-0.7 -0.141,-0.926 0.205,-0.236 0.623,-0.202 0.934,0.076 0.309,0.28 0.387,0.705 0.17,0.952 z m 9.537,-13.919 c -0.165,0.276 -0.588,0.327 -0.946,0.114 -0.358,-0.212 -0.517,-0.61 -0.353,-0.885 0.165,-0.277 0.588,-0.328 0.946,-0.114 0.359,0.213 0.516,0.608 0.353,0.885 z m 15.461,-43.067 -0.03,-0.217 c 0.732,-0.103 1.453,-0.215 2.165,-0.331 l 0.037,0.218 c -0.714,0.116 -1.439,0.227 -2.172,0.33 z m -12.56,38.332 c -0.172,0.269 -0.595,0.305 -0.946,0.081 -0.351,-0.224 -0.495,-0.626 -0.321,-0.9 0.173,-0.274 0.597,-0.31 0.945,-0.08 0.349,0.227 0.492,0.631 0.322,0.899 z m 5.572,-37.578 -0.014,-0.22 c 0.736,-0.054 1.465,-0.117 2.183,-0.186 l 0.021,0.219 c -0.721,0.068 -1.45,0.13 -2.19,0.187 z m 3.501,-0.319 -0.022,-0.219 c 0.734,-0.078 1.459,-0.164 2.176,-0.257 l 0.028,0.219 c -0.719,0.092 -1.445,0.177 -2.182,0.257 z m -10.543,40.248 c -0.165,0.271 -0.587,0.319 -0.945,0.102 -0.357,-0.215 -0.511,-0.613 -0.343,-0.889 0.166,-0.277 0.591,-0.324 0.945,-0.103 0.355,0.217 0.508,0.616 0.343,0.89 z m -9.115,14.145 c -0.195,0.263 -0.633,0.245 -0.954,-0.022 -0.321,-0.265 -0.41,-0.669 -0.224,-0.923 0.193,-0.251 0.616,-0.246 0.944,0.012 0.329,0.255 0.433,0.674 0.234,0.933 z m 1.705,-2.262 c -0.186,0.266 -0.608,0.284 -0.946,0.039 -0.337,-0.248 -0.462,-0.657 -0.281,-0.916 0.18,-0.261 0.605,-0.278 0.946,-0.039 0.342,0.239 0.468,0.649 0.281,0.916 z m 3.097,-4.704 c -0.17,0.276 -0.593,0.32 -0.946,0.1 -0.355,-0.222 -0.504,-0.621 -0.338,-0.894 0.168,-0.271 0.591,-0.315 0.946,-0.097 0.356,0.217 0.507,0.617 0.338,0.891 z m -1.506,2.373 c -0.178,0.273 -0.601,0.307 -0.947,0.075 -0.348,-0.233 -0.488,-0.634 -0.316,-0.902 0.171,-0.267 0.596,-0.301 0.947,-0.075 0.35,0.227 0.492,0.631 0.316,0.902 z m 2.959,-4.769 c -0.165,0.277 -0.589,0.327 -0.945,0.112 -0.358,-0.214 -0.514,-0.61 -0.351,-0.886 0.165,-0.275 0.588,-0.325 0.946,-0.112 0.358,0.214 0.514,0.609 0.35,0.886 z m 72.045,24.144 c 0.307,-0.292 0.774,-0.25 1.1,0.038 0.319,0.296 0.351,0.789 0.073,1.099 -0.278,0.311 -0.78,0.304 -1.122,-0.016 -0.352,-0.31 -0.348,-0.836 -0.051,-1.121 z m -40.494,0.388 -0.08,-0.204 c 0.688,-0.271 1.36,-0.552 2.017,-0.844 l 0.09,0.201 c -0.66,0.293 -1.335,0.576 -2.027,0.847 z m 45.752,2.081 c -0.195,0.251 -0.389,0.499 -0.582,0.747 l -0.173,-0.135 c 0.194,-0.248 0.388,-0.497 0.581,-0.746 0.256,-0.328 0.511,-0.657 0.766,-0.986 l 0.174,0.134 c -0.256,0.329 -0.51,0.659 -0.766,0.986 z m -0.981,1.054 c -0.226,0.358 -0.718,0.428 -1.102,0.159 -0.384,-0.267 -0.493,-0.753 -0.241,-1.087 0.25,-0.332 0.742,-0.402 1.097,-0.153 0.356,0.247 0.464,0.735 0.246,1.081 z m -6.766,-6.545 c 0.341,-0.242 0.821,-0.147 1.075,0.211 0.272,0.341 0.234,0.826 -0.091,1.091 -0.323,0.262 -0.823,0.182 -1.113,-0.183 -0.27,-0.378 -0.212,-0.88 0.129,-1.119 z m 2.632,11.608 c 0.457,-0.572 0.914,-1.145 1.369,-1.715 l 0.172,0.136 c -0.455,0.572 -0.912,1.145 -1.369,1.715 l -0.172,-0.136 z m -4.72,-14.924 c 0.366,-0.201 0.837,-0.054 1.056,0.329 0.213,0.385 0.121,0.862 -0.233,1.08 -0.355,0.22 -0.847,0.084 -1.07,-0.319 -0.229,-0.401 -0.118,-0.889 0.247,-1.09 z m 34.806,13.097 c -0.446,0.114 -0.885,-0.12 -0.985,-0.524 -0.097,-0.406 0.17,-0.824 0.598,-0.934 0.428,-0.113 0.865,0.111 0.982,0.512 0.114,0.4 -0.151,0.83 -0.595,0.946 z m -3.89,0.859 c -0.452,0.08 -0.873,-0.202 -0.937,-0.612 -0.064,-0.413 0.24,-0.798 0.674,-0.875 0.436,-0.081 0.854,0.186 0.935,0.594 0.081,0.408 -0.22,0.809 -0.672,0.893 z m -8.751,-0.138 c 0.02,-0.418 0.393,-0.734 0.832,-0.722 0.439,0.001 0.798,0.34 0.801,0.757 0.003,0.416 -0.369,0.753 -0.832,0.751 -0.463,-0.014 -0.821,-0.37 -0.801,-0.786 z m 15.927,-3.328 c 0.412,-0.152 0.86,0.031 1.022,0.414 0.165,0.383 -0.064,0.843 -0.499,1.001 -0.435,0.16 -0.897,-0.038 -1.031,-0.434 -0.134,-0.393 0.097,-0.83 0.508,-0.981 z m -11.13,3.984 c -0.461,0.03 -0.854,-0.28 -0.878,-0.696 -0.024,-0.416 0.311,-0.778 0.751,-0.808 0.439,-0.043 0.832,0.256 0.877,0.672 0.045,0.413 -0.292,0.788 -0.75,0.832 z m -39.757,-94.716 c 0.534,-0.506 1.052,-1.019 1.555,-1.538 l 0.157,0.153 c -0.505,0.52 -1.024,1.037 -1.561,1.544 l -0.151,-0.159 z m 11.05,76.732 c 0.381,-0.167 0.831,0.027 1.023,0.426 0.19,0.398 0.039,0.872 -0.336,1.055 -0.373,0.184 -0.836,-0.004 -1.032,-0.42 -0.2,-0.415 -0.038,-0.892 0.345,-1.061 z m -16.423,-72.247 c 0.594,-0.436 1.175,-0.877 1.74,-1.327 l 0.136,0.172 c -0.568,0.452 -1.15,0.895 -1.747,1.332 l -0.129,-0.177 z m 15.915,-18.378 c 0.348,-0.649 0.68,-1.299 0.998,-1.95 l 0.197,0.096 c -0.32,0.654 -0.653,1.306 -1.002,1.957 l -0.193,-0.103 z m -18.805,20.355 c 0.621,-0.395 1.228,-0.802 1.821,-1.214 l 0.125,0.18 c -0.596,0.413 -1.203,0.82 -1.827,1.22 l -0.119,-0.186 z m 5.649,-4.133 c 0.564,-0.471 1.115,-0.95 1.651,-1.435 l 0.148,0.163 c -0.539,0.487 -1.091,0.967 -1.659,1.441 l -0.14,-0.169 z m 11.066,67.013 c 0.406,-0.094 0.815,0.161 0.936,0.587 0.117,0.424 -0.098,0.865 -0.498,0.987 -0.397,0.12 -0.834,-0.134 -0.955,-0.582 -0.127,-0.443 0.111,-0.899 0.517,-0.992 z m 3.653,-86.373 c 0.308,-0.668 0.603,-1.336 0.882,-2.005 l 0.203,0.085 c -0.282,0.671 -0.577,1.343 -0.886,2.012 l -0.199,-0.092 z m -2.505,90.12 c 0.389,-0.136 0.837,0.089 0.989,0.506 0.149,0.416 -0.031,0.873 -0.418,1.025 -0.389,0.154 -0.842,-0.07 -0.997,-0.502 -0.159,-0.429 0.03,-0.889 0.426,-1.029 z m 45.073,-48.638 c 0.135,-0.718 0.262,-1.438 0.379,-2.16 l 0.217,0.036 c -0.119,0.723 -0.245,1.445 -0.38,2.165 l -0.216,-0.041 z m -0.709,3.435 c 0.161,-0.713 0.313,-1.428 0.458,-2.144 l 0.215,0.044 c -0.145,0.717 -0.298,1.435 -0.458,2.149 l -0.215,-0.049 z m -67.601,111.076 c -0.299,0.669 -0.592,1.341 -0.875,2.014 l -0.203,-0.084 c 0.284,-0.676 0.577,-1.349 0.879,-2.021 l 0.199,0.091 z m 39.396,-111.006 c -5.145,11.901 -12.414,22.531 -19.081,33.278 -5.28,8.505 -10.236,17.524 -12.601,27.201 l 0.021,-0.001 c 0.061,0.726 0.139,1.453 0.232,2.178 l -0.218,0.027 c -0.068,-0.539 -0.121,-1.079 -0.173,-1.621 -0.725,3.114 -1.181,6.295 -1.29,9.551 -0.307,7.555 1.241,14.982 3.905,22.06 0.015,-0.018 0.027,-0.041 0.043,-0.061 l 0.179,0.126 c -0.043,0.061 -0.084,0.127 -0.128,0.188 2.108,5.535 4.896,10.855 8.013,15.855 3.865,5.824 7.861,11.552 11.686,17.375 1.07,1.129 2.271,2.146 3.576,3.019 -0.27,-0.43 -0.538,-0.861 -0.811,-1.289 -6.736,-10.783 -14.993,-20.531 -19.81,-32.06 -0.631,-1.387 -1.21,-2.793 -1.737,-4.217 -0.012,0.015 -0.025,0.035 -0.039,0.052 l -0.177,-0.126 c 0.041,-0.059 0.084,-0.118 0.126,-0.177 -3.081,-8.439 -4.275,-17.466 -2.976,-26.193 -0.068,-0.392 -0.144,-0.781 -0.204,-1.175 l 0.216,-0.032 c 0.027,0.176 0.063,0.352 0.092,0.528 0.25,-1.518 0.575,-3.026 0.979,-4.518 3.564,-12.863 11.006,-24.141 18.36,-35.795 0.917,-2.143 2.106,-4.178 3.58,-6.034 l 0.116,0.09 c 3.25,-5.336 6.346,-10.816 8.926,-16.618 -0.274,-0.536 -0.543,-1.074 -0.805,-1.611 z m -40.761,77.593 c 0.728,-1.542 1.334,-3.144 1.832,-4.775 0.036,-0.432 0.066,-0.864 0.089,-1.294 -0.681,2.012 -1.326,4.034 -1.921,6.069 z m -2.633,10.752 c -0.142,0.738 -0.279,1.479 -0.405,2.22 2.562,-3.07 4.32,-6.823 5.42,-10.716 -1.099,3.122 -2.716,6.029 -5.015,8.496 z m 0.969,-4.493 c -0.124,0.518 -0.242,1.038 -0.36,1.558 0.574,-0.905 1.08,-1.852 1.514,-2.836 -0.372,0.436 -0.756,0.863 -1.154,1.278 z m -1.594,8.073 c -0.083,0.524 -0.16,1.049 -0.231,1.575 1.524,-1.987 2.81,-4.145 3.885,-6.41 -1.03,1.756 -2.243,3.387 -3.654,4.835 z m 0.869,3.111 c -0.46,0.512 -0.95,1.001 -1.465,1.463 -0.101,0.967 -0.186,1.935 -0.251,2.903 1.801,-2.186 3.182,-4.657 4.206,-7.292 -0.775,1.015 -1.604,1.993 -2.49,2.926 z m -1.619,6.11 c -0.067,0.068 -0.138,0.134 -0.208,0.2 -0.039,0.903 -0.059,1.808 -0.066,2.711 4.482,-5.011 7.108,-11.673 8.342,-18.276 -0.086,0.169 -0.175,0.336 -0.263,0.502 -1.323,5.53 -3.73,10.75 -7.805,14.863 z m 37.029,27.582 c 0.863,0.659 1.777,1.258 2.735,1.778 -0.097,-0.155 -0.191,-0.311 -0.288,-0.466 -1.026,-0.593 -1.997,-1.275 -2.907,-2.027 0.154,0.236 0.306,0.477 0.46,0.715 z m 3.027,-73.405 c 1.055,1.102 2.225,2.087 3.478,2.951 0.049,-0.064 0.096,-0.126 0.144,-0.19 -1.987,-1.374 -3.781,-3.044 -5.306,-4.919 -6.31,-7.47 -7.711,-18.295 -4.224,-27.231 -0.172,0.266 -0.344,0.532 -0.516,0.797 -3.381,9.682 -1.171,21.325 6.424,28.592 z m 17.98,6.797 c 2.225,-0.165 4.403,-0.713 6.455,-1.569 l -0.091,-0.129 c 0.093,-0.065 0.194,-0.118 0.291,-0.18 -3.372,1.446 -7.098,2.055 -10.744,1.661 -3.653,-0.311 -7.088,-1.663 -10.086,-3.696 -0.049,0.065 -0.098,0.128 -0.147,0.192 4.172,2.812 9.271,4.228 14.322,3.721 z m 12.681,-6.058 c 0.276,-0.239 0.544,-0.489 0.804,-0.747 4.493,-5.032 6.201,-12.68 3.079,-18.954 -0.258,-0.66 -0.577,-1.291 -0.941,-1.894 -0.627,-0.45 -1.242,-0.906 -1.849,-1.365 -0.132,0.279 -0.414,0.475 -0.744,0.475 -0.455,0 -0.823,-0.37 -0.823,-0.824 0,-0.252 0.116,-0.475 0.295,-0.627 -1.297,-1.017 -2.545,-2.059 -3.757,-3.121 -0.723,-0.225 -1.471,-0.386 -2.241,-0.465 -0.604,-0.079 -1.22,-0.11 -1.834,-0.089 -0.086,0.172 -0.172,0.344 -0.258,0.517 -0.093,0.191 -0.186,0.381 -0.28,0.57 l -0.196,-0.096 c 0.093,-0.191 0.186,-0.381 0.279,-0.572 0.069,-0.137 0.137,-0.273 0.205,-0.41 -1.547,0.092 -3.058,0.545 -4.295,1.535 -1.824,1.343 -2.627,3.906 -1.731,6.047 -0.944,-2.114 -0.204,-4.748 1.636,-6.166 1.275,-1.072 2.884,-1.571 4.522,-1.679 0.12,-0.242 0.243,-0.483 0.361,-0.722 l 0.197,0.097 c -0.1,0.203 -0.203,0.406 -0.305,0.609 0.58,-0.024 1.162,-0.002 1.733,0.06 0.546,0.04 1.087,0.123 1.619,0.241 -0.797,-0.712 -1.582,-1.429 -2.346,-2.157 -0.027,-0.006 -0.057,-0.01 -0.085,-0.014 -0.013,0.025 -0.024,0.051 -0.036,0.078 l -0.197,-0.097 c 0.002,-0.005 0.003,-0.01 0.005,-0.015 -5.589,-0.824 -11.616,2.044 -14.251,7.17 -2.316,4.343 -1.104,10.132 2.496,13.402 0.246,-0.364 0.492,-0.727 0.734,-1.095 l 0.184,0.122 c -0.248,0.375 -0.5,0.745 -0.752,1.119 0.953,0.828 2.063,1.485 3.316,1.898 -1.254,-0.408 -2.366,-1.062 -3.323,-1.89 -0.038,0.058 -0.077,0.115 -0.114,0.173 1.25,1.081 2.741,1.872 4.396,2.175 3.406,0.759 7.079,-0.676 9.256,-3.387 -2.149,2.732 -5.826,4.22 -9.276,3.489 -1.673,-0.292 -3.187,-1.072 -4.462,-2.15 -0.088,0.131 -0.176,0.265 -0.266,0.396 l -0.182,-0.123 c 0.094,-0.137 0.185,-0.277 0.279,-0.414 -1.305,-1.149 -2.343,-2.614 -3.017,-4.189 -1.359,-3.196 -1.267,-7.016 0.397,-10.103 1.671,-3.066 4.479,-5.443 7.761,-6.606 2.013,-0.794 4.133,-1.043 6.213,-0.846 -6.68,-6.578 -11.942,-13.824 -16.064,-21.378 -2.565,5.395 -5.525,10.494 -8.602,15.435 l 0.097,0.076 c -0.277,0.339 -0.54,0.688 -0.796,1.043 -0.544,0.863 -1.09,1.724 -1.638,2.58 -5.069,9.227 -4.194,21.532 2.72,29.772 1.505,1.861 3.273,3.519 5.234,4.882 0.162,-0.214 0.328,-0.429 0.491,-0.643 l 0.173,0.131 c -0.16,0.213 -0.322,0.424 -0.483,0.636 2.946,2.007 6.321,3.344 9.919,3.665 6.016,0.669 12.282,-1.413 16.743,-5.555 z m -4.003,3.203 -0.008,-0.015 c -0.031,0.018 -0.063,0.036 -0.095,0.054 0.035,-0.013 0.068,-0.026 0.103,-0.039 z m 9.106,-23.284 c -0.116,-0.078 -0.227,-0.156 -0.34,-0.235 0.551,1.242 0.967,2.539 1.213,3.856 0.332,1.606 0.401,3.237 0.247,4.844 -0.063,1.371 -0.286,2.739 -0.653,4.073 1.349,-4.047 1.185,-8.59 -0.467,-12.538 z m -1.076,-0.743 c 0.146,0.288 0.285,0.581 0.408,0.879 0.746,1.419 1.244,2.921 1.526,4.457 -0.044,-0.314 -0.091,-0.626 -0.155,-0.939 -0.254,-1.39 -0.698,-2.758 -1.293,-4.061 -0.162,-0.113 -0.326,-0.223 -0.486,-0.336 z m -0.116,-0.213 c 0.172,0.119 0.346,0.238 0.518,0.357 -1.974,-4.183 -5.598,-7.649 -10.137,-8.802 -0.318,-0.086 -0.639,-0.157 -0.962,-0.218 0.771,0.734 1.564,1.458 2.371,2.174 3.481,0.846 6.52,3.311 8.21,6.489 z m -2.739,-2.272 c 0,0.084 -0.017,0.164 -0.04,0.241 0.549,0.416 1.103,0.826 1.665,1.233 -1.511,-2.383 -3.806,-4.247 -6.483,-5.148 1.16,1.013 2.359,2.008 3.597,2.979 0.127,-0.08 0.278,-0.128 0.438,-0.128 0.455,0 0.823,0.369 0.823,0.823 z m 2.446,0.428 c -2.251,-3.722 -6.183,-6.393 -10.442,-7.148 -0.019,0.042 -0.038,0.084 -0.059,0.126 0.022,0.019 0.042,0.04 0.064,0.059 0.381,0.068 0.761,0.149 1.138,0.25 4.67,1.173 8.381,4.765 10.359,9.086 0.115,0.079 0.229,0.159 0.345,0.239 -0.393,-0.907 -0.854,-1.784 -1.405,-2.612 z m -10.666,-7.186 c 0,0 -0.002,-0.001 -0.003,-0.001 0.001,0.001 0.002,0.001 0.003,0.002 0,-0.001 0,-0.001 0,-0.001 z m -6.82,0.657 c -6.483,1.979 -11.067,9.676 -8.108,16.241 0.645,1.547 1.647,2.995 2.915,4.139 0.039,-0.058 0.076,-0.115 0.115,-0.172 -3.615,-3.263 -4.854,-9.063 -2.539,-13.44 2.636,-5.167 8.707,-8.077 14.353,-7.248 0.012,-0.024 0.023,-0.048 0.034,-0.071 -0.045,-0.044 -0.09,-0.089 -0.135,-0.135 -2.2,-0.324 -4.472,-0.137 -6.635,0.686 z m -17.279,-39.415 c -1.441,2.907 -3.047,5.735 -4.844,8.461 -3.608,5.612 -8.374,10.559 -13.894,14.321 l 0.04,0.091 c -0.127,0.046 -0.256,0.095 -0.384,0.145 -0.805,0.539 -1.627,1.049 -2.463,1.534 -0.551,0.519 -1.061,1.074 -1.504,1.655 8.465,-4.406 15.451,-11.661 20.301,-19.789 1.088,-1.816 2.097,-3.669 3.043,-5.548 -0.1,-0.289 -0.199,-0.579 -0.295,-0.87 z m 0.947,-0.448 c 0.262,-1.038 0.503,-2.081 0.717,-3.126 -0.507,1.158 -1.035,2.303 -1.595,3.436 0.097,0.29 0.196,0.581 0.296,0.872 0.195,-0.393 0.39,-0.787 0.582,-1.182 z m -3.035,-6.499 c -1.214,0.972 -2.503,1.851 -3.869,2.613 -5.807,3.415 -13.182,4.925 -19.841,2.994 -3.036,-0.801 -5.863,-2.238 -8.314,-4.138 -0.242,0.123 -0.476,0.248 -0.722,0.368 l -0.095,-0.198 c 0.214,-0.104 0.417,-0.213 0.629,-0.318 -1.858,-1.471 -3.495,-3.205 -4.827,-5.143 0.078,3.16 0.351,6.435 0.839,9.818 0.081,0.016 0.159,0.042 0.234,0.084 0.366,0.217 0.535,0.65 0.345,1.029 -0.077,0.151 -0.207,0.264 -0.359,0.333 0.283,1.757 0.624,3.542 1.027,5.357 4.03,-0.148 8.195,2.609 8.459,6.89 0.175,2.823 -1.75,5.558 -4.426,6.308 -0.045,0.014 -0.089,0.019 -0.134,0.032 0.751,2.159 1.392,4.267 1.927,6.322 0.386,-0.069 0.769,-0.155 1.145,-0.266 9.081,-3.534 16.675,-10.422 21.769,-18.91 2.493,-4.048 4.575,-8.402 6.279,-12.926 -0.021,-0.083 -0.044,-0.167 -0.066,-0.249 z m 0.224,-0.177 c -0.043,0.035 -0.088,0.069 -0.131,0.103 0.014,0.05 0.026,0.1 0.04,0.15 0.031,-0.083 0.059,-0.169 0.091,-0.253 z m -0.736,-1.809 c -2.031,1.784 -4.32,3.274 -6.83,4.368 -6.184,3.035 -13.799,3.253 -19.958,0.171 -4.167,-1.933 -7.558,-5.256 -9.756,-9.212 -0.004,0.293 -0.01,0.583 -0.01,0.878 0,0.155 0.004,0.316 0.005,0.472 1.487,2.389 3.438,4.497 5.703,6.193 0.155,-0.08 0.315,-0.155 0.467,-0.237 l 0.104,0.193 c -0.123,0.066 -0.251,0.126 -0.376,0.191 2.294,1.677 4.904,2.938 7.682,3.644 6.409,1.793 13.427,0.296 19.01,-3.045 1.474,-0.84 2.855,-1.815 4.139,-2.906 -0.061,-0.237 -0.121,-0.475 -0.18,-0.71 z m 1.576,-0.567 c 0.161,-0.475 0.317,-0.951 0.469,-1.426 -0.619,0.668 -1.271,1.305 -1.953,1.909 0.059,0.237 0.119,0.475 0.179,0.712 0.45,-0.384 0.883,-0.784 1.305,-1.195 z m -40.466,-10.394 c -1.261,-6.407 1.353,-13.243 6.313,-17.246 0.139,-0.401 0.279,-0.801 0.425,-1.195 -1.99,1.452 -3.699,3.302 -4.969,5.398 -3.487,5.477 -3.576,12.868 -0.564,18.62 0.309,0.641 0.656,1.263 1.024,1.871 0,-0.094 -0.003,-0.188 -0.003,-0.282 0,-0.358 0.01,-0.71 0.014,-1.065 -1.042,-1.917 -1.806,-3.977 -2.24,-6.101 z m 4.783,-12.292 c -2.151,3.407 -2.991,7.613 -2.143,11.496 0.425,-4.046 1.165,-7.876 2.143,-11.496 z m 2.169,-5.458 c 5.214,-4.147 13.161,-4.554 18.127,-0.104 3.862,3.054 5.504,8.464 4.109,12.918 l 0.017,0.01 c -0.014,0.022 -0.03,0.043 -0.042,0.064 -0.462,1.43 -1.235,2.762 -2.355,3.88 -0.564,0.606 -1.207,1.148 -1.902,1.609 l 0.1,0.085 c -0.369,0.435 -0.755,0.863 -1.142,1.29 3.346,-1.571 5.891,-4.966 6.448,-8.721 -0.135,0.226 -0.262,0.454 -0.401,0.679 l -0.187,-0.115 c 0.227,-0.368 0.437,-0.737 0.654,-1.109 0.067,-0.698 0.069,-1.406 -0.013,-2.115 -0.618,-6.296 -6.08,-11.693 -12.511,-12.29 -3.918,-0.406 -7.784,0.847 -10.958,3.114 -0.144,0.391 -0.285,0.788 -0.425,1.183 0.161,-0.126 0.316,-0.259 0.481,-0.378 z m -2.431,43.807 c 2.154,-0.131 4.369,0.662 5.899,2.153 2.177,1.939 2.958,5.344 1.41,7.86 -0.736,1.362 -2.094,2.329 -3.562,2.676 0.021,0.062 0.044,0.124 0.063,0.187 0.047,-0.012 0.093,-0.019 0.139,-0.031 2.649,-0.76 4.533,-3.481 4.346,-6.259 -0.285,-4.21 -4.384,-6.895 -8.331,-6.739 0.01,0.05 0.023,0.102 0.036,0.153 z m 3.669,12.462 c 1.401,-0.355 2.678,-1.307 3.354,-2.614 1.407,-2.416 0.617,-5.54 -1.462,-7.335 -1.434,-1.345 -3.465,-2.035 -5.419,-1.906 0.866,3.716 1.987,7.551 3.406,11.512 0.042,0.114 0.08,0.229 0.121,0.343 z m 0.035,0.437 c -0.021,-0.061 -0.042,-0.122 -0.064,-0.183 -1.244,0.267 -2.559,0.089 -3.639,-0.688 -2.578,-1.425 -2.759,-5.525 -0.028,-6.762 -2.698,1.309 -2.399,5.301 0.115,6.623 1.053,0.723 2.301,0.872 3.473,0.601 -0.038,-0.111 -0.075,-0.222 -0.115,-0.335 -1.424,-3.97 -2.547,-7.816 -3.415,-11.54 -0.697,0.057 -1.384,0.218 -2.025,0.495 -5.326,1.924 -7.221,9.247 -3.643,13.564 2.471,3.604 7.094,5.296 11.283,4.585 -0.536,-2.053 -1.175,-4.159 -1.927,-6.317 -2.636,0.586 -5.529,-1.278 -5.895,-3.912 0.383,2.629 3.274,4.461 5.88,3.869 z m -8.169,-11.404 c -4.81,3.205 -5.334,10.699 -1.356,14.825 1.877,2.288 4.601,3.754 7.499,4.267 0.136,-0.033 0.271,-0.06 0.404,-0.093 -3.41,-0.504 -6.617,-2.348 -8.526,-5.254 -3.836,-4.827 -1.57,-12.812 4.213,-14.746 0.68,-0.274 1.395,-0.434 2.118,-0.489 -0.01,-0.051 -0.024,-0.103 -0.035,-0.155 -1.547,0.082 -3.066,0.604 -4.317,1.645 z m 16.637,19.406 c 0.078,-0.035 0.156,-0.07 0.234,-0.106 0.029,-0.066 0.059,-0.129 0.09,-0.194 -0.109,0.1 -0.217,0.2 -0.324,0.3 z m 27.06,-57.144 c -1.041,-6.631 -2.851,-13.181 -5.228,-19.604 -0.043,0.263 -0.08,0.518 -0.126,0.783 l -0.217,-0.038 c 0.07,-0.395 0.127,-0.778 0.188,-1.168 -0.896,-2.398 -1.875,-4.78 -2.918,-7.139 -0.313,3.969 -0.526,8.455 -0.526,13.314 0,2.179 0.044,4.434 0.141,6.748 0.037,-0.104 0.08,-0.21 0.116,-0.313 l 0.209,0.073 c -0.096,0.265 -0.202,0.533 -0.302,0.8 0.318,7.058 1.13,14.665 2.726,22.456 3.737,-4.435 5.868,-10.187 5.937,-15.912 z m -32.741,58.578 c 0.047,0.217 0.095,0.434 0.14,0.648 0.771,-0.223 1.534,-0.472 2.287,-0.745 0.008,-0.012 0.018,-0.025 0.028,-0.038 0.156,-0.307 0.321,-0.612 0.509,-0.911 -0.976,0.385 -1.963,0.736 -2.964,1.046 z m -7.569,1.559 c -6.715,0.528 -13.519,1.065 -19.664,4.053 -2.459,1.111 -4.705,2.594 -6.757,4.325 -0.328,0.48 -0.594,1.002 -0.776,1.555 4.003,-3.721 8.991,-6.24 14.262,-7.549 5.931,-1.642 12.324,-1.017 18.619,-2.761 0.646,-0.149 1.284,-0.321 1.918,-0.504 -0.044,-0.213 -0.091,-0.429 -0.137,-0.645 -2.424,0.743 -4.919,1.263 -7.465,1.526 z m 8.129,1.332 c 0.322,-0.634 0.685,-1.258 1.086,-1.868 -0.448,0.142 -0.901,0.276 -1.354,0.403 0.096,0.492 0.184,0.98 0.268,1.465 z m 2.948,-2.441 c 0.007,-0.026 0.013,-0.053 0.02,-0.079 -0.052,0.019 -0.105,0.04 -0.158,0.058 -0.105,0.19 -0.205,0.379 -0.301,0.573 0.143,-0.187 0.289,-0.37 0.439,-0.552 z m -2.714,3.911 c 0.014,0.098 0.031,0.195 0.045,0.291 0.152,-0.332 0.314,-0.662 0.49,-0.987 0.002,-0.02 0.002,-0.037 0.004,-0.057 0.012,-0.127 0.033,-0.255 0.05,-0.383 -0.21,0.375 -0.409,0.753 -0.589,1.136 z m -0.646,1.59 c -1.046,2.469 -0.521,5.236 1.191,7.268 0,-0.083 0.002,-0.166 0.002,-0.251 0,-0.009 0,-0.019 0,-0.03 -1.727,-2.222 -1.981,-5.286 -0.684,-7.891 0.032,-0.072 0.067,-0.142 0.098,-0.212 -0.014,-0.095 -0.029,-0.191 -0.043,-0.285 -0.209,0.46 -0.402,0.926 -0.564,1.401 z m 0.658,-0.727 c -1.23,2.491 -1.049,5.409 0.535,7.588 -0.008,-2.427 -0.18,-4.956 -0.535,-7.588 z m 15.572,105.494 c -0.729,-0.663 -2.03,-0.147 -2.2,0.775 -0.185,0.967 0.957,1.518 1.928,1.189 0.407,-0.093 0.801,-0.246 1.174,-0.438 -0.182,-0.578 -0.472,-1.103 -0.902,-1.526 z m -4.49,9.667 c 0.563,-0.89 0.42,-2.441 -0.877,-2.256 -1.017,-0.011 -2.151,1.184 -1.261,2.006 0.5,0.487 1.217,0.65 1.94,0.655 0.071,-0.131 0.138,-0.265 0.198,-0.405 z m 41.318,-9.384 c 0.994,-0.393 2.338,-0.959 2.748,-2.22 -0.208,0.484 -1.062,1.821 -4.238,2.507 -0.061,0.098 -0.13,0.191 -0.193,0.289 0.436,-0.133 1.08,-0.34 1.683,-0.576 z m -1.156,-0.322 c -0.065,0.124 -0.132,0.251 -0.203,0.372 0.626,-0.429 1.771,-1.193 2.39,-1.454 -0.429,0.144 -1.273,0.473 -2.187,1.082 z m 21.482,-129.473 c 0.325,-2.193 -2.693,-2.537 -4.051,-1.352 -0.767,0.504 -1.272,1.5 -0.832,2.362 0.43,0.837 1.282,1.355 2.088,1.826 0.214,0.122 0.434,0.232 0.657,0.334 1.066,-0.815 1.968,-1.858 2.138,-3.17 z m -16.595,-3.314 c 1.75,-0.58 2.915,-2.779 1.473,-4.056 -1.359,-1.159 -3.821,-0.359 -4.189,1.444 -0.181,1.144 -0.031,2.272 0.348,3.35 0.823,-0.139 1.627,-0.383 2.368,-0.738 z m -8.401,-46.893 c 0.419,0.317 0.851,0.618 1.295,0.898 -0.262,-0.247 -0.519,-0.497 -0.773,-0.754 -0.18,-0.07 -0.362,-0.134 -0.54,-0.216 -0.033,-0.015 -0.064,-0.033 -0.096,-0.048 0.038,0.04 0.076,0.081 0.114,0.12 z m 8.594,6.275 c 1.396,0.786 2.938,1.292 4.534,1.541 -0.039,-0.111 -0.081,-0.222 -0.121,-0.335 -2.054,-0.329 -4.035,-1.055 -5.757,-2.154 -0.717,-0.406 -1.412,-0.845 -2.088,-1.307 -0.033,-0.008 -0.065,-0.014 -0.097,-0.022 -0.211,-0.053 -0.416,-0.117 -0.625,-0.179 1.31,0.926 2.693,1.755 4.154,2.456 z m -15.301,-19.036 c 0.102,0.597 0.231,1.197 0.385,1.796 l 0.086,-0.038 c 0.281,0.675 0.59,1.343 0.914,2.003 3.12,4.44 8.141,7.93 13.766,6.497 -0.149,-0.261 -0.291,-0.525 -0.445,-0.784 l 0.189,-0.114 c 0.164,0.278 0.316,0.563 0.475,0.841 0.286,-0.078 0.572,-0.165 0.859,-0.271 -0.264,0.133 -0.535,0.248 -0.811,0.356 0.188,0.329 0.379,0.656 0.56,0.99 l -0.193,0.104 c -0.185,-0.343 -0.382,-0.677 -0.575,-1.016 -3.143,1.16 -6.874,0.81 -9.885,-0.929 -0.297,-0.166 -0.583,-0.348 -0.87,-0.529 0.436,0.608 0.891,1.199 1.365,1.775 0.444,0.341 0.911,0.653 1.409,0.928 2.784,1.558 6.073,1.753 9.304,1.209 -0.046,-0.09 -0.089,-0.183 -0.135,-0.275 l 0.195,-0.1 c 0.058,0.112 0.109,0.226 0.166,0.338 1.595,-0.286 3.174,-0.747 4.667,-1.315 -1.411,0.665 -2.925,1.253 -4.49,1.675 0.211,0.424 0.424,0.846 0.625,1.276 l -0.199,0.092 c -0.208,-0.442 -0.426,-0.876 -0.644,-1.313 -2.787,0.725 -5.731,0.903 -8.567,0.033 0.455,0.449 0.922,0.885 1.405,1.307 0.823,0.415 1.675,0.777 2.558,1.065 1.966,0.676 4.06,0.993 6.158,0.964 -0.121,-0.285 -0.237,-0.575 -0.365,-0.86 l 0.201,-0.089 c 0.14,0.314 0.268,0.635 0.402,0.949 3.703,-0.094 7.406,-1.285 10.442,-3.584 -2.799,2.44 -6.391,3.915 -10.133,4.315 0.047,0.116 0.099,0.23 0.146,0.345 l -0.203,0.083 c -0.055,-0.136 -0.115,-0.267 -0.17,-0.401 -1.925,0.183 -3.885,0.079 -5.795,-0.322 0.427,0.282 0.859,0.556 1.303,0.814 1.646,1.086 3.547,1.824 5.526,2.188 -0.128,-0.352 -0.251,-0.701 -0.386,-1.053 l 0.205,-0.079 c 0.151,0.392 0.288,0.783 0.43,1.175 5.061,0.848 10.592,-0.745 13.715,-5.273 -3.027,4.54 -8.525,6.246 -13.629,5.505 0.039,0.114 0.082,0.225 0.121,0.336 6.207,0.855 13.135,-2.243 15.283,-8.684 -2.31,8.317 -12.995,11.889 -20.517,8.106 -3.33,-1.416 -6.35,-3.437 -8.996,-5.885 -1.053,-0.682 -2.049,-1.463 -2.963,-2.334 0.485,2.37 0.9,4.763 1.222,7.181 1.278,9.083 1.124,18.481 -0.49,27.56 l 0.189,0.026 c -0.499,3.681 -0.607,7.735 1.44,10.88 1.471,2.427 4.333,3.323 7.069,2.992 -0.379,-1.104 -0.534,-2.285 -0.364,-3.533 0.434,-2.096 3.264,-3.104 4.946,-1.707 1.884,1.637 0.277,4.362 -1.557,4.928 -0.742,0.368 -1.554,0.628 -2.391,0.787 0.926,2.163 2.729,4.09 4.55,5.479 1.191,0.886 2.581,1.459 4.03,1.722 0.075,-0.298 0.153,-0.595 0.223,-0.893 l 0.214,0.05 c -0.069,0.294 -0.148,0.586 -0.22,0.879 2.182,0.347 4.478,-0.012 6.42,-1.116 0.426,-0.243 0.861,-0.519 1.276,-0.826 -0.204,-0.093 -0.405,-0.192 -0.601,-0.302 -0.823,-0.473 -1.698,-0.984 -2.167,-1.877 -0.494,-0.937 0.066,-2.055 0.869,-2.578 1.359,-1.263 4.686,-0.942 4.381,1.516 -0.178,1.381 -1.047,2.434 -2.089,3.265 1.438,0.596 3.017,0.787 4.564,0.499 3.468,-0.759 7.843,-2.894 8.062,-6.905 -0.189,4.021 -4.557,6.204 -8.047,6.993 -1.575,0.311 -3.219,0.116 -4.695,-0.496 -0.459,0.355 -0.947,0.669 -1.424,0.95 -1.988,1.154 -4.364,1.54 -6.627,1.192 -0.079,0.312 -0.153,0.626 -0.234,0.939 l -0.213,-0.056 c 0.079,-0.305 0.152,-0.611 0.228,-0.916 -1.49,-0.262 -2.925,-0.842 -4.158,-1.743 -1.904,-1.464 -3.806,-3.402 -4.766,-5.7 -2.948,0.421 -6.135,-0.514 -7.804,-3.19 -1.449,-2.208 -1.899,-4.751 -1.91,-7.296 -0.674,2.965 -1.5,5.886 -2.496,8.738 -1.229,3.709 -2.698,7.256 -4.324,10.686 4.142,7.606 9.443,14.9 16.179,21.516 0.264,0.027 0.527,0.064 0.79,0.106 0.196,-0.409 0.392,-0.817 0.583,-1.228 l 0.199,0.093 c -0.183,0.392 -0.371,0.784 -0.558,1.175 4.359,0.774 8.412,3.481 10.742,7.263 0.766,1.125 1.385,2.339 1.865,3.606 1.332,0.883 2.703,1.744 4.115,2.582 0.087,-0.08 0.203,-0.133 0.332,-0.133 0.272,0 0.493,0.222 0.493,0.495 0,0.039 -0.013,0.074 -0.022,0.112 1.922,1.119 3.92,2.195 5.991,3.223 0.115,-0.19 0.323,-0.317 0.561,-0.317 0.364,0 0.659,0.294 0.659,0.658 0,0.087 -0.018,0.167 -0.047,0.241 1.518,0.733 3.078,1.441 4.678,2.123 l -0.043,0.102 c -1.604,-0.683 -3.164,-1.393 -4.686,-2.125 -0.115,0.189 -0.322,0.317 -0.561,0.317 -0.363,0 -0.659,-0.295 -0.659,-0.658 0,-0.087 0.018,-0.167 0.048,-0.242 -2.065,-1.027 -4.058,-2.1 -5.976,-3.214 -0.081,0.16 -0.243,0.273 -0.436,0.273 -0.273,0 -0.494,-0.221 -0.494,-0.493 0,-0.104 0.039,-0.194 0.094,-0.273 -1.367,-0.813 -2.695,-1.647 -3.986,-2.501 1.908,5.184 1.441,11.248 -1.518,15.994 -1.504,2.382 -3.467,4.459 -5.725,6.135 3.04,-0.109 6.096,1.153 7.784,3.736 1.507,1.863 1.847,4.594 0.884,6.743 -0.584,2.211 -3.769,4.017 -5.451,1.907 1.778,1.994 4.698,0.105 5.171,-2.017 0.814,-2.127 0.402,-4.57 -1.081,-6.263 -2.176,-3.03 -6.271,-3.818 -9.572,-2.621 -0.608,0.348 -1.229,0.674 -1.867,0.967 -0.1,0.069 -0.204,0.132 -0.301,0.206 l -0.041,-0.057 c -2.19,0.963 -4.528,1.591 -6.928,1.795 -6.941,0.783 -14.107,-1.973 -18.943,-6.944 -6.862,-6.427 -9.662,-16.302 -8.149,-25.453 -6.202,9.642 -11.966,19.113 -14.955,29.579 -0.797,2.821 -1.303,5.699 -1.539,8.601 0.052,0.198 0.096,0.401 0.151,0.599 l -0.197,0.053 c -0.462,6.869 0.577,13.865 2.844,20.581 0.099,-0.137 0.196,-0.276 0.295,-0.411 l 0.177,0.129 c -0.129,0.177 -0.255,0.358 -0.384,0.535 0.57,1.664 1.212,3.31 1.929,4.932 4.611,11.409 12.728,21.207 19.403,32.118 0.531,0.855 1.056,1.716 1.579,2.576 1.639,0.911 3.413,1.596 5.283,1.992 4.889,1.084 10.578,-0.174 14.1,-4.243 -3.434,4.135 -9.154,5.546 -14.147,4.545 -1.687,-0.318 -3.306,-0.875 -4.828,-1.617 0.08,0.133 0.161,0.267 0.242,0.401 1.79,0.823 3.704,1.392 5.691,1.634 4.949,0.719 10.452,-1.133 13.668,-5.254 -0.088,-0.009 -0.175,-0.017 -0.264,-0.033 0,0 0.143,-0.039 0.37,-0.105 0.079,-0.104 0.162,-0.205 0.237,-0.312 -0.065,0.015 -0.123,0.029 -0.191,0.042 0,0 0.124,-0.088 0.316,-0.219 0.092,-0.136 0.176,-0.278 0.263,-0.416 -0.21,0.143 -0.422,0.299 -0.634,0.471 0,0 1.698,-2.969 3.396,-3.334 0,0 -1.458,0.008 -3.498,3.052 0,0 1.379,-4.343 5.242,-4.006 0,0 0.303,1.126 -0.209,2.401 -0.486,1.211 -2.457,2.713 -4.9,2.475 -0.086,0.129 -0.166,0.262 -0.258,0.387 4.303,0.884 5.887,-2.409 5.887,-2.409 -1.903,2.973 -5.444,2.251 -5.444,2.251 4.768,-0.073 5.287,-3.612 5.287,-3.612 1.422,-0.498 1.797,-0.082 1.797,-0.082 -0.494,1.521 -1.728,2.822 -1.728,2.822 -3.255,2.825 -5.721,1.089 -5.8,1.032 -3.022,4.136 -8.468,6.366 -13.634,5.942 -1.503,-0.087 -2.987,-0.349 -4.429,-0.765 5.347,9.09 10.128,18.534 13.698,28.457 4.19,11.848 6.958,24.999 3.458,37.177 3.371,-12.206 0.476,-25.272 -3.817,-37.04 -3.75,-10.103 -8.765,-19.693 -14.353,-28.914 -0.71,-0.244 -1.409,-0.526 -2.092,-0.844 2.279,3.659 4.456,7.376 6.456,11.202 6.327,11.898 11.782,24.541 13.482,37.763 0.823,6.563 0.55,13.294 -1.608,19.352 -2.062,5.964 -6.455,11.425 -11.697,13.982 5.131,-2.763 9.247,-8.307 11.047,-14.201 1.893,-5.994 1.926,-12.555 0.9,-18.943 -1.22,-7.439 -3.671,-14.671 -6.801,-21.675 -0.153,1.102 -0.477,2.17 -0.988,3.154 -1.27,2.592 -4.051,4.134 -6.734,4.089 2.684,-0.021 5.379,-1.608 6.566,-4.164 0.546,-1.107 0.854,-2.314 0.944,-3.547 -0.044,-0.098 -0.088,-0.195 -0.133,-0.294 -0.067,1.521 -0.465,3.008 -1.239,4.308 -1.47,2.608 -4.523,3.814 -7.318,3.499 2.836,0.089 5.596,-1.337 6.74,-3.816 1.197,-2.418 1.03,-5.379 -0.074,-7.765 l 0.085,-0.037 c -1.735,-3.516 -3.61,-6.973 -5.566,-10.366 -4.157,-7.316 -8.832,-14.015 -13.745,-20.808 0.018,0.135 0.031,0.271 0.039,0.408 0.134,1.832 -0.997,3.413 -2.502,4.281 0.293,1.373 0.05,2.862 -0.286,4.168 -0.599,2.17 -2.56,3.86 -4.759,4.209 -0.348,0.047 -0.714,0.075 -1.082,0.069 -0.457,0.738 -1.102,1.361 -1.864,1.783 -1.843,0.867 -4.596,1.414 -6.05,-0.388 1.472,1.776 4.203,1.188 6.007,0.309 0.724,-0.417 1.327,-1.004 1.762,-1.706 -0.715,-0.036 -1.417,-0.229 -1.958,-0.756 -1.037,-1.033 0.345,-2.412 1.416,-2.342 1.474,-0.191 1.632,1.654 1.013,2.494 -0.053,0.119 -0.112,0.236 -0.174,0.35 0.301,-0.006 0.6,-0.035 0.883,-0.08 2.098,-0.369 3.921,-1.985 4.463,-4.053 0.314,-1.192 0.481,-2.605 0.238,-3.852 -0.387,0.184 -0.792,0.322 -1.201,0.407 -1.039,0.402 -2.861,-0.334 -2.532,-1.827 0.265,-1.293 1.997,-1.896 2.971,-1.023 0.477,0.505 0.793,1.069 0.993,1.664 1.273,-0.804 2.173,-2.154 2.029,-3.682 -0.045,-0.652 -0.209,-1.279 -0.456,-1.88 -2.654,-3.655 -5.37,-7.347 -8.107,-11.191 -2.847,-4.258 -5.513,-8.817 -7.741,-13.634 l -0.002,0 c 0,-0.002 0,-0.002 0.001,-0.002 -1.428,-3.088 -2.673,-6.279 -3.672,-9.566 -1.58,6.418 -4.469,12.668 -9.073,17.33 0.03,5.22 0.618,10.465 1.902,15.711 l 10e-4,0 c 0,0 0,0 0,10e-4 0.046,0.188 0.086,0.375 0.133,0.563 2.229,8.306 6.708,16.136 12.783,22.034 0.102,-0.046 0.214,-0.073 0.334,-0.073 0.455,0 0.822,0.369 0.822,0.825 0,0.1 -0.02,0.194 -0.052,0.283 0.924,0.835 1.883,1.626 2.873,2.367 0.26,-0.342 0.668,-0.566 1.131,-0.566 0.787,0 1.425,0.638 1.425,1.427 0,0.281 -0.083,0.539 -0.222,0.759 3.806,2.437 8.017,4.163 12.535,4.955 0.07,-0.288 0.328,-0.502 0.639,-0.502 0.363,0 0.658,0.295 0.658,0.658 0,0.015 -0.004,0.029 -0.004,0.042 1.402,0.188 2.83,0.295 4.287,0.295 0.752,0 1.512,-0.027 2.276,-0.078 l 0.008,0.108 c -0.768,0.052 -1.53,0.08 -2.284,0.08 -1.461,0 -2.895,-0.108 -4.303,-0.296 -0.067,0.29 -0.328,0.509 -0.638,0.509 -0.364,0 -0.66,-0.295 -0.66,-0.66 0,-0.014 0.003,-0.032 0.005,-0.048 -4.537,-0.794 -8.763,-2.529 -12.582,-4.972 -0.261,0.348 -0.673,0.576 -1.14,0.576 -0.788,0 -1.428,-0.639 -1.428,-1.426 0,-0.286 0.088,-0.549 0.23,-0.773 -0.983,-0.737 -1.936,-1.522 -2.855,-2.352 -0.139,0.258 -0.408,0.436 -0.721,0.436 -0.455,0 -0.824,-0.367 -0.824,-0.822 0,-0.295 0.156,-0.551 0.389,-0.697 -6.078,-5.909 -10.558,-13.749 -12.789,-22.061 -0.032,-0.127 -0.057,-0.252 -0.088,-0.377 -0.193,0.627 -0.38,1.256 -0.556,1.888 l -0.211,-0.058 c 0.194,-0.705 0.402,-1.408 0.62,-2.109 l 0.087,0.027 c -1.269,-5.199 -1.852,-10.396 -1.891,-15.567 -1.503,1.506 -3.185,2.845 -5.064,3.964 -9.095,5.256 -20.178,3.269 -29.281,-0.472 9.184,3.573 20.244,5.258 28.973,-0.048 2.027,-1.255 3.809,-2.783 5.371,-4.509 0.006,-0.909 0.027,-1.815 0.065,-2.722 -6.57,6.407 -16.555,6.493 -24.626,4.215 8.35,1.953 18.256,1.24 24.085,-5.373 0.224,-0.246 0.432,-0.503 0.644,-0.758 0.065,-0.978 0.151,-1.957 0.251,-2.934 -4.46,3.954 -10.771,5.97 -16.391,4.156 6.527,1.39 12.886,-1.938 16.621,-6.927 0.041,-0.052 0.08,-0.107 0.119,-0.158 0.074,-0.541 0.152,-1.082 0.235,-1.619 -1.245,1.254 -2.632,2.375 -4.196,3.301 -7.383,4.242 -16.341,2.607 -23.688,-0.431 7.427,2.87 16.363,4.204 23.38,-0.089 1.807,-1.124 3.367,-2.521 4.715,-4.101 0.125,-0.75 0.264,-1.498 0.406,-2.246 -0.12,0.126 -0.233,0.257 -0.357,0.382 -5.372,5.44 -13.626,5.483 -20.24,3.578 6.761,1.543 14.739,0.911 19.379,-4.423 0.665,-0.737 1.258,-1.525 1.795,-2.346 0.122,-0.558 0.25,-1.116 0.38,-1.672 -3.665,3.986 -9.537,6.163 -14.613,4.476 5.294,1.043 10.351,-1.677 13.299,-5.72 1.103,-1.43 2.044,-2.976 2.849,-4.592 0.68,-2.366 1.424,-4.715 2.221,-7.047 0.032,-0.753 0.047,-1.502 0.041,-2.241 l 0.214,-0.006 c 0.478,-14.564 7.034,-27.711 13.588,-39.108 6.897,-11.952 14.011,-23.189 18.321,-35.185 0.257,-0.696 0.502,-1.395 0.738,-2.097 -0.34,0.585 -0.681,1.168 -1.034,1.746 -5.252,8.627 -12.94,16.297 -22.206,20.616 -1.032,1.948 -1.209,4.055 0.211,5.944 -1.407,-1.434 -1.849,-3.499 -1.264,-5.471 -0.301,0.13 -0.603,0.254 -0.904,0.377 -0.045,0.093 -0.092,0.184 -0.132,0.279 -1.157,2.749 0.048,5.669 1.849,7.983 -1.821,-1.955 -3.312,-4.456 -2.884,-7.212 -0.263,0.325 -0.516,0.658 -0.755,0.995 -0.194,0.529 -0.345,1.065 -0.44,1.607 -0.668,3.401 0.744,6.935 3.93,9.089 -3.184,-1.842 -4.99,-5.084 -4.84,-8.488 -0.14,0.268 -0.271,0.54 -0.396,0.813 0.379,2.751 0.558,5.39 0.56,7.922 0.905,1.178 2.223,2.131 3.973,2.645 -1.723,-0.481 -3.044,-1.389 -3.975,-2.528 0,0.092 -0.004,0.184 -0.004,0.275 1.397,1.585 3.532,2.696 6.218,2.814 -2.546,-0.006 -4.695,-0.938 -6.223,-2.365 -0.217,13.917 -5.873,24.429 -13.582,31.491 -4.909,4.498 -10.65,7.598 -16.344,9.292 0.018,0.06 0.03,0.122 0.03,0.187 0,0.365 -0.295,0.659 -0.658,0.659 -0.309,0 -0.566,-0.213 -0.638,-0.5 -1.204,0.314 -2.403,0.569 -3.589,0.756 0,0.006 0.002,0.012 0.002,0.019 0,0.455 -0.369,0.823 -0.824,0.823 -0.385,0 -0.705,-0.267 -0.796,-0.623 -1.203,0.134 -2.394,0.207 -3.554,0.207 -0.148,0 -0.293,-0.01 -0.441,-0.012 -0.04,0.231 -0.234,0.41 -0.477,0.41 -0.251,0 -0.451,-0.192 -0.481,-0.435 -1.334,-0.063 -2.623,-0.228 -3.859,-0.477 -0.168,0.598 -0.712,1.039 -1.366,1.039 -0.788,0 -1.427,-0.638 -1.427,-1.425 0,-0.125 0.022,-0.242 0.05,-0.356 -1.076,-0.372 -2.097,-0.815 -3.041,-1.353 l 0.056,-0.095 c 0.934,0.532 1.948,0.975 3.018,1.343 0.192,-0.561 0.718,-0.967 1.344,-0.967 0.789,0 1.426,0.639 1.426,1.428 0,0.095 -0.01,0.189 -0.027,0.28 1.223,0.247 2.5,0.409 3.824,0.474 0.027,-0.248 0.229,-0.444 0.483,-0.444 0.265,0 0.476,0.208 0.49,0.469 0.144,0.002 0.284,0.012 0.428,0.012 1.155,0 2.338,-0.075 3.536,-0.207 -0.003,-0.032 -0.008,-0.059 -0.008,-0.091 0,-0.454 0.368,-0.822 0.822,-0.822 0.411,0 0.749,0.301 0.811,0.695 1.185,-0.189 2.382,-0.443 3.583,-0.759 0,-0.016 -0.003,-0.03 -0.003,-0.048 0,-0.362 0.294,-0.657 0.658,-0.657 0.258,0 0.481,0.15 0.589,0.367 5.68,-1.687 11.411,-4.781 16.31,-9.27 1.41,-1.292 2.75,-2.703 4.003,-4.225 -0.576,0.305 -1.165,0.604 -1.769,0.894 l -0.094,-0.199 c 0.667,-0.319 1.317,-0.649 1.952,-0.989 l 0.06,0.113 c 5.507,-6.78 9.241,-15.824 9.395,-27.11 -2.103,-2.044 -2.967,-5.049 -1.949,-7.842 0.271,-0.952 0.641,-1.885 1.092,-2.798 -0.088,-0.529 -0.186,-1.061 -0.291,-1.599 -0.618,0.172 -1.241,0.332 -1.871,0.471 -6.474,1.712 -12.84,1.015 -18.667,2.576 -5.419,1.285 -10.527,3.848 -14.6,7.726 -0.161,0.805 -0.157,1.643 0.052,2.457 0.482,2.918 4.032,4.761 6.708,3.363 2.813,-1.126 2.917,-6.049 -0.33,-6.73 -1.426,-0.376 -3.161,0.509 -3.356,2.06 -0.383,1.532 1.203,3.047 2.731,2.49 -1.511,0.596 -3.184,-0.908 -2.821,-2.504 0.169,-1.612 1.971,-2.593 3.483,-2.223 3.461,0.652 3.507,5.916 0.458,7.229 -2.854,1.58 -6.793,-0.344 -7.4,-3.556 -0.177,-0.63 -0.235,-1.277 -0.201,-1.921 -0.134,0.135 -0.269,0.269 -0.398,0.406 -4.317,4.406 -7.333,9.992 -11.081,15.057 -3.641,5.126 -8.905,9.324 -15.105,10.468 6.19,-1.211 11.372,-5.438 14.947,-10.579 3.685,-5.081 6.645,-10.705 10.955,-15.206 0.245,-0.266 0.495,-0.524 0.748,-0.778 0.063,-0.407 0.165,-0.806 0.301,-1.195 -2.578,2.401 -4.822,5.188 -6.75,8.111 -3.778,5.553 -7.042,11.663 -12.408,15.494 -5.147,3.695 -11.684,4.499 -17.975,4.128 -1.305,0.064 -4.691,0.088 -6.146,-1.25 0,0 1.207,1.691 6.424,1.565 0,0 -6.187,1.961 -8.968,-2.812 0,0 1.064,-1.277 2.969,-1.729 1.906,-0.452 5.54,0.744 7.171,4.168 0,0 -1.329,-1.098 -2.666,-1.974 -1.272,-0.837 -3.032,-1.931 -4.836,-1.379 0.764,-0.161 3.138,-0.269 6.722,3.176 0,0 -3.211,-1.127 -4.364,-1.845 0.648,0.477 2.167,1.475 4.221,2.044 0,0 -0.079,0.008 -0.223,0.018 6.208,0.114 12.51,-0.971 17.264,-4.662 5.051,-3.881 8.028,-9.925 11.669,-15.695 3.551,-5.811 8.51,-11.46 15.017,-14.658 6.303,-3.375 13.872,-4.213 20.192,-4.924 0.801,-0.114 1.591,-0.253 2.375,-0.417 -2.699,-0.641 -5.194,-2.098 -6.947,-4.259 -4.049,-4.237 -3.466,-11.923 1.457,-15.155 1.277,-1.049 2.822,-1.57 4.391,-1.65 -0.402,-1.804 -0.74,-3.577 -1.021,-5.322 -0.192,0.055 -0.41,0.037 -0.6,-0.076 -0.392,-0.223 -0.539,-0.696 -0.329,-1.057 0.148,-0.252 0.423,-0.384 0.7,-0.37 -0.495,-3.44 -0.77,-6.769 -0.843,-9.979 -0.65,-0.964 -1.231,-1.972 -1.724,-3.022 -3.063,-5.965 -2.901,-13.662 0.75,-19.261 1.462,-2.357 3.459,-4.401 5.774,-5.928 3.414,-8.967 8.229,-16.376 13.059,-22.231 l 0.14,0 c -4.817,5.828 -9.625,13.203 -13.044,22.13 3.162,-2.039 6.901,-3.111 10.688,-2.688 6.601,0.679 12.105,6.253 12.668,12.651 0.062,0.6 0.069,1.2 0.026,1.791 0.083,-0.144 0.174,-0.286 0.256,-0.43 l 0.19,0.108 c -0.159,0.282 -0.332,0.56 -0.496,0.84 -0.483,3.998 -3.202,7.601 -6.744,9.177 -0.081,0.092 -0.157,0.184 -0.239,0.272 l -0.125,-0.114 c -1.243,0.496 -2.58,0.745 -3.95,0.675 1.364,0.054 2.688,-0.204 3.915,-0.707 l -0.002,-0.004 c 0.429,-0.463 0.84,-0.933 1.246,-1.405 -1.836,1.139 -4.006,1.701 -6.051,1.337 -2.992,-0.42 -5.455,-2.709 -6.332,-5.502 0.992,2.761 3.504,4.876 6.38,5.162 2.808,0.392 5.786,-1.048 7.667,-3.241 4.137,-4.49 2.654,-11.855 -2.086,-15.351 -4.656,-3.799 -11.453,-3.168 -16.004,0.672 -1.268,0.997 -2.349,2.202 -3.232,3.535 -1.048,3.807 -1.83,7.852 -2.26,12.136 1.404,5.607 5.485,10.621 10.822,12.835 5.364,2.396 11.501,2.016 16.735,-0.764 2.906,-1.393 5.412,-3.397 7.451,-5.789 -1.588,-7.731 -2.406,-15.285 -2.732,-22.3 -0.124,0.333 -0.243,0.664 -0.373,0.995 l -0.206,-0.08 c 0.195,-0.492 0.375,-0.982 0.555,-1.473 -0.103,-2.407 -0.152,-4.752 -0.152,-7.012 0,-4.943 0.22,-9.5 0.542,-13.522 -0.586,-1.318 -1.194,-2.63 -1.82,-3.934 l 11.719,0 c 3.938,9.792 6.885,20.037 8.11,30.62 1.638,13.901 -0.368,28.24 -5.649,41.064 -0.314,0.783 -0.639,1.561 -0.971,2.334 0.261,0.538 0.53,1.076 0.803,1.613 1.279,-2.893 2.434,-5.863 3.411,-8.939 4.223,-12.462 5.284,-26.104 3.337,-39.145 -0.666,-4.655 -1.668,-9.228 -2.922,-13.718 -0.142,-0.315 -0.28,-0.634 -0.404,-0.958 l 0.122,-0.043 c -0.125,-0.431 -0.254,-0.857 -0.382,-1.286 -0.064,-0.13 -0.134,-0.257 -0.197,-0.387 l 0.072,-0.032 c -1.147,-3.77 -2.472,-7.477 -3.927,-11.123 l 3.176,0 c 1.018,2.685 1.969,5.4 2.829,8.154 l 0.176,-0.03 z m -46.812,120.868 c -0.61,0.389 -1.238,0.768 -1.882,1.137 l -0.109,-0.191 c 0.642,-0.368 1.267,-0.745 1.873,-1.131 l 0.118,0.185 z m -1.368,62.682 c -0.248,0.689 -0.486,1.38 -0.714,2.073 l -0.207,-0.068 c 0.228,-0.695 0.466,-1.388 0.714,-2.079 l 0.207,0.074 z m 0.713,-135.029 0.092,0.199 c -0.657,0.303 -1.326,0.6 -2.008,0.888 l -0.086,-0.202 c 0.68,-0.288 1.348,-0.583 2.002,-0.885 z m 3.549,70.347 c -0.579,0.433 -1.176,0.859 -1.792,1.277 l -0.122,-0.184 c 0.613,-0.413 1.207,-0.837 1.782,-1.268 l 0.132,0.175 z m 2.737,-2.211 c -0.545,0.475 -1.109,0.943 -1.692,1.406 l -0.136,-0.171 c 0.581,-0.461 1.142,-0.928 1.683,-1.401 l 0.145,0.166 z m 5.241,-60.004 c 0.013,-0.416 0.37,-0.752 0.796,-0.748 0.427,0.007 0.781,0.345 0.789,0.756 0.009,0.423 -0.348,0.761 -0.795,0.754 -0.449,-0.004 -0.803,-0.345 -0.79,-0.762 z m 14.734,-3.098 c -0.192,-0.378 -0.03,-0.816 0.333,-1.03 0.361,-0.213 0.832,-0.098 1.051,0.257 0.216,0.356 0.075,0.83 -0.317,1.063 -0.39,0.229 -0.88,0.075 -1.067,-0.29 z m -17.658,2.144 c 0.427,0.039 0.743,0.409 0.71,0.824 -0.035,0.416 -0.424,0.718 -0.87,0.676 -0.447,-0.035 -0.761,-0.434 -0.706,-0.844 0.054,-0.417 0.44,-0.69 0.866,-0.656 z m -6.705,-0.771 c -0.137,0.389 -0.599,0.6 -1.019,0.435 -0.416,-0.175 -0.621,-0.625 -0.458,-1.009 0.162,-0.383 0.613,-0.561 1.004,-0.398 0.396,0.155 0.612,0.574 0.473,0.972 z m 3.059,0.147 c 0.414,0.092 0.681,0.493 0.594,0.901 -0.087,0.407 -0.515,0.663 -0.955,0.566 -0.435,-0.121 -0.695,-0.545 -0.582,-0.946 0.111,-0.403 0.535,-0.635 0.943,-0.521 z m -4.418,125.192 c -0.275,0.681 -0.543,1.363 -0.798,2.047 l -0.207,-0.077 c 0.257,-0.685 0.527,-1.37 0.802,-2.052 l 0.203,0.082 z m 31.879,-45.866 c -0.457,0.571 -0.916,1.141 -1.375,1.71 l -0.17,-0.136 c 0.458,-0.571 0.916,-1.141 1.375,-1.71 l 0.17,0.136 z m 10.395,-3.601 c 0.129,-0.395 0.573,-0.615 0.991,-0.492 0.416,0.13 0.678,0.542 0.578,0.942 -0.101,0.409 -0.551,0.647 -0.996,0.508 -0.446,-0.132 -0.704,-0.561 -0.573,-0.958 z m 4.711,98.756 c 0.396,-0.129 0.797,0.023 0.892,0.338 0.097,0.313 -0.148,0.668 -0.546,0.79 -0.399,0.123 -0.799,-0.029 -0.893,-0.337 -0.096,-0.309 0.15,-0.663 0.547,-0.791 z m 0.008,-98.455 c 0.435,0.057 0.75,0.44 0.705,0.854 -0.047,0.414 -0.457,0.7 -0.916,0.639 -0.461,-0.052 -0.773,-0.463 -0.701,-0.871 0.072,-0.414 0.478,-0.671 0.912,-0.622 z m -6.859,-1.107 c -0.161,0.384 -0.641,0.545 -1.069,0.36 -0.42,-0.206 -0.601,-0.683 -0.41,-1.053 0.193,-0.371 0.659,-0.506 1.049,-0.314 0.398,0.172 0.591,0.622 0.43,1.007 z m -4.054,-1.226 0.172,0.136 c -0.452,0.574 -0.906,1.15 -1.36,1.724 l -0.172,-0.138 c 0.454,-0.573 0.908,-1.146 1.36,-1.722 z m -28.111,35.868 c -0.383,0.623 -0.758,1.25 -1.129,1.88 l -0.189,-0.111 c 0.371,-0.633 0.749,-1.259 1.131,-1.883 l 0.187,0.114 z m -5.091,9.217 c -0.324,0.658 -0.64,1.318 -0.949,1.98 l -0.198,-0.092 c 0.308,-0.664 0.626,-1.326 0.949,-1.984 l 0.198,0.096 z m 11.91,-117.305 c -0.03,-0.414 0.289,-0.778 0.712,-0.814 0.422,-0.05 0.809,0.238 0.866,0.652 0.053,0.412 -0.263,0.796 -0.709,0.849 -0.448,0.037 -0.836,-0.271 -0.869,-0.687 z m -10.308,114.178 c -0.345,0.646 -0.683,1.296 -1.013,1.947 l -0.197,-0.098 c 0.333,-0.654 0.671,-1.305 1.016,-1.952 l 0.194,0.103 z m 1.698,-3.072 c -0.362,0.634 -0.721,1.273 -1.072,1.913 l -0.191,-0.105 c 0.351,-0.643 0.709,-1.281 1.074,-1.917 l 0.189,0.109 z m 61.635,-97.018 0.211,0.058 c -0.193,0.706 -0.395,1.41 -0.602,2.113 l -0.211,-0.064 c 0.207,-0.7 0.409,-1.402 0.602,-2.107 z m -0.982,3.367 0.208,0.065 0,0 c -0.216,0.699 -0.439,1.397 -0.668,2.092 l -0.208,-0.068 c 0.229,-0.695 0.451,-1.392 0.668,-2.089 z m 3.898,-38.125 c 0.1,0.728 0.187,1.455 0.267,2.182 l -0.218,0.023 c -0.078,-0.725 -0.166,-1.45 -0.266,-2.176 l 0.217,-0.029 z m -4.986,41.46 0.208,0.072 c -0.237,0.693 -0.48,1.382 -0.73,2.07 l -0.207,-0.074 c 0.25,-0.687 0.493,-1.377 0.729,-2.068 z m -3.815,109.862 -0.24,1.272 -1.199,0.032 c 0,0 0.22,-0.739 0.177,-0.861 l 1.262,-0.443 z m -5.847,5.338 c 0.525,-3.062 2.643,-4.512 2.643,-4.512 -2.273,1.071 -2.977,4.926 -2.977,4.926 -0.44,-1.058 0.582,-2.898 0.582,-2.898 1.131,-2.635 4.078,-3.349 4.078,-3.349 0.304,0.282 -0.135,1.829 -0.135,1.829 -2.827,0.534 -4.191,4.004 -4.191,4.004 z m -28.941,-52.951 0.163,0.145 c -0.486,0.54 -0.972,1.087 -1.459,1.64 l -0.164,-0.146 c 0.486,-0.552 0.974,-1.099 1.46,-1.639 z m -16.073,-2.772 c 0.211,0.7 0.441,1.393 0.687,2.081 l -0.207,0.072 c -0.248,-0.691 -0.477,-1.387 -0.689,-2.088 l 0.209,-0.065 z m 53.492,-56.175 0.205,0.078 c -0.257,0.684 -0.519,1.367 -0.789,2.05 l -0.204,-0.082 c 0.268,-0.68 0.53,-1.363 0.788,-2.046 z m -2.641,6.501 0.202,0.088 c -0.293,0.671 -0.59,1.338 -0.895,2.006 l -0.199,-0.091 c 0.303,-0.665 0.6,-1.334 0.892,-2.003 z m 1.364,-3.234 0.203,0.085 c -0.276,0.677 -0.557,1.353 -0.844,2.027 l -0.201,-0.086 c 0.287,-0.674 0.566,-1.348 0.842,-2.026 z m -33.61,53.235 c -0.495,0.532 -0.99,1.071 -1.486,1.615 l -0.162,-0.149 c 0.496,-0.544 0.991,-1.084 1.486,-1.615 l 0.162,0.149 z m 32.208,51.421 c 0,0 0.221,-0.738 0.271,-1.052 l 1.004,-0.328 c 0,0 0.041,0.966 -0.16,1.105 0,0 -0.827,0.379 -1.115,0.275 z m 9.343,-142.084 0,-0.082 0.22,0 0,0.082 c 0,0.706 -0.009,1.412 -0.028,2.116 l -0.219,-0.005 c 0.019,-0.704 0.027,-1.406 0.027,-2.111 z m -0.071,3.424 0.219,0.01 c -0.031,0.734 -0.071,1.464 -0.121,2.194 l -0.219,-0.015 c 0.05,-0.728 0.091,-1.457 0.121,-2.189 z m -0.027,-10.53 c 0.067,0.731 0.122,1.462 0.166,2.191 l -0.218,0.014 c -0.045,-0.727 -0.1,-1.457 -0.166,-2.185 l 0.218,-0.02 z m 0.237,3.51 c 0.033,0.732 0.056,1.464 0.069,2.196 l -0.22,0.003 c -0.011,-0.729 -0.035,-1.46 -0.068,-2.189 l 0.219,-0.01 z m -0.43,10.521 0.219,0.018 c -0.062,0.731 -0.133,1.459 -0.212,2.187 l -0.218,-0.023 c 0.079,-0.728 0.15,-1.454 0.211,-2.182 z m -25.156,206.779 c -0.258,0.238 -0.712,0.126 -0.955,-0.203 -0.254,-0.342 -0.252,-0.733 -0.035,-0.936 0.218,-0.207 0.632,-0.133 0.925,0.164 0.293,0.296 0.323,0.732 0.065,0.975 z m 16.123,-71.373 1.207,-0.332 -0.239,1.27 -0.898,0.177 c 0.041,-0.082 -0.07,-1.115 -0.07,-1.115 z m -21.686,71.845 c 0.266,0.073 0.483,0.359 0.475,0.792 -0.006,0.401 -0.329,0.788 -0.699,0.7 -0.371,-0.079 -0.578,-0.471 -0.465,-0.872 0.115,-0.401 0.424,-0.682 0.689,-0.62 z m 2.401,-0.283 c 0.263,-0.094 0.629,0.127 0.812,0.488 0.192,0.384 0.067,0.799 -0.283,0.926 -0.35,0.127 -0.713,-0.092 -0.818,-0.508 -0.1,-0.391 0.026,-0.81 0.289,-0.906 z m -4.612,0.279 c -0.201,0.365 -0.611,0.498 -0.912,0.296 -0.302,-0.201 -0.332,-0.63 -0.069,-0.952 0.263,-0.324 0.673,-0.457 0.914,-0.299 0.24,0.161 0.271,0.59 0.067,0.955 z m 32.567,-203.759 0.217,0.027 c -0.09,0.728 -0.189,1.453 -0.297,2.178 l -0.217,-0.034 c 0.107,-0.721 0.207,-1.447 0.297,-2.171 z m -26.435,106.855 c 0.539,0.027 1.077,0.041 1.614,0.041 0.192,0 0.382,-0.002 0.574,-0.006 l 0.003,0.22 c -0.192,0.003 -0.384,0.006 -0.577,0.006 -0.541,0 -1.083,-0.015 -1.625,-0.04 l 0.011,-0.221 z m -19.481,-7.042 c 0.588,0.435 1.189,0.85 1.799,1.245 l -0.118,0.184 c -0.615,-0.398 -1.22,-0.815 -1.812,-1.252 l 0.131,-0.177 z m 25.156,6.823 0.029,0.218 c -0.726,0.095 -1.459,0.161 -2.192,0.206 l -0.013,-0.219 c 0.729,-0.044 1.455,-0.112 2.176,-0.205 z m -22.353,-4.695 0.111,-0.188 c 0.629,0.375 1.265,0.731 1.912,1.067 l -0.103,0.195 c -0.649,-0.338 -1.29,-0.697 -1.92,-1.074 z m 35.277,-0.289 0.127,0.18 c -0.604,0.425 -1.22,0.825 -1.846,1.198 l -0.111,-0.189 c 0.62,-0.369 1.232,-0.767 1.83,-1.189 z m -19.928,5.332 c -0.729,-0.064 -1.459,-0.153 -2.185,-0.266 l 0.033,-0.215 c 0.722,0.11 1.447,0.198 2.172,0.263 l -0.02,0.218 z m 13.776,-2.047 0.078,0.205 c -0.688,0.263 -1.383,0.498 -2.086,0.709 l -0.062,-0.211 c 0.698,-0.207 1.388,-0.441 2.07,-0.703 z m -3.335,1.05 0.053,0.214 c -0.713,0.178 -1.431,0.33 -2.154,0.455 l -0.038,-0.217 c 0.718,-0.125 1.431,-0.275 2.139,-0.452 z m -20.673,-1.495 c -0.678,-0.276 -1.35,-0.571 -2.014,-0.888 l 0.094,-0.198 c 0.66,0.314 1.328,0.609 2.004,0.882 l -0.084,0.204 z m 3.324,1.164 c -0.701,-0.207 -1.4,-0.438 -2.09,-0.69 l 0.074,-0.207 c 0.688,0.251 1.38,0.48 2.078,0.688 l -0.062,0.209 z m 3.421,0.838 c -0.72,-0.139 -1.436,-0.301 -2.148,-0.485 l 0.054,-0.212 c 0.708,0.183 1.421,0.343 2.136,0.481 l -0.042,0.216 z m -16.825,-18.534 0.163,0.147 c -0.486,0.539 -0.969,1.088 -1.452,1.645 l -0.166,-0.145 c 0.484,-0.557 0.968,-1.107 1.455,-1.647 z m 41.941,12.391 0.139,0.168 c -0.215,0.179 -0.433,0.353 -0.651,0.524 l -0.136,-0.174 c 0.217,-0.168 0.433,-0.342 0.648,-0.518 z m -75.856,-31.035 -0.065,-0.21 c 0.705,-0.221 1.396,-0.456 2.072,-0.699 l 0.075,0.206 c -0.679,0.245 -1.374,0.48 -2.082,0.703 z m 23.432,13.996 0.204,-0.08 c 0.267,0.68 0.551,1.35 0.853,2.016 l -0.199,0.09 c -0.303,-0.668 -0.589,-1.344 -0.858,-2.026 z m 11.504,3.522 c 0.432,-0.507 0.865,-1.01 1.299,-1.508 l 0.165,0.144 c -0.435,0.498 -0.867,1 -1.3,1.508 l -0.002,0.003 -0.001,0 c -0.045,0.05 -0.091,0.101 -0.136,0.149 l -0.162,-0.149 c 0.045,-0.048 0.092,-0.099 0.137,-0.147 z m -9.054,1.642 c -0.362,-0.64 -0.704,-1.289 -1.026,-1.945 l 0.195,-0.098 c 0.323,0.655 0.663,1.298 1.023,1.935 l -0.192,0.108 z m 1.867,2.981 c -0.42,-0.605 -0.819,-1.219 -1.199,-1.844 l 0.188,-0.113 c 0.378,0.619 0.775,1.23 1.191,1.834 l -0.18,0.123 z m 5.634,6.123 c 0.534,0.488 1.086,0.963 1.657,1.427 l -0.138,0.17 c -0.574,-0.466 -1.129,-0.945 -1.666,-1.434 l 0.147,-0.163 z m -7.533,0.244 c 0.439,-0.592 0.881,-1.176 1.324,-1.754 l 0.174,0.134 c -0.442,0.578 -0.884,1.16 -1.322,1.751 l -0.176,-0.131 z m 2.307,-2.66 -0.174,-0.135 c 0.416,-0.529 0.834,-1.053 1.252,-1.57 -0.243,-0.309 -0.483,-0.618 -0.717,-0.932 l 0.176,-0.131 c 0.258,0.346 0.523,0.686 0.794,1.023 l 0.035,0.03 c -0.001,0.002 -0.003,0.006 -0.006,0.009 0.177,0.217 0.353,0.436 0.534,0.652 l -0.166,0.143 c -0.174,-0.205 -0.34,-0.414 -0.507,-0.621 -0.409,0.506 -0.817,1.016 -1.221,1.532 z m 2.758,-0.065 c 0.486,0.538 0.991,1.065 1.515,1.578 l -0.153,0.157 c -0.528,-0.518 -1.036,-1.046 -1.524,-1.586 l 0.162,-0.149 z m 0.685,-4.492 0.167,0.143 c -0.472,0.551 -0.942,1.113 -1.41,1.679 l -0.17,-0.139 c 0.47,-0.568 0.941,-1.13 1.413,-1.683 z m -24.692,48.318 -0.216,-0.036 c 0.12,-0.719 0.255,-1.44 0.401,-2.161 l 0.215,0.045 c -0.146,0.717 -0.28,1.434 -0.4,2.152 z m -0.783,8.286 c -0.003,0.279 -0.005,0.558 -0.005,0.837 0,0.452 0.005,0.903 0.017,1.353 l -0.219,0.005 c -0.012,-0.451 -0.018,-0.904 -0.018,-1.358 0,-0.28 0.001,-0.562 0.006,-0.841 l 0.219,0.004 0,0 z m 0.021,5.709 c -0.075,-0.729 -0.133,-1.459 -0.174,-2.194 l 0.22,-0.012 c 0.04,0.731 0.098,1.457 0.172,2.182 l -0.218,0.024 z m 0.019,-7.024 -0.219,-0.01 c 0.031,-0.732 0.077,-1.465 0.138,-2.199 l 0.219,0.018 c -0.061,0.732 -0.108,1.462 -0.138,2.191 z m 0.262,-3.499 -0.218,-0.022 c 0.08,-0.728 0.171,-1.454 0.278,-2.182 l 0.218,0.032 c -0.107,0.724 -0.2,1.448 -0.278,2.172 z m 0.998,17.438 c -0.193,-0.71 -0.366,-1.423 -0.521,-2.138 l 0.214,-0.046 c 0.155,0.71 0.327,1.421 0.519,2.126 l -0.212,0.058 z m -0.78,-3.431 c -0.134,-0.723 -0.248,-1.446 -0.344,-2.174 l 0.216,-0.028 c 0.097,0.723 0.21,1.444 0.343,2.161 l -0.215,0.041 z m 3.201,10.029 c -0.312,-0.67 -0.606,-1.342 -0.879,-2.017 l 0.203,-0.082 c 0.272,0.671 0.564,1.341 0.874,2.005 l -0.198,0.094 z m 1.628,3.119 c -0.371,-0.639 -0.718,-1.285 -1.049,-1.933 l 0.195,-0.1 c 0.329,0.647 0.676,1.287 1.043,1.924 l -0.189,0.109 z m 59.707,-66.066 0.105,0.193 c -0.651,0.348 -1.313,0.666 -1.983,0.961 l -0.088,-0.201 c 0.666,-0.291 1.321,-0.608 1.966,-0.953 z m -62.687,59.7 c -0.254,-0.692 -0.488,-1.387 -0.703,-2.085 l 0.21,-0.063 c 0.214,0.694 0.447,1.385 0.699,2.072 l -0.206,0.076 z m -25.818,-91.291 -0.002,-0.22 c 0.742,-0.004 1.472,-0.021 2.191,-0.05 l 0.01,0.218 c -0.723,0.03 -1.456,0.047 -2.199,0.052 z m -11.83,-0.822 c -0.715,-0.101 -1.438,-0.211 -2.171,-0.332 l 0.037,-0.217 c 0.73,0.121 1.453,0.231 2.166,0.331 l -0.032,0.218 z m 36.737,64.414 -0.213,-0.049 c 0.159,-0.712 0.334,-1.425 0.516,-2.137 l 0.213,0.056 c -0.184,0.709 -0.355,1.42 -0.516,2.13 z m -21.392,-63.708 -0.013,-0.219 c 0.739,-0.044 1.466,-0.1 2.182,-0.167 l 0.021,0.22 c -0.718,0.066 -1.449,0.121 -2.19,0.166 z m -4.831,-0.106 -0.002,0.22 c -0.723,-0.008 -1.455,-0.026 -2.197,-0.056 l 0.008,-0.219 c 0.741,0.029 1.471,0.049 2.191,0.055 z m -3.504,-0.12 -0.013,0.221 c -0.721,-0.043 -1.451,-0.094 -2.192,-0.157 l 0.018,-0.219 c 0.739,0.062 1.467,0.115 2.187,0.155 z m 35.501,100.972 c -0.421,-0.608 -0.823,-1.223 -1.206,-1.84 l 0.186,-0.115 c 0.382,0.614 0.782,1.225 1.201,1.83 l -0.181,0.125 z m -23.664,-101.051 -0.025,-0.217 c 0.734,-0.085 1.457,-0.181 2.168,-0.291 l 0.033,0.218 c -0.713,0.11 -1.438,0.206 -2.176,0.29 z m -22.318,-0.957 c -0.71,-0.126 -1.43,-0.263 -2.158,-0.41 l 0.045,-0.215 c 0.725,0.147 1.443,0.282 2.154,0.409 l -0.041,0.216 z m 27.905,-0.182 0.047,0.214 c -0.705,0.153 -1.424,0.293 -2.156,0.421 l -0.038,-0.215 c 0.729,-0.128 1.445,-0.269 2.147,-0.42 z m 3.457,-0.64 c -0.695,0.197 -1.403,0.384 -2.124,0.559 l -0.052,-0.212 c 0.719,-0.175 1.424,-0.361 2.115,-0.56 l 0.061,0.213 z m 82.858,-94.183 c 0.134,0.724 0.255,1.445 0.366,2.168 l -0.216,0.033 c -0.112,-0.719 -0.233,-1.44 -0.366,-2.161 l 0.216,-0.04 z m -107.234,95.765 -0.023,0.218 0,0 c -0.718,-0.073 -1.446,-0.155 -2.182,-0.247 l 0.025,-0.218 c 0.735,0.093 1.462,0.174 2.18,0.247 z m 91.21,-130.577 c 0.408,0.616 0.812,1.225 1.211,1.831 l -0.184,0.12 c -0.398,-0.604 -0.801,-1.214 -1.211,-1.83 l 0.184,-0.121 z m -1.956,-2.916 c 0.415,0.612 0.823,1.22 1.225,1.82 l -0.183,0.122 c -0.401,-0.601 -0.81,-1.207 -1.224,-1.82 l 0.182,-0.122 z m 3.891,5.846 c 0.405,0.617 0.807,1.228 1.205,1.834 l -0.183,0.121 c -0.399,-0.607 -0.8,-1.218 -1.205,-1.834 l 0.183,-0.121 z m -4.63,-6.937 -0.182,0.125 c -0.408,-0.598 -0.821,-1.2 -1.242,-1.809 l 0.037,-0.025 0.211,0 c 0.398,0.574 0.789,1.145 1.176,1.709 z m -98.948,133.146 c -0.708,-0.15 -1.423,-0.311 -2.143,-0.48 l 0.049,-0.214 c 0.72,0.169 1.433,0.329 2.139,0.481 l -0.045,0.213 z m 116.951,-97.771 c 0.166,0.716 0.322,1.433 0.466,2.148 l -0.214,0.043 c -0.144,-0.713 -0.3,-1.427 -0.466,-2.141 l 0.214,-0.05 z m -65.404,203.266 c -0.469,-0.573 -0.919,-1.153 -1.349,-1.735 l 0.176,-0.131 c 0.429,0.579 0.877,1.157 1.344,1.727 l -0.171,0.139 z m 64.531,-206.674 c 0.2,0.708 0.387,1.416 0.565,2.125 l -0.214,0.053 c -0.177,-0.706 -0.364,-1.413 -0.563,-2.119 l 0.212,-0.059 z m -8.82,-19.043 0.184,-0.121 c 0.076,0.116 0.152,0.23 0.228,0.345 0.329,0.494 0.651,0.996 0.965,1.5 l -0.186,0.116 c -0.314,-0.503 -0.633,-1.002 -0.96,-1.494 -0.079,-0.116 -0.155,-0.231 -0.231,-0.346 z m -1.752,-3.053 c 0.404,0.615 0.807,1.227 1.207,1.833 l -0.183,0.121 c -0.401,-0.606 -0.803,-1.218 -1.207,-1.832 l 0.183,-0.122 z m 9.543,18.731 c 0.231,0.699 0.451,1.398 0.66,2.098 l -0.21,0.062 c -0.208,-0.698 -0.428,-1.394 -0.659,-2.091 l 0.209,-0.069 z m -19.777,235.759 c -0.202,0.282 -0.632,0.298 -0.958,0.037 -0.327,-0.259 -0.445,-0.67 -0.267,-0.918 0.18,-0.248 0.612,-0.261 0.955,-0.039 0.357,0.231 0.474,0.64 0.27,0.92 z m -39.888,-21.556 c -0.198,-0.193 -0.395,-0.385 -0.589,-0.578 l 0.155,-0.157 c 0.194,0.194 0.388,0.385 0.587,0.578 l -0.153,0.157 z m 41.534,-0.994 c 0.074,0.322 -0.195,0.66 -0.601,0.752 -0.406,0.095 -0.793,-0.083 -0.866,-0.395 -0.072,-0.315 0.198,-0.651 0.602,-0.754 0.404,-0.102 0.791,0.074 0.865,0.397 z m -1.61,-3.131 c 0.4,-0.118 0.795,0.045 0.882,0.365 0.086,0.316 -0.17,0.663 -0.573,0.773 -0.4,0.11 -0.794,-0.052 -0.88,-0.363 -0.084,-0.311 0.172,-0.658 0.571,-0.775 z m -41.433,2.601 c -0.509,-0.538 -1.004,-1.081 -1.476,-1.629 l 0.164,-0.144 c 0.472,0.545 0.963,1.087 1.47,1.623 l -0.158,0.15 z m 43.657,3.33 c 0.058,0.326 -0.226,0.653 -0.637,0.726 -0.409,0.074 -0.788,-0.121 -0.844,-0.437 -0.057,-0.315 0.229,-0.64 0.637,-0.724 0.408,-0.086 0.787,0.109 0.844,0.435 z m 0.251,14.397 c -0.075,0.34 -0.481,0.509 -0.884,0.385 -0.393,-0.123 -0.643,-0.459 -0.579,-0.754 0.071,-0.296 0.462,-0.47 0.87,-0.391 0.409,0.08 0.676,0.419 0.593,0.76 z m -1.003,2.797 c -0.157,0.308 -0.581,0.4 -0.952,0.206 -0.369,-0.195 -0.554,-0.574 -0.414,-0.847 0.131,-0.278 0.53,-0.383 0.916,-0.221 0.383,0.159 0.596,0.551 0.45,0.862 z m 1.451,-5.705 c -0.041,0.334 -0.41,0.561 -0.824,0.51 -0.413,-0.051 -0.717,-0.346 -0.677,-0.661 0.039,-0.312 0.408,-0.542 0.824,-0.51 0.415,0.032 0.718,0.327 0.677,0.661 z m -0.228,-8.651 c 0.039,0.328 -0.264,0.637 -0.678,0.688 -0.414,0.05 -0.78,-0.167 -0.817,-0.485 -0.037,-0.317 0.267,-0.626 0.678,-0.687 0.412,-0.065 0.778,0.153 0.817,0.484 z m 0.385,5.755 c -0.011,0.335 -0.358,0.596 -0.774,0.583 -0.416,-0.013 -0.747,-0.281 -0.736,-0.597 0.011,-0.316 0.358,-0.577 0.775,-0.583 0.417,-0.004 0.745,0.263 0.735,0.597 z m -0.089,-2.889 c 0.017,0.333 -0.307,0.621 -0.724,0.641 -0.416,0.021 -0.766,-0.22 -0.781,-0.536 -0.014,-0.318 0.31,-0.606 0.725,-0.642 0.415,-0.037 0.764,0.204 0.78,0.537" /></g></svg>