<?xml version="1.0" encoding="UTF-8" standalone="no"?>
<!-- Created with Inkscape (http://www.inkscape.org/) -->

<svg
   xmlns:dc="http://purl.org/dc/elements/1.1/"
   xmlns:cc="http://creativecommons.org/ns#"
   xmlns:rdf="http://www.w3.org/1999/02/22-rdf-syntax-ns#"
   xmlns:svg="http://www.w3.org/2000/svg"
   xmlns="http://www.w3.org/2000/svg"
   version="1.1"
   width="282.46249"
   height="250.38625"
   id="svg2"
   xml:space="preserve"><metadata
     id="metadata8"><rdf:RDF><cc:Work
         rdf:about=""><dc:format>image/svg+xml</dc:format><dc:type
           rdf:resource="http://purl.org/dc/dcmitype/StillImage" /><dc:title></dc:title></cc:Work></rdf:RDF></metadata><defs
     id="defs6" /><g
     transform="matrix(1.25,0,0,-1.25,-390.0375,250.38625)"
     id="g10"><path
       d="m 464.485,52.207 c 0.166,1.4719 2.29,3.3629 2.937,1.8719 0.649,-1.4918 -1.264,-0.343 -1.993,-2.2437 -1.031,-2.6961 2.046,-5.277 2.046,-5.277 -2.996,1.5008 -3.154,4.1609 -2.99,5.6488 z m 8.799,-3.6781 c -2.179,-1.4109 -4.741,-1.1687 -6.345,0.457 -1.607,1.6293 0.04,2.7121 0.04,2.7121 2.427,0.984 1.867,2.4571 1.867,2.4571 0,0 -1.03,3.6539 -4.175,0.6269 -3.149,-3.023 -0.294,-6.9351 -0.294,-6.9351 4.446,-5.2547 9.803,-1.743 9.803,-1.743 7.167,5.057 2.65,12.4473 2.65,12.4473 1.242,-5.4102 -1.365,-8.6063 -3.546,-10.0223 z m -25.542,0.9203 c 0.063,0.552 0.858,1.2598 1.101,0.702 0.242,-0.559 -0.475,-0.1293 -0.747,-0.8403 -0.386,-1.0097 0.766,-1.9769 0.766,-1.9769 -1.122,0.5629 -1.182,1.559 -1.12,2.1152 z m 3.295,-1.3762 c -0.815,-0.5289 -1.775,-0.439 -2.376,0.1711 -0.602,0.6098 0.015,1.0149 0.015,1.0149 0.908,0.368 0.699,0.9199 0.699,0.9199 0,0 -0.385,1.3672 -1.562,0.2352 -1.18,-1.1309 -0.111,-2.5969 -0.111,-2.5969 1.665,-1.9672 3.67,-0.6512 3.67,-0.6512 2.684,1.8922 0.992,4.659 0.992,4.659 0.465,-2.0258 -0.51,-3.223 -1.327,-3.752 z M 317.041,43.2129 c -0.002,-0.0649 -0.02,-0.1418 -0.084,-0.2348 -0.002,-0.0011 -0.002,-0.0011 -0.004,-0.0011 -0.066,-0.011 -0.258,0.107 -0.398,0.3171 -0.088,0.125 -0.16,0.2778 -0.202,0.418 0.422,-0.032 0.702,-0.2961 0.688,-0.4992 z m 1.83,1.641 c -0.118,0.1133 -0.165,0.2563 -0.165,0.4 0,0.0973 0.026,0.1891 0.058,0.2383 0.03,0.048 0.037,0.0387 0.037,0.0469 l 0,0 c 0.002,0 0.012,-0.0032 0.052,-0.0411 0.047,-0.014 0.137,-0.398 0.135,-0.7468 -0.036,0.0277 -0.075,0.0629 -0.117,0.1027 z m -5.486,-3.4949 c 0.023,0 0.053,-0.0039 0.097,-0.0188 0.247,-0.1242 0.5,-0.189 0.733,-0.189 0.992,0.0297 1.319,1.084 1.439,1.9797 0.076,0.3601 0.089,0.4871 0.261,0.5441 0.122,-0.5371 0.503,-1.0848 1.038,-1.1359 0.073,0 0.152,0.0129 0.225,0.0468 l 0.049,0.0243 0.032,0.039 c 0.143,0.1738 0.22,0.3719 0.22,0.5637 -0.016,0.5453 -0.53,0.8922 -1.083,0.9351 -0.007,0.0012 -0.015,0.002 -0.023,0.002 0.209,0.3219 0.35,0.375 0.43,0.373 0.158,0.027 0.476,-0.2929 0.834,-0.6031 0.343,-0.2527 0.603,-0.6719 1.064,-0.7109 0.343,0.0129 0.529,0.3062 0.654,0.759 0.018,0.0629 0.032,0.1371 0.041,0.2191 0.415,0.0781 0.631,0.4871 0.821,0.9789 0.295,0.782 0.447,1.5742 1.685,2.3242 l -0.224,0.375 c -1.365,-0.8082 -1.602,-1.8172 -1.869,-2.5461 -0.131,-0.3562 -0.272,-0.564 -0.384,-0.655 0,0.0078 0,0.016 0,0.025 -0.013,0.416 -0.019,0.8398 -0.263,1.1191 -0.098,0.0977 -0.221,0.168 -0.361,0.168 -0.394,-0.034 -0.527,-0.3973 -0.533,-0.7223 0,-0.2418 0.086,-0.5098 0.3,-0.7168 0.133,-0.125 0.262,-0.223 0.395,-0.2859 -0.008,-0.0723 -0.02,-0.1293 -0.029,-0.1633 -0.124,-0.434 -0.233,-0.441 -0.233,-0.443 -0.068,-0.0367 -0.433,0.3071 -0.789,0.6153 -0.326,0.2468 -0.61,0.6738 -1.109,0.7 -0.312,-0.0012 -0.576,-0.2122 -0.819,-0.602 -0.046,-0.0703 -0.076,-0.148 -0.091,-0.2281 -0.434,-0.1071 -0.649,-0.5039 -0.672,-0.943 -0.115,-0.8832 -0.448,-1.6312 -1.006,-1.5992 -0.149,0 -0.334,0.043 -0.563,0.1562 -0.109,0.0399 -0.19,0.0551 -0.267,0.052 -0.516,-0.027 -0.604,-0.518 -0.694,-0.8121 -0.101,-0.3551 -0.186,-0.5199 -0.308,-0.4981 -0.043,0 -0.106,0.0102 -0.192,0.0442 l -0.16,-0.4051 c 0.123,-0.0508 0.241,-0.0781 0.352,-0.0781 0.523,0.023 0.64,0.5152 0.728,0.8152 0.098,0.3609 0.188,0.5211 0.274,0.4969 z m -1.355,-1.2371 0.001,0.0031 -0.001,0 z m 182.552,50.9261 0,0.0012 z m 38.741,-41.4691 c -1.19,-0.682 -2.727,-1.1348 -4.302,-1.132 -0.712,-0.0028 -1.433,0.0922 -2.132,0.2953 -2.151,0.5269 -4.227,1.7539 -5.762,3.332 -3.117,3.216 -4.412,7.2309 -5.327,10.1067 -0.206,0.6871 -0.388,1.3191 -0.542,1.8851 0.277,-0.6699 0.609,-1.4219 0.996,-2.214 1.307,-2.6801 3.279,-5.9 6.151,-8.3211 1.8,-1.375 3.878,-2.0469 5.686,-2.0469 1.345,0 2.548,0.3742 3.357,1.1371 1.639,1.2809 1.794,2.6348 1.789,3.2129 0,0.0902 -0.005,0.166 -0.005,0.2062 0.004,0.0137 -0.002,0.0137 0,0.0137 l -0.003,0 c 0.125,0.9602 0.371,2.3672 1.369,3.0453 0.166,0.1289 0.37,0.1949 0.614,0.1969 0.937,-0.0039 2.339,-1.0371 2.339,-3.2809 0.006,-0.0562 0.01,-0.1011 0.01,-0.1672 0.005,-0.866 -0.76,-4.48 -4.238,-6.2691 z m -16.952,3.2961 c 0.041,0.002 0.072,0.0039 0.106,0.0039 0.882,-0.0219 1.084,-0.357 1.097,-0.7187 -0.002,-0.4852 -0.488,-1.0782 -1.127,-1.0782 -0.155,0 -0.322,0.0321 -0.502,0.111 -0.499,0.2191 -0.755,0.675 -0.857,1.298 0.367,0.227 0.795,0.368 1.283,0.384 z m -2.389,18.4879 c 0.536,-1.4277 1.361,-3.1149 2.661,-4.4809 0.997,-0.95 2.236,-1.4379 3.298,-1.4398 0.564,0.0019 1.083,0.141 1.486,0.4418 0.581,0.3609 0.882,0.7851 1.024,1.132 0.07,0.1731 0.104,0.327 0.121,0.4422 0.008,0.057 0.012,0.1039 0.015,0.1387 0,0.023 0.005,0.023 0,0.025 0.11,0.473 0.318,1.1711 0.833,1.439 0.065,0.0403 0.129,0.0602 0.207,0.0602 0.373,-0.002 1.004,-0.4629 1.006,-1.4531 0,-0.0868 -0.002,-0.177 -0.012,-0.277 -0.002,-0.034 -0.002,-0.0441 -0.002,-0.0441 0.012,-0.2567 -0.545,-2.236 -2.495,-2.9688 -0.519,-0.2242 -1.139,-0.3621 -1.775,-0.3609 -0.517,-0.0012 -1.044,0.091 -1.536,0.2918 -1.07,0.3922 -2.065,1.1379 -2.76,2.0281 -1.274,1.6418 -1.759,3.5359 -2.071,5.0258 z m -1.279,4.6723 c 0.356,-0.4723 0.784,-0.9372 1.293,-1.3243 0.544,-0.3687 1.145,-0.5429 1.683,-0.5429 0.475,0 0.915,0.139 1.206,0.441 0.262,0.2262 0.398,0.4699 0.465,0.6762 l 0.011,-0.0141 0.006,0.0758 c 0.029,0.1133 0.039,0.2121 0.037,0.2883 0,0.0507 -0.004,0.091 -0.008,0.1109 l 0,0.0019 c 0.018,0.268 0.079,0.65 0.297,0.8071 0.026,0.025 0.055,0.0379 0.104,0.0379 0.178,0.0011 0.533,-0.2028 0.568,-0.784 0.008,-0.0449 0.006,-0.0449 0.006,-0.0719 0.004,-0.266 -0.18,-1.2371 -1.072,-1.757 -0.35,-0.2281 -0.826,-0.386 -1.305,-0.386 -0.156,0 -0.315,0.0188 -0.469,0.0508 -0.615,0.116 -1.225,0.434 -1.683,0.8551 -0.504,0.4641 -0.863,1.0039 -1.139,1.5352 z m 0.437,-1.4493 c -0.003,0.0071 -0.005,0.0153 -0.007,0.0231 0.006,-0.0059 0.01,-0.0121 0.013,-0.018 -0.003,-0.0019 -0.003,-0.0031 -0.006,-0.0051 z m -23.564,-8.75 c -1.422,0.8551 -2.312,2.3973 -2.312,4.0602 0,0.4019 0.05,0.8121 0.159,1.216 0.159,0.6051 0.462,1.1328 0.856,1.566 0.825,-2.1629 1.241,-4.534 1.297,-6.8422 z m -1.129,7.011 c 0.694,0.6711 1.625,1.0703 2.612,1.0703 0.317,0 0.64,-0.0371 0.96,-0.1262 1.333,-0.35 2.211,-1.55 2.211,-2.8629 0,-0.25 -0.032,-0.5062 -0.098,-0.7621 -0.277,-1.043 -1.22,-1.734 -2.25,-1.734 -0.196,0 -0.398,0.027 -0.597,0.0762 -0.815,0.2137 -1.353,0.9539 -1.353,1.759 0,0.1527 0.017,0.3109 0.058,0.4617 0.166,0.6383 0.739,1.0563 1.362,1.057 0.123,-7e-4 0.24,-0.0148 0.361,-0.0488 0.491,-0.1289 0.81,-0.568 0.812,-1.0469 -0.002,-0.0902 -0.011,-0.1832 -0.037,-0.2812 -0.094,-0.3688 -0.429,-0.611 -0.797,-0.6121 -0.068,0 -0.14,0.009 -0.212,0.0293 -0.273,0.0699 -0.457,0.3187 -0.457,0.5918 0,0.0539 0.008,0.1082 0.021,0.155 0.053,0.2051 0.236,0.3411 0.433,0.3411 0.042,-0.002 0.075,-0.0039 0.104,-0.0161 0.152,-0.0398 0.245,-0.166 0.245,-0.307 0,-0.025 -0.003,-0.0551 -0.011,-0.0879 l 0.428,-0.098 c 0.013,0.059 0.022,0.1211 0.022,0.1859 0,0.334 -0.223,0.6379 -0.561,0.7281 -0.075,0.0231 -0.156,0.0309 -0.227,0.0309 -0.396,0 -0.751,-0.2648 -0.856,-0.6621 -0.024,-0.0879 -0.036,-0.1809 -0.036,-0.2699 0,-0.4668 0.312,-0.893 0.785,-1.018 0.11,-0.0258 0.213,-0.0391 0.322,-0.0391 0.56,-0.0019 1.074,0.3703 1.223,0.9371 0.033,0.134 0.051,0.2641 0.049,0.3922 0.002,0.677 -0.452,1.2899 -1.135,1.4707 -0.16,0.0453 -0.32,0.0633 -0.476,0.0602 -0.818,0.0031 -1.568,-0.5481 -1.785,-1.3789 -0.053,-0.1891 -0.074,-0.384 -0.074,-0.575 -0.003,-1.002 0.669,-1.9152 1.681,-2.182 0.236,-0.061 0.472,-0.0911 0.708,-0.0911 1.227,0 2.347,0.8188 2.675,2.0598 0.074,0.2953 0.111,0.5852 0.111,0.8742 0,1.5078 -1.008,2.884 -2.535,3.2871 -0.36,0.0989 -0.721,0.1418 -1.074,0.1399 -1.042,0.0011 -2.026,-0.4 -2.785,-1.075 -0.697,1.6648 -1.643,3.1929 -2.87,4.4511 1.464,0.8918 3.164,1.3938 4.93,1.3938 0.801,0 1.617,-0.102 2.431,-0.3191 3.389,-0.8918 5.631,-3.9528 5.631,-7.3028 0,-0.6371 -0.081,-1.2851 -0.251,-1.9332 -0.711,-2.689 -3.141,-4.4687 -5.798,-4.4687 -0.507,0 -1.025,0.0648 -1.538,0.2 -0.362,0.0949 -0.695,0.241 -1.012,0.4097 -0.045,2.402 -0.475,4.8801 -1.35,7.136 z m 20.117,0.0703 c 0,-1.584 -0.203,-3.193 -0.623,-4.8 -1.772,-6.7141 -7.836,-11.152 -14.466,-11.152 -1.266,0 -2.549,0.161 -3.829,0.4957 -5.35,1.4133 -8.889,6.2461 -8.889,11.5313 0,1.009 0.127,2.0328 0.398,3.05 0.632,2.3957 2.123,4.3359 4.058,5.5769 1.238,-1.2601 2.189,-2.807 2.889,-4.4949 -0.513,-0.509 -0.905,-1.1512 -1.102,-1.9 -0.117,-0.441 -0.174,-0.8883 -0.174,-1.3281 0,-1.909 1.07,-3.668 2.761,-4.568 0,-0.014 0.001,-0.0281 0.001,-0.0422 0,-1.3347 -0.121,-2.639 -0.35,-3.8589 l 0.215,-0.0411 c 0.229,1.209 0.346,2.5012 0.351,3.8203 0.282,-0.1332 0.579,-0.2472 0.893,-0.33 0.551,-0.1461 1.104,-0.2141 1.65,-0.2141 2.854,0 5.458,1.9098 6.221,4.7969 0.18,0.684 0.267,1.3722 0.266,2.0441 10e-4,3.5438 -2.371,6.7809 -5.959,7.727 -0.849,0.2281 -1.703,0.3328 -2.541,0.3328 -1.889,0 -3.706,-0.5449 -5.26,-1.5168 -0.644,0.6148 -1.355,1.1629 -2.146,1.616 -4.02,2.2981 -8.188,3.243 -12.371,3.243 -2.688,0 -5.383,-0.3961 -8.054,-1.0692 3.267,1.7832 6.435,3.7641 9.427,5.9621 5.149,2.8399 11.004,4.395 16.873,4.218 1.964,-0.0441 3.92,-0.3199 5.822,-0.807 l -0.043,-0.1598 c 8.416,-2.218 13.982,-9.8191 13.982,-18.132 z m -56.871,4.5519 c -0.05,-0.0211 -0.103,-0.041 -0.154,-0.0609 1.819,0.902 3.675,1.7367 5.554,2.4629 -1.792,-0.8492 -3.595,-1.65 -5.4,-2.402 z M 478.886,57.427 c 0.548,-1.052 0.933,-3.2848 0.552,-5.6329 -0.413,-2.5269 -1.694,-5.1851 -4.571,-6.7289 -2.257,-1.209 -4.324,-1.5121 -6.122,-1.2773 -2.655,0.3551 -4.716,1.9172 -5.828,3.5371 -0.97,1.4141 -1.245,3.1789 -0.979,4.8152 0.24,1.5 0.939,2.8809 1.953,3.7739 1.062,0.93 2.287,1.1988 3.371,1.05 1.09,-0.143 2.017,-0.7071 2.458,-1.4051 0.532,-0.8449 0.727,-1.659 0.598,-2.4379 -0.087,-0.543 -0.33,-1.0691 -0.737,-1.5852 -0.931,-1.1648 -2.02,-1.0429 -2.111,-1.032 -0.01,0.002 -0.017,0.0043 -0.023,0 l -0.189,0.007 0.08,-0.1757 c 0.481,-1.0711 1.286,-1.5161 2.094,-1.6192 1.447,-0.1918 2.919,0.6332 2.927,0.6352 2.047,0.9707 3.006,2.709 3.305,4.5699 0.402,2.4918 -0.338,5.2281 -1.143,6.8348 -0.97,1.9281 -2.425,3.2031 -3.25,3.8093 4.277,-1.375 6.512,-5.0031 7.615,-7.1382 z m -74.232,7.1109 c -0.287,-0.0649 -0.568,-0.1418 -0.854,-0.209 0.257,0.2441 0.495,0.5102 0.743,0.7621 8.397,2.6602 17.035,4.732 25.426,7.384 2.958,0.875 5.939,1.7922 8.907,2.784 1.866,-0.1371 3.731,-0.3129 5.585,-0.575 -12.892,-4.591 -26.342,-7.461 -39.807,-10.1461 z m -0.615,1.0832 c -0.048,-0.0469 -0.1,-0.0902 -0.146,-0.1379 -0.245,-0.0781 -0.487,-0.1531 -0.731,-0.232 0.295,0.1207 0.58,0.2508 0.877,0.3699 z m 0.395,0.391 c -0.015,-0.0152 -0.028,-0.032 -0.042,-0.0461 -0.474,-0.184 -0.939,-0.3801 -1.406,-0.5699 0.483,0.2051 0.962,0.4168 1.448,0.616 z m -2.176,-2.0609 c -1.984,-0.5133 -3.94,-1.0961 -5.867,-1.7492 0.181,0.0902 0.371,0.1722 0.552,0.2621 1.973,0.7531 3.969,1.4511 5.981,2.1109 -0.224,-0.207 -0.438,-0.4238 -0.666,-0.6238 z m -2.029,-1.6891 c -0.911,-0.198 -1.833,-0.4152 -2.764,-0.6519 1.051,0.3488 2.109,0.673 3.176,0.9769 -0.137,-0.1082 -0.274,-0.2172 -0.412,-0.325 z m -6.115,-4.1172 c 0.091,0.6242 0.138,1.25 0.138,1.868 0,0.1531 -0.014,0.3031 -0.02,0.4551 0.233,0.0871 0.467,0.1722 0.701,0.259 l 0.212,0.066 c 1.611,0.4582 3.185,0.848 4.736,1.1941 -1.828,-1.4031 -3.76,-2.675 -5.767,-3.8422 z m -0.059,4.1242 c 3.917,2.6871 7.601,5.8731 10.417,9.6309 1.795,0.4551 3.599,0.8691 5.413,1.2422 -0.735,-1.266 -1.553,-2.4863 -2.453,-3.6473 -0.647,-0.859 -1.337,-1.6637 -2.048,-2.45 -3.536,-1.3957 -7.021,-2.9269 -10.425,-4.6547 -0.291,-0.1121 -0.584,-0.2211 -0.877,-0.3343 -0.01,0.0711 -0.016,0.1433 -0.027,0.2132 z m -0.154,-4.2441 c -4.838,-2.7871 -10.081,-4.9961 -15.249,-7.059 3.619,2.8059 7.481,5.4621 11.582,7.8832 1.254,0.55 2.528,1.061 3.811,1.5477 0.003,-0.1278 0.016,-0.2547 0.016,-0.384 0,-0.6609 -0.055,-1.3238 -0.16,-1.9879 z m -0.424,-1.8211 c -1.676,-5.332 -3.96,-8.591 -6.776,-10.8168 -7.734,-0.4051 -14.689,-2.5949 -20.867,-5.8551 3.218,3.2692 6.712,6.4969 10.484,9.5742 0.657,0.2618 1.314,0.52 1.971,0.77 5.162,2.0769 10.465,4.3019 15.399,7.1039 -0.064,-0.259 -0.13,-0.5172 -0.211,-0.7762 z M 376.422,40.6922 c -4.274,-1.3172 -9.106,-2.657 -14.364,-5.4422 0.005,0.102 0.008,0.2039 0.012,0.3082 1.073,1.177 2.179,2.3527 3.323,3.5238 6.216,3.368 13.232,5.652 21.047,6.1032 -2.838,-2.1551 -6.202,-3.3141 -10.018,-4.493 z m -11.61,-1.9313 c -0.935,-0.9687 -1.844,-1.9359 -2.73,-2.9058 0.012,0.4308 0.014,0.8609 0.01,1.2929 0.888,0.561 1.795,1.0981 2.72,1.6129 z m -2.791,0.1981 c 0.793,0.9262 1.606,1.8332 2.445,2.7082 1.707,1.6027 3.464,3.15 5.278,4.623 1.971,0.916 3.971,1.7688 5.985,2.5797 -3.762,-3.1019 -7.245,-6.3488 -10.45,-9.632 -1.088,-0.5899 -2.15,-1.2149 -3.189,-1.866 -0.01,0.5281 -0.033,1.0582 -0.069,1.5871 z m -0.02,0.314 0.229,0.2301 c -0.077,-0.0859 -0.15,-0.1789 -0.226,-0.2679 z m -0.206,1.918 c -0.037,0.2809 -0.088,0.559 -0.132,0.8399 1.442,0.8691 2.916,1.6921 4.418,2.4703 -1.441,-1.2621 -2.849,-2.5633 -4.218,-3.9102 -0.024,0.2012 -0.04,0.4012 -0.068,0.6 z m -0.681,3.5731 c 2.289,1.6949 6.111,4.405 8.894,5.7968 1.363,0.684 5.293,2.0282 10.174,4.1723 -3.923,-2.3203 -7.674,-4.9273 -11.223,-7.8 -2.545,-1.182 -5.049,-2.4691 -7.467,-3.8922 -0.111,0.5801 -0.238,1.1531 -0.378,1.7231 z m 1.197,-15.9262 c 1.157,0.1832 2.341,0.2851 3.554,0.2851 2.92,-0.0011 6.008,-0.5671 9.256,-1.8328 -1.306,-1.164 -2.625,-2.5613 -3.951,-4.1761 -2.053,0.3871 -4.123,0.6949 -6.207,0.889 -1.638,0.3758 -3.287,0.6981 -4.949,0.9559 0.353,1.0152 0.666,2.0422 0.933,3.0812 0.449,0.275 0.907,0.536 1.364,0.7977 z m 13.007,-1.6297 c 0.953,-0.3781 1.916,-0.8082 2.897,-1.3121 6.41,-3.2941 11.228,-6.2121 15.117,-8.7359 -0.583,0.0957 -1.165,0.198 -1.743,0.3109 -5.51,1.0129 -10.618,3.5578 -16.15,4.7281 -1.344,0.3199 -2.696,0.6149 -4.054,0.8758 1.322,1.6031 2.636,2.9832 3.933,4.1332 z m 18.678,-10.482 c 1.891,-1.241 3.561,-2.3801 5.085,-3.418 -0.237,0.0539 -0.475,0.1098 -0.71,0.1648 -5.562,1.4012 -11.017,3.227 -16.418,5.1879 -3.637,1.3223 -7.336,2.636 -11.096,3.7641 l 0.116,0.143 c 1.458,-0.2578 2.907,-0.5539 4.343,-0.8809 5.496,-1.0992 10.622,-3.5902 16.205,-4.5601 0.821,-0.1528 1.647,-0.2829 2.475,-0.4008 z M 370.66,22.484 c -0.338,0.1012 -0.674,0.2062 -1.014,0.3039 0.372,-0.0598 0.742,-0.1207 1.111,-0.184 z m -3.539,-4.9559 c -0.424,-0.6531 -0.877,-1.2929 -1.346,-1.9281 -2.451,1.7582 -4.994,3.3879 -7.755,4.6 0.524,1.0672 1.007,2.157 1.443,3.266 3.452,-0.4629 6.891,-1.2191 10.297,-2.1531 -0.879,-1.1699 -1.758,-2.425 -2.639,-3.7848 z m -7.725,-8.96287 c -0.968,0.34493 -1.963,0.50469 -2.964,0.50469 -2.881,-0.00469 -5.809,-1.26797 -8.366,-2.86289 2.983,3.1582 5.653,6.59497 7.937,10.31917 0.642,1.0449 1.238,2.1238 1.796,3.2258 2.741,-1.17 5.269,-2.7579 7.726,-4.4879 -1.802,-2.386 -3.897,-4.6262 -6.129,-6.69887 z M 346.393,7.44219 c 1.783,3.94371 3.611,8.43401 5.154,13.14571 0.293,0.291 0.588,0.5801 0.888,0.8641 0.211,-0.0438 0.42,-0.093 0.631,-0.1438 -1.032,-3.9211 -2.259,-7.6242 -3.912,-10.9191 -0.888,-1.01293 -1.81,-1.99418 -2.761,-2.94691 z m -1.104,-1.06797 c 0.487,1.80078 0.998,3.51875 1.529,5.14688 1.559,2.6809 3.09,5.6391 4.391,8.7398 l 0.038,0.036 c -1.304,-3.9328 -2.799,-7.711 -4.296,-11.13167 -0.313,-0.71328 -0.625,-1.4082 -0.935,-2.08906 -0.241,-0.23711 -0.484,-0.46992 -0.727,-0.70195 z M 340.92,2.54219 c 1.539,2.08984 3.495,4.91679 5.455,8.21801 -0.469,-1.47934 -0.924,-3.02622 -1.355,-4.64809 -1.321,-1.24922 -2.692,-2.43711 -4.1,-3.56992 z m -0.585,-0.46914 c -0.606,-0.47696 -1.218,-0.93711 -1.837,-1.392191 2.449,6.182031 5.973,12.010141 10.38,17.059341 -0.763,-1.8863 -1.513,-3.932 -2.233,-6.1382 -0.152,-0.2618 -0.303,-0.5239 -0.455,-0.779 -2.102,-3.53394 -4.204,-6.53277 -5.78,-8.65112 z m -3.032,2.93711 c 0.543,1.85078 1.077,3.88203 1.551,6.03674 0.951,1.3941 1.976,2.7941 3.077,4.166 0.84,1.05 1.731,2.0781 2.657,3.0773 -2.807,-4.8242 -5.242,-9.85426 -7.264,-15.02028 -0.004,0.56406 -0.01,1.1461 -0.021,1.74024 z m -0.032,1.34179 c 0.193,1.10821 0.408,2.21328 0.66,3.30899 0.204,0.31523 0.418,0.63126 0.63,0.94726 -0.396,-1.75117 -0.829,-3.41523 -1.272,-4.96015 -0.006,0.23203 -0.012,0.46718 -0.018,0.7039 z m -0.214,4.44415 c -0.008,0.109 -0.014,0.2148 -0.022,0.323 0.057,0.0871 0.113,0.1731 0.17,0.2629 -0.051,-0.1941 -0.1,-0.389 -0.148,-0.5859 z m -0.474,-9.4879 c 0.067,0.7 0.146,1.4 0.235,2.09766 0.101,0.32422 0.202,0.65117 0.303,0.98906 0.008,-0.5457 0.012,-1.0789 0.014,-1.59804 -0.192,-0.49376 -0.369,-0.99102 -0.552,-1.48868 z m -1.478,4.05782 c 0.334,1.77695 0.825,3.4371 1.45,5.00118 0.101,0.1609 0.202,0.3187 0.306,0.482 0.015,-0.216 0.03,-0.432 0.042,-0.6461 -0.219,-0.9199 -0.415,-1.8449 -0.594,-2.77224 -0.422,-0.70391 -0.823,-1.39063 -1.204,-2.06484 z m -0.275,-0.4918 c -0.325,-0.58399 -0.635,-1.15625 -0.927,-1.70899 -0.014,0.10977 -0.026,0.21797 -0.04,0.32774 0.323,1.44492 0.7,2.87891 1.114,4.30312 0.336,0.56289 0.684,1.13789 1.046,1.72188 -0.519,-1.45781 -0.918,-3.00781 -1.193,-4.64375 z m -0.421,-4.467189 c -0.18,0.801949 -0.335,1.617189 -0.456,2.439849 0.249,0.475 0.508,0.9621 0.782,1.4621 -0.184,-1.24492 -0.292,-2.54687 -0.326,-3.901949 z m 0.78,14.871869 c 0.195,0.466 0.426,0.9082 0.674,1.3371 0.175,-0.5219 0.325,-1.0629 0.454,-1.6199 -1.038,-2.5789 -1.941,-5.20899 -2.694,-7.88985 -0.005,2.83398 0.451,5.63865 1.566,8.17265 z m -3.187,-3.1578 c -0.668,1.559 -1.625,3.2039 -2.926,4.9238 0.433,0.9481 0.934,1.8653 1.49,2.7352 0.582,0.9019 1.236,1.7609 1.927,2.5929 0.942,-1.03 1.771,-2.198 2.443,-3.5168 -0.628,-0.8292 -1.175,-1.7312 -1.605,-2.721 -0.589,-1.3122 -1.021,-2.6551 -1.329,-4.0141 z m -0.571,-4.61212 c -0.202,0.31016 -0.411,0.61524 -0.636,0.91094 -0.888,1.24727 -2.035,2.12808 -3.311,2.70628 0.149,1.955 0.691,3.8937 1.5,5.7218 1.329,-1.771 2.286,-3.457 2.942,-5.0511 -0.297,-1.4149 -0.453,-2.84768 -0.495,-4.28792 z m -0.466,-6.607808 c -0.986,1.184768 -1.824,2.477738 -2.428,3.876948 1.149,-0.59726 2.203,-1.34609 3.16,-2.1832 l 0.031,-0.20898 c -0.271,-0.51992 -0.525,-1.01172 -0.763,-1.484768 z m -3.184,6.170708 c -0.244,1.03632 -0.347,2.09023 -0.335,3.14332 0.968,-0.6152 1.8,-1.43122 2.403,-2.482 0.76,-1.19922 1.306,-2.51797 1.706,-3.89023 0.03,-0.32188 0.064,-0.64297 0.103,-0.96485 -0.978,0.83594 -2.056,1.58477 -3.232,2.17305 -0.265,0.65274 -0.486,1.32383 -0.645,2.02071 z M 324.74,21.798 c -1.862,1.7411 -2.508,3.3891 -2.508,4.8551 0,0.3379 0.043,0.6598 0.104,0.9778 3.406,-0.4258 6.881,-1.9829 9.576,-4.6379 -0.736,-0.868 -1.439,-1.7711 -2.083,-2.7379 -0.503,-0.7672 -0.966,-1.575 -1.38,-2.4121 -1.037,1.282 -2.256,2.5992 -3.709,3.955 z m 13.323,6.668 0.084,-0.016 -0.053,0.052 c 0.478,0.5351 0.953,1.0722 1.403,1.6281 0.157,0.1859 0.315,0.3758 0.47,0.5691 0.241,-1.8562 0.356,-3.7402 0.357,-5.6293 0,-0.539 -0.011,-1.0777 -0.029,-1.616 -0.041,-0.0797 -0.085,-0.1578 -0.127,-0.2379 -1.959,-1.0398 -3.73,-2.4269 -5.102,-4.1801 -0.675,1.3063 -1.503,2.4743 -2.441,3.4993 1.703,2.03 3.639,3.9238 5.438,5.9308 z m -3.207,0.3371 0.001,0.0039 c -0.003,0.0012 -0.006,0.0012 -0.011,0.0012 -0.002,0 -0.004,0.0027 -0.006,0.0027 l 0,-0.0027 c -0.068,0.016 -0.131,0.0258 -0.19,0.025 -0.125,8e-4 -0.224,-0.0332 -0.295,-0.0691 l -0.08,-0.0532 -0.009,-0.0089 c -0.072,-0.043 -0.161,-0.0829 -0.213,-0.079 l -0.024,0.0032 -0.006,0.0289 c 0.002,0.0441 0.02,0.1148 0.12,0.1941 l 0.015,0.0098 0.002,0.0039 c 0.03,0.0242 0.209,0.1141 0.41,0.1113 0.102,0 0.212,-0.0203 0.328,-0.0711 l 0.002,-0.0019 0.004,-0.0032 c 0.184,-0.0761 0.382,-0.248 0.463,-0.4601 l 10e-4,-0.0047 0.002,-0.0023 c 0.014,-0.0297 0.021,-0.0637 0.03,-0.0969 -0.015,0.0312 -0.024,0.068 -0.043,0.0949 -0.119,0.1891 -0.288,0.3313 -0.501,0.3742 z m 1.699,-0.823 0,-0.0172 -0.002,-0.0117 c 0,0 0,-0.0012 -10e-4,-0.0012 z m 0.336,4.8668 0,0.0031 c -0.003,0 -0.006,0 -0.01,0 -0.002,0.0012 -0.005,0.0031 -0.008,0.0031 l 0,-0.0019 c -0.107,0.0238 -0.205,0.0359 -0.295,0.0359 -0.2,8e-4 -0.355,-0.0531 -0.462,-0.1109 l -0.124,-0.0813 -0.031,-0.0258 c -0.132,-0.0812 -0.313,-0.1742 -0.459,-0.1722 l -0.104,0.014 -0.005,0.0032 -0.006,0.0011 -0.041,0.0387 -0.037,0.1523 c 10e-4,0.1239 0.058,0.293 0.259,0.4547 l 0.016,0.0133 0.01,0.0098 c 0.013,0.014 0.121,0.0851 0.268,0.1402 0.152,0.0547 0.35,0.102 0.572,0.102 0.191,0 0.401,-0.0352 0.619,-0.1321 l 0.002,0 0.004,-0.0019 c 0.359,-0.143 0.744,-0.4641 0.913,-0.8801 l 0.002,-0.0039 0.001,-0.0031 c 0.142,-0.3102 0.217,-0.6711 0.216,-1.0219 0,-0.1012 -0.005,-0.2031 -0.017,-0.3 -0.042,-0.3223 -0.137,-0.6133 -0.248,-0.8891 0.066,0.2848 0.113,0.5801 0.123,0.886 l 0,0.0078 c -0.01,0.448 -0.144,0.857 -0.351,1.1711 -0.203,0.3082 -0.482,0.534 -0.807,0.5879 z m 2.936,-1.168 c -0.036,-0.0469 -0.075,-0.0887 -0.11,-0.1348 0.033,0.061 0.068,0.1168 0.101,0.1789 0.004,-0.014 0.006,-0.03 0.009,-0.0441 z m -1.321,5.9481 c 0.166,-0.011 0.359,-0.0469 0.6,-0.1481 0.697,-0.2027 1.317,-1.2457 1.311,-2.4918 0,-0.1891 -0.016,-0.382 -0.043,-0.575 -0.114,-0.5801 -0.316,-1.1312 -0.547,-1.657 -0.313,1.666 -0.747,3.2969 -1.321,4.8719 z m -0.095,0.4492 c -0.027,0 -0.047,-0.0071 -0.072,-0.0082 -0.176,0.4562 -0.362,0.9062 -0.563,1.3519 0.118,0.0141 0.236,0.0281 0.365,0.025 0.521,0 1.125,-0.1187 1.719,-0.5179 0.671,-0.404 1.316,-1.1618 1.515,-2.0489 0.106,-0.3949 0.158,-0.8082 0.158,-1.2211 0,-0.4859 -0.073,-0.9761 -0.209,-1.4281 -0.148,-0.4879 -0.358,-0.9258 -0.589,-1.341 -0.241,-0.3399 -0.489,-0.6738 -0.745,-1.0027 -0.006,0.0418 -0.015,0.0828 -0.021,0.1238 0.361,0.7101 0.674,1.4922 0.837,2.3262 0.034,0.2289 0.049,0.4429 0.049,0.6519 -0.007,1.375 -0.635,2.5871 -1.598,2.9039 -0.305,0.1301 -0.592,0.1852 -0.833,0.1852 -0.004,0 -0.008,0 -0.013,0 z m -0.607,-0.1172 c -0.074,-0.0328 -0.129,-0.0629 -0.173,-0.0871 -0.021,-0.0129 -0.037,-0.0219 -0.049,-0.0289 l 0.001,0 c -0.226,-0.091 -0.542,-0.2039 -0.835,-0.202 -0.143,0 -0.28,0.0262 -0.406,0.0871 -0.096,0.0348 -0.199,0.1821 -0.199,0.4078 0.001,0.3071 0.178,0.7211 0.723,1.0231 0.029,0.0289 0.32,0.1601 0.715,0.234 0.199,-0.4418 0.39,-0.891 0.564,-1.345 -0.133,-0.0218 -0.251,-0.0519 -0.341,-0.089 z m -9.359,4.6289 0.004,0.0183 c 0.02,0.0247 0.041,0.034 0.064,0.034 0.018,0 0.028,-0.0031 0.04,-0.0132 0.033,-0.0258 0.049,-0.059 0.049,-0.095 0,-0.0191 -0.004,-0.0379 -0.016,-0.0601 l -0.114,0.0902 -0.003,0 -0.006,-0.0039 -0.006,0.002 c -0.006,0.005 -0.012,0.0168 -0.012,0.0277 z m 5.969,2.3172 c -0.057,0.7371 -0.268,1.4711 -0.668,2.1558 0.386,-0.6808 0.588,-1.4007 0.643,-2.1257 -1.378,1.6679 -3.017,3.1929 -4.983,4.5168 l -0.107,-0.1598 c 2.025,-1.3621 3.707,-2.9371 5.103,-4.666 0.054,-3.4211 -3.17,-6.775 -6.658,-6.1543 2.676,0.1133 3.473,1.5023 3.482,1.5273 0.463,0.611 0.692,1.3449 0.692,2.068 0,1.032 -0.463,2.0508 -1.346,2.723 -0.495,0.3758 -1.08,0.5559 -1.656,0.5539 -0.839,0.002 -1.668,-0.382 -2.215,-1.1011 -0.309,-0.4059 -0.458,-0.8848 -0.458,-1.3598 0,-0.6703 0.304,-1.3352 0.879,-1.7723 0.323,-0.2437 0.704,-0.3617 1.083,-0.3617 0.549,0 1.091,0.2477 1.449,0.718 0.201,0.2707 0.301,0.584 0.301,0.8949 0,0.4418 -0.199,0.8781 -0.576,1.1649 -0.217,0.1652 -0.471,0.2421 -0.721,0.2421 -0.361,0 -0.72,-0.1671 -0.958,-0.4781 -0.136,-0.1769 -0.201,-0.3871 -0.198,-0.5961 -0.003,-0.2949 0.131,-0.5847 0.385,-0.7769 0.141,-0.109 0.312,-0.1629 0.482,-0.1621 0.244,-8e-4 0.485,0.1101 0.645,0.3203 0.09,0.1258 0.135,0.266 0.135,0.407 0,0.2 -0.087,0.3977 -0.26,0.527 -0.1,0.0769 -0.219,0.114 -0.334,0.114 -0.168,0 -0.334,-0.0793 -0.444,-0.2242 -0.066,-0.0789 -0.095,-0.182 -0.095,-0.2801 0,-0.1398 0.063,-0.2797 0.181,-0.3707 0.074,-0.0531 0.157,-0.0801 0.239,-0.0801 0.119,0 0.238,0.0528 0.315,0.1559 0.046,0.0652 0.069,0.1352 0.069,0.207 0,0.0989 -0.045,0.2012 -0.131,0.2672 -0.054,0.0438 -0.12,0.061 -0.176,0.0598 -0.09,0.0012 -0.177,-0.0418 -0.235,-0.1168 -0.016,-0.0203 -0.029,-0.041 -0.038,-0.0652 0.008,0.032 0.023,0.0609 0.043,0.0871 0.071,0.0949 0.17,0.1398 0.272,0.1398 0.07,0 0.138,-0.0207 0.201,-0.068 0.113,-0.0879 0.174,-0.2168 0.176,-0.3527 -0.002,-0.093 -0.031,-0.1902 -0.094,-0.2762 -0.115,-0.1519 -0.291,-0.2308 -0.469,-0.2328 -0.125,0.002 -0.247,0.0399 -0.351,0.118 -0.196,0.1488 -0.299,0.3738 -0.299,0.6027 0,0.1621 0.051,0.325 0.156,0.4621 0.194,0.2582 0.488,0.3922 0.783,0.3922 0.205,0 0.41,-0.0621 0.586,-0.1972 0.322,-0.2418 0.49,-0.6141 0.49,-0.9899 0,-0.266 -0.084,-0.5301 -0.255,-0.7629 -0.315,-0.414 -0.791,-0.6312 -1.274,-0.6332 -0.334,0.002 -0.668,0.1059 -0.95,0.3199 -0.52,0.393 -0.792,0.9922 -0.792,1.5973 0,0.4297 0.133,0.8598 0.413,1.2258 0.505,0.666 1.269,1.0172 2.04,1.0172 0.531,0 1.066,-0.166 1.523,-0.5121 0.827,-0.627 1.26,-1.5782 1.26,-2.5469 0,-0.6793 -0.215,-1.3652 -0.658,-1.95 -0.012,-0.0152 -0.749,-1.4453 -3.638,-1.4481 -0.155,0 -0.324,0.011 -0.491,0.02 0,0.0011 -10e-4,0.0011 -0.002,0.0011 -4.472,1.3559 -6.25,7.541 -3.4,11.166 2.652,3.77 8.107,4.6618 12.192,2.9157 4.126,-1.7379 7.528,-5.5289 8.023,-10.036 0.452,-2.8867 -0.424,-5.6238 -1.864,-8.1027 0.066,0.3359 0.111,0.6777 0.111,1.0238 0,0.4481 -0.058,0.8969 -0.171,1.3262 -0.234,1.0227 -0.948,1.8539 -1.703,2.3137 -0.67,0.45 -1.371,0.5883 -1.957,0.5863 -0.203,-0.0023 -0.388,-0.018 -0.557,-0.0422 -0.842,1.7922 -1.879,3.4949 -3.17,5.0641 z m 6.127,-24.1012 c -0.086,-0.1867 -0.166,-0.375 -0.249,-0.5617 0.015,0.1617 0.03,0.3238 0.043,0.4867 z m 10.608,17.409 c 0.882,1.093 1.79,2.166 2.712,3.2312 0.262,-0.98 0.448,-1.9781 0.565,-2.989 -0.188,-0.2172 -0.377,-0.4422 -0.572,-0.6731 -2.166,-1.7511 -4.209,-3.6621 -6.081,-5.782 -2.134,-2.416 -3.957,-5.0488 -5.51,-7.8289 -0.195,-0.0762 -0.39,-0.1531 -0.581,-0.2332 2.733,5.0293 5.939,9.8152 9.467,14.275 z m 4.103,4.8062 c 0.013,-0.425 0.021,-0.8519 0.021,-1.2832 0,-0.7879 -0.029,-1.5859 -0.07,-2.3867 -0.197,-0.2242 -0.398,-0.4543 -0.603,-0.6941 -0.127,1.0039 -0.32,1.9918 -0.587,2.9629 0.409,0.4699 0.821,0.9379 1.239,1.4011 z m -0.615,-4.6121 c 0.183,0.2149 0.369,0.427 0.544,0.6309 l -0.015,-0.2297 c -0.177,-0.134 -0.355,-0.266 -0.529,-0.4012 z m 0.096,-1.182 c 0.114,0.091 0.226,0.1852 0.341,0.2742 -0.081,-0.9012 -0.193,-1.807 -0.318,-2.716 0.01,0.2867 0.025,0.577 0.025,0.8617 10e-4,0.5301 -0.015,1.0563 -0.048,1.5801 z m 2.213,1.693 c -0.343,-1.541 -0.671,-3.0868 -0.992,-4.634 -0.451,-0.5258 -0.89,-1.0598 -1.331,-1.5938 0.287,1.666 0.516,3.3258 0.656,4.968 0.549,0.4289 1.104,0.85 1.667,1.2598 z m -1.557,0.3531 c 0.149,0.1711 0.303,0.348 0.446,0.5078 0.673,0.7551 1.259,1.3871 1.753,1.9082 -0.109,-0.448 -0.213,-0.898 -0.317,-1.3492 -0.644,-0.4457 -1.277,-0.9059 -1.904,-1.3777 0.006,0.1058 0.016,0.207 0.022,0.3109 z m 0.045,3.9488 c 1.163,1.2871 2.357,2.5492 3.581,3.7793 -0.484,-1.6211 -0.925,-3.268 -1.333,-4.9371 -0.598,-0.625 -1.373,-1.4621 -2.273,-2.4781 0.034,0.7219 0.054,1.4402 0.054,2.1519 0,0.4981 -0.011,0.9903 -0.029,1.484 z m 3.857,4.0543 0.028,0.027 c 0.313,-1.0012 0.58,-2.016 0.798,-3.0422 -0.679,-0.5121 -1.092,-0.834 -1.092,-0.834 l -0.004,-0.0039 -0.003,-0.002 c 0,-0.0019 -0.398,-0.3832 -1.073,-1.0832 0.224,0.9032 0.453,1.8012 0.696,2.6903 0.209,0.7547 0.425,1.5039 0.65,2.248 z m 19.405,23.7008 c 2.529,0.9531 4.615,1.952 6.331,2.973 2.512,-1.341 4.7,-3.3058 6.297,-5.6191 -1.945,-0.7207 -3.875,-1.4848 -5.781,-2.3 -9.637,-3.9269 -18.217,-9.9508 -25.717,-17.116 l -0.007,0.023 c 3.202,9.7301 8.327,18.0602 18.877,22.0391 z M 358.719,35.1 c -0.637,-0.459 -1.266,-0.927 -1.882,-1.4059 1.29,1.5059 2.622,2.9731 3.996,4.402 10e-4,-0.0832 0.005,-0.1629 0.005,-0.2441 -0.729,-0.8981 -1.44,-1.811 -2.119,-2.752 z m 0.523,0.3719 c 0.52,0.7031 1.045,1.3992 1.592,2.0781 10e-4,-0.332 0,-0.6641 -0.011,-0.9949 -0.534,-0.3512 -1.059,-0.7149 -1.581,-1.0832 z m -2.808,-3.709 c 0.142,0.207 0.281,0.409 0.412,0.5961 0.591,0.8351 1.072,1.459 1.404,1.8722 0.333,0.4149 0.517,0.6149 0.517,0.6157 l 0.004,0.0062 0.002,0.0039 0.081,0.1059 c 0.645,0.4652 1.298,0.918 1.964,1.3613 -0.024,-0.6133 -0.07,-1.2203 -0.13,-1.8281 -1.391,-0.7949 -2.809,-1.6981 -4.254,-2.7332 z M 354.633,27.05 c 0.211,0.968 0.418,1.9391 0.621,2.9129 0.305,0.4871 0.595,0.9301 0.871,1.3402 1.531,1.1219 3.033,2.091 4.505,2.9391 -2.15,-2.4223 -4.148,-4.8332 -5.997,-7.1922 z m -0.152,-0.6738 c 0.019,0.0808 0.037,0.1629 0.055,0.2449 1.876,2.4008 3.905,4.8621 6.093,7.332 -0.213,-1.8699 -0.584,-3.7219 -1.1,-5.5359 -1.757,-0.5 -3.439,-1.1953 -5.048,-2.041 z m 1.515,-0.9332 c -0.562,0.048 -1.129,0.0922 -1.693,0.1199 0.041,0.1851 0.082,0.3711 0.123,0.5562 1.603,0.8579 3.283,1.5579 5.035,2.0661 -0.041,-0.1411 -0.083,-0.2793 -0.127,-0.42 -1.143,-0.7312 -2.256,-1.5062 -3.338,-2.3222 z m 1.02,-0.0879 c 0.66,0.498 1.33,0.982 2.013,1.448 -0.181,-0.5441 -0.376,-1.0832 -0.582,-1.6191 -0.476,0.0621 -0.953,0.1211 -1.431,0.1711 z m -2.258,-3.9629 c -0.451,0.1449 -0.908,0.273 -1.369,0.391 0.06,0.2387 0.121,0.477 0.181,0.716 0.52,0.466 1.045,0.9297 1.584,1.377 0.892,-0.0492 1.782,-0.1231 2.672,-0.2153 -0.415,-0.964 -0.868,-1.9097 -1.355,-2.839 -0.563,0.207 -1.131,0.4023 -1.713,0.5703 z m -1.502,-0.1293 c 0.454,-0.1117 0.904,-0.2359 1.347,-0.3758 0.553,-0.1531 1.094,-0.332 1.627,-0.5219 -0.535,-0.9941 -1.108,-1.9691 -1.718,-2.914 -1.458,-2.268 -3.1,-4.425 -4.864,-6.4801 0.071,0.148 0.144,0.291 0.213,0.4418 1.397,3.0242 2.475,6.3551 3.395,9.85 z m 0.063,1.0152 c -0.03,-0.1222 -0.059,-0.2441 -0.09,-0.3629 l -0.022,-0.0882 c -0.103,0.0261 -0.209,0.0492 -0.312,0.073 0.138,0.1281 0.284,0.2512 0.424,0.3781 z m -0.909,1.0891 c 0.069,0.1957 0.141,0.3887 0.207,0.5859 0.37,0 0.74,-0.0129 1.11,-0.023 -0.032,-0.1301 -0.063,-0.2559 -0.094,-0.3832 -0.539,-0.4578 -1.07,-0.9207 -1.593,-1.3989 0.126,0.4051 0.251,0.8122 0.37,1.2192 z m -1.178,-1.1301 c 0.352,0.482 0.711,0.9691 1.075,1.4578 -0.027,-0.0929 -0.053,-0.184 -0.08,-0.2769 -0.151,-0.425 -0.307,-0.852 -0.469,-1.2778 -0.175,0.034 -0.348,0.068 -0.526,0.0969 z m -1.031,-1.8539 c 0.172,0.3887 0.344,0.7637 0.516,1.1379 l 0.154,0.2141 c 0.208,-0.0301 0.414,-0.068 0.621,-0.1043 -0.435,-0.4118 -0.869,-0.8239 -1.291,-1.2477 z m -0.926,-2.175 c 0.51,0.5707 1.037,1.127 1.569,1.6758 -1.123,-2.618 -2.406,-5.1328 -3.724,-7.4551 0.699,2.0742 1.423,3.9973 2.155,5.7793 z m 0.858,2.4957 c -0.103,-0.2309 -0.207,-0.4758 -0.311,-0.7148 -0.234,-0.2399 -0.469,-0.4821 -0.7,-0.7262 0.329,0.475 0.667,0.9562 1.011,1.441 z m -2.373,0.7 c 0.211,0.1871 0.424,0.3742 0.638,0.5551 0.743,-0.0281 1.485,-0.0969 2.221,-0.1938 l -0.068,-0.148 c -0.823,-1.1461 -1.609,-2.2703 -2.356,-3.3652 -3.476,-3.8778 -6.436,-8.2411 -8.795,-12.91098 2.318,5.55588 5.12,10.94218 8.36,16.06288 z m -8.263,-7.1207 c 0.166,0.4098 0.337,0.8148 0.511,1.2207 1.217,1.7051 2.531,3.441 3.946,5.1731 0.495,0.398 0.986,0.796 1.48,1.1921 0.457,0.0438 0.918,0.075 1.379,0.0891 -0.618,-0.9691 -1.215,-1.948 -1.801,-2.9352 -2.09,-2.18 -3.974,-4.5351 -5.638,-6.8898 -0.14,-0.198 -0.276,-0.3941 -0.412,-0.5922 0.19,0.8949 0.37,1.8102 0.535,2.7422 z m -1.28,-3.4633 c 0.285,0.8492 0.592,1.6871 0.912,2.5172 -0.144,-0.7492 -0.294,-1.4871 -0.453,-2.2129 -0.207,-0.3051 -0.412,-0.6113 -0.612,-0.9121 0.048,0.2039 0.102,0.407 0.153,0.6078 z m 1.137,3.759 c -0.014,-0.0828 -0.028,-0.1637 -0.041,-0.2457 -0.159,-0.3891 -0.31,-0.782 -0.459,-1.175 0.121,0.4137 0.244,0.8289 0.375,1.2398 z m 3.288,6.8383 c -0.636,-1.186 -1.249,-2.4063 -1.833,-3.6543 -0.245,-0.291 -0.485,-0.584 -0.717,-0.882 0.553,1.4851 1.173,2.9421 1.857,4.366 0.23,0.0613 0.461,0.1172 0.693,0.1703 z m 0.391,0.7328 c -0.242,-0.048 -0.484,-0.0988 -0.723,-0.1551 0.04,0.0793 0.076,0.159 0.116,0.2383 0.279,0.1238 0.562,0.2379 0.849,0.3488 -0.08,-0.1449 -0.162,-0.2871 -0.242,-0.432 z m -3.191,-6.55 -0.157,-0.2219 c 0.037,0.234 0.071,0.4699 0.107,0.7051 l 0.056,0.1547 c 0.212,0.2863 0.423,0.5711 0.646,0.8473 -0.223,-0.4891 -0.439,-0.986 -0.652,-1.4852 z m 1.129,2.059 c 0.695,0.825 1.433,1.616 2.217,2.3742 -0.997,-1.248 -1.941,-2.493 -2.835,-3.725 0.2,0.4539 0.409,0.9027 0.618,1.3508 z m 3.649,4.1262 c -0.271,-0.3231 -0.538,-0.6473 -0.802,-0.9723 -0.201,-0.1609 -0.402,-0.3207 -0.601,-0.4817 l -0.004,-0.0031 -0.002,-0.0011 c -0.678,-0.6469 -1.322,-1.32 -1.936,-2.0161 0.516,1.0793 1.059,2.1301 1.614,3.1621 0.572,0.125 1.148,0.234 1.731,0.3122 z m 0.466,0.0488 c -0.18,-0.1438 -0.356,-0.2879 -0.534,-0.4309 0.114,0.1379 0.227,0.275 0.343,0.411 z m 0.905,1.5469 c -0.269,-0.3059 -0.536,-0.6137 -0.8,-0.9219 -0.64,-0.0598 -1.279,-0.1391 -1.91,-0.2551 0.088,0.1613 0.18,0.3152 0.27,0.475 0.793,0.2852 1.609,0.5223 2.44,0.702 z m -1.36,1.5441 c -0.283,-0.0711 -0.567,-0.15 -0.848,-0.234 1.375,2.3442 2.951,4.5699 4.76,6.632 0.458,0.5239 0.93,1.0332 1.408,1.5321 -1.744,-2.3449 -3.57,-5.011 -5.32,-7.9301 z m 1.307,-2.4008 c -0.159,-0.009 -0.315,-0.0273 -0.473,-0.041 0.276,0.3227 0.556,0.6438 0.84,0.9648 0.3,0.0602 0.601,0.118 0.904,0.1641 -0.408,-0.366 -0.834,-0.7289 -1.271,-1.0879 z m 1.595,1.1317 c 0.143,0.0183 0.285,0.0371 0.428,0.055 -0.252,-0.3808 -0.503,-0.7629 -0.75,-1.1468 -0.323,-0.002 -0.645,-0.0141 -0.966,-0.0289 0.444,0.3699 0.875,0.741 1.288,1.1207 z m 6.889,8.9902 c -0.015,-0.0832 -0.029,-0.166 -0.045,-0.25 -0.641,-0.7801 -1.269,-1.5699 -1.887,-2.3691 -1.617,-1.4739 -3.152,-3 -4.605,-4.554 -0.99,-0.0859 -1.994,-0.2488 -2.992,-0.4871 1.138,1.895 2.31,3.6871 3.47,5.3473 0.869,1.243 1.731,2.407 2.567,3.4988 1.157,1.1399 2.363,2.22 3.619,3.2399 0.027,-0.4739 0.041,-0.9477 0.041,-1.427 0,-0.991 -0.061,-1.9918 -0.168,-2.9988 z M 353.76,27.85 c 0.16,0.6539 0.301,1.309 0.427,1.9652 0.336,0.2688 0.672,0.5348 1.006,0.791 -0.04,-0.1902 -0.08,-0.3781 -0.119,-0.5703 -0.416,-0.6609 -0.855,-1.3898 -1.314,-2.1859 z m -0.436,1.509 c 0.204,0.2652 0.411,0.5269 0.617,0.7902 -0.023,-0.1152 -0.046,-0.2301 -0.072,-0.3453 -0.181,-0.1488 -0.363,-0.2918 -0.545,-0.4449 z m -1.445,-5.418 c 0.127,0.002 0.254,0.011 0.381,0.011 -0.377,-0.5071 -0.748,-1.009 -1.112,-1.5071 0.246,0.5153 0.489,1.0141 0.731,1.4961 z m -0.999,-0.0238 c 0.261,0.0078 0.522,0.0148 0.782,0.0187 -0.264,-0.5277 -0.529,-1.0707 -0.797,-1.6398 -0.604,0.0898 -1.213,0.1539 -1.824,0.1988 0.602,0.4903 1.211,0.9692 1.839,1.4223 z m -2.712,1.5789 c 1.159,1.2328 2.369,2.448 3.632,3.6309 -0.865,-1.1391 -1.701,-2.3028 -2.52,-3.479 l -0.092,-0.0949 c -0.341,-0.0179 -0.679,-0.032 -1.02,-0.057 z m 1.171,-1.668 c 0.401,0.0301 0.802,0.061 1.202,0.0789 -0.607,-0.4441 -1.202,-0.909 -1.786,-1.3918 -0.086,0.0059 -0.171,0.0157 -0.258,0.02 0.28,0.43 0.556,0.8668 0.842,1.2929 z m 3.619,2.1949 c -0.036,-0.1351 -0.071,-0.271 -0.108,-0.4058 l -0.105,0.0027 c 0.069,0.134 0.143,0.2723 0.213,0.4031 z m -0.425,-0.3949 c -0.65,0.011 -1.303,0.0028 -1.957,-0.0121 0.711,1.0121 1.436,2.0172 2.182,3.007 0.35,0.3032 0.701,0.5961 1.049,0.8821 -0.2,-0.9071 -0.414,-1.8129 -0.647,-2.7172 -0.206,-0.3727 -0.415,-0.759 -0.627,-1.1598 z m 0.988,-0.0101 -0.02,-0.0258 -0.022,0 z m 0.551,-1.695 -0.193,-0.166 0.04,0.168 z m -0.338,1.661 c 0.075,0.098 0.151,0.1961 0.225,0.2922 0.081,0.0468 0.165,0.0847 0.246,0.1289 -0.031,-0.1449 -0.066,-0.2891 -0.099,-0.434 -0.124,0.0059 -0.247,0.009 -0.372,0.0129 z m 0.532,0.6879 -0.002,-0.0129 -0.012,-0.0051 z m -0.434,-0.2489 c -0.227,-0.1261 -0.451,-0.2519 -0.674,-0.3851 0.153,0.5082 0.295,1.018 0.429,1.5273 0.477,0.8477 0.936,1.6188 1.371,2.3239 -0.194,-0.9332 -0.394,-1.8629 -0.598,-2.7852 -0.176,-0.2277 -0.354,-0.4527 -0.528,-0.6809 z m 1.421,4.8711 c -0.335,-0.2539 -0.673,-0.5179 -1.013,-0.7879 0.035,0.1868 0.075,0.3727 0.107,0.5618 0.38,0.4781 0.764,0.95 1.153,1.4222 -0.082,-0.3992 -0.164,-0.798 -0.247,-1.1961 z m 0.417,0.0731 c -0.1,-0.1531 -0.203,-0.3141 -0.306,-0.475 0.02,0.0969 0.04,0.1957 0.061,0.2918 0.082,0.0621 0.164,0.1211 0.245,0.1832 z m 0.56,2.0047 c 0.658,0.5242 1.325,1.039 2.004,1.541 -0.44,-0.5379 -1.234,-1.5598 -2.25,-3.0758 -0.166,-0.1211 -0.334,-0.2449 -0.502,-0.3711 0.093,0.4449 0.186,0.8922 0.278,1.3391 0.158,0.189 0.312,0.3789 0.47,0.5668 z m 1.272,7.5301 c 0.115,0.491 0.235,0.9792 0.354,1.4671 0.137,0.143 0.271,0.284 0.389,0.4051 0.568,0.584 0.888,0.891 0.9,0.9028 0.009,0.007 0.39,0.3031 1.015,0.7761 0.113,-0.5441 0.209,-1.091 0.293,-1.641 -1,-0.6109 -1.985,-1.2461 -2.951,-1.9101 z m 3.088,0.8742 c 0.014,-0.109 0.032,-0.218 0.045,-0.3293 0.06,-0.5137 0.107,-1.0289 0.141,-1.5449 -1.573,-1.593 -3.098,-3.2348 -4.567,-4.9301 0.313,1.507 0.635,3.0121 0.971,4.5121 1.111,0.798 2.247,1.5629 3.41,2.2922 z M 336.816,11.459 c -0.099,-0.2219 -0.205,-0.4379 -0.298,-0.6641 -0.047,-0.1117 -0.087,-0.2289 -0.133,-0.341 -0.418,-0.66171 -0.819,-1.30898 -1.203,-1.9457 0.449,1.49102 0.949,2.9648 1.49,4.4277 0.018,-0.1699 0.052,-0.3277 0.066,-0.4968 0.029,-0.327 0.053,-0.6539 0.078,-0.9801 z m -0.361,3.8629 c -0.131,0.5281 -0.279,1.0422 -0.453,1.5371 0.646,1.0582 1.449,1.9949 2.368,2.8121 -0.682,-1.4301 -1.317,-2.8809 -1.915,-4.3492 z m 0.649,-9.92073 c 0.001,-0.12226 0.005,-0.24414 0.007,-0.36406 -0.039,-0.13594 -0.078,-0.26719 -0.117,-0.39688 0.038,0.25391 0.069,0.50782 0.11,0.76094 z m 0.366,6.98983 c -0.04,-0.1441 -0.079,-0.2898 -0.118,-0.434 -0.11,-0.1679 -0.221,-0.3379 -0.33,-0.5058 0.145,0.3168 0.292,0.632 0.448,0.9398 z m -0.491,-0.5719 c -0.017,0.211 -0.032,0.4239 -0.05,0.636 -0.027,0.3039 -0.061,0.6058 -0.101,0.9051 0.924,2.4527 1.973,4.8668 3.132,7.2308 l 0.177,0.066 c -0.027,-0.325 -0.055,-0.6468 -0.086,-0.9718 -0.896,-2.061 -1.66,-4.1832 -2.3,-6.3442 -0.274,-0.4949 -0.528,-1.0051 -0.772,-1.5219 z m 51.695,46.3168 c -3.762,-2.3019 -7.313,-4.8019 -10.656,-7.425 l -0.059,-0.023 c -1.75,-0.6609 -3.5,-1.3578 -5.24,-2.093 4.976,3.7192 10.312,6.934 15.955,9.541 z m 2.959,9.7262 c 1.09,-1.6969 1.859,-3.5641 2.21,-5.5082 -0.661,-0.4519 -1.331,-0.8789 -2.003,-1.3019 -3.272,-1.5579 -6.447,-3.295 -9.631,-4.995 l 0.068,-0.125 c -0.191,-0.1058 -0.388,-0.2019 -0.578,-0.309 -5.597,-2.5601 -10.242,-4.123 -11.777,-4.891 -2.783,-1.3918 -6.561,-4.0691 -8.859,-5.7691 -0.266,1.0601 -0.583,2.1043 -0.944,3.1301 7.451,7.2672 15.996,13.3902 25.659,17.4 1.929,0.841 3.884,1.6289 5.855,2.3691 z m 2.271,-5.873 c -0.136,-0.0539 -0.273,-0.1032 -0.41,-0.1551 -0.109,-0.05 -0.216,-0.1039 -0.324,-0.1539 0.238,0.1578 0.478,0.309 0.715,0.4711 0.008,-0.0532 0.011,-0.109 0.019,-0.1621 z m 10.266,9.8351 c -2.765,-3.632 -6.344,-6.7301 -10.156,-9.3523 -0.36,1.9273 -1.123,3.7773 -2.198,5.4582 4.044,1.514 8.168,2.8199 12.354,3.8941 z m 6.617,1.4949 c 3.604,0.711 7.238,1.2571 10.893,1.6278 -2.315,-1.6559 -4.992,-3.2797 -8.034,-4.8469 -2.271,-0.793 -4.531,-1.6141 -6.773,-2.475 0.39,0.4621 0.773,0.9352 1.139,1.425 1.039,1.3512 1.956,2.784 2.775,4.2691 z m 18.233,2.1469 c 0.135,0.0051 0.272,0.002 0.408,0.0059 -4.826,-1.6817 -9.695,-3.268 -14.532,-4.9367 2.688,1.4437 5.069,2.9328 7.161,4.4488 2.315,0.2281 4.636,0.3949 6.963,0.482 z m -23.026,-8.8598 c 0.012,0.0149 0.024,0.027 0.036,0.0407 0.375,0.1492 0.751,0.298 1.127,0.4441 -0.387,-0.1621 -0.764,-0.3238 -1.163,-0.4848 z m 24.897,8.886 c 2.213,0.0297 4.437,-0.011 6.665,-0.1402 -2.579,-0.8329 -5.165,-1.6208 -7.738,-2.3731 -8.088,-2.3887 -16.261,-4.493 -24.332,-6.991 -0.034,-0.0098 -0.068,-0.0219 -0.101,-0.0309 0.105,0.1121 0.218,0.2149 0.321,0.3301 1.74,0.6941 3.386,1.4051 4.949,2.1309 6.689,2.4672 13.508,4.6519 20.236,7.0742 z M 410,63.8469 c -10e-4,0 -0.002,0 -0.004,0.0011 -0.002,0.002 -0.002,0.0032 -0.004,0.004 0.002,-8e-4 0.005,-0.0028 0.008,-0.0051 z m 4.072,-0.1828 c 0.003,-0.0012 0.006,-0.002 0.008,-0.0032 -0.002,0.0012 -0.005,0.0012 -0.008,0.0012 z m 0.114,0.4199 c 0.003,-8e-4 0.007,-0.002 0.012,-0.0039 -0.005,0.0011 -0.009,0.0019 -0.012,0.0031 z m 10.986,-0.8641 c 0.664,-0.1879 1.334,-0.4367 1.992,-0.7898 1.091,-0.5922 2.077,-1.5332 2.69,-2.6082 0.459,-0.7348 0.658,-1.5938 0.658,-2.4047 0,-0.4141 -0.054,-0.816 -0.147,-1.1762 -0.459,-2.3031 -2.642,-3.2461 -2.812,-3.234 -0.293,-0.073 -0.52,-0.1011 -0.724,-0.1019 -0.921,8e-4 -1.405,0.5949 -1.407,0.9531 0,0.0559 0.012,0.1039 0.031,0.1477 0.211,0.6211 0.942,0.9703 1.429,1.173 0.005,0.0051 1.124,0.1543 1.688,1.5641 0.171,0.3199 0.254,0.707 0.254,1.1152 -0.004,1.2699 -0.788,2.7668 -2.171,3.8039 -1.471,0.9949 -3.134,1.5641 -4.616,1.9098 1.072,-0.0949 2.114,-0.2137 3.135,-0.352 z m 25.496,-9.3 c 1.348,-0.5918 2.088,-1.784 2.467,-2.516 0.205,-0.3949 0.348,-1.2309 0.205,-2.109 -0.154,-0.9457 -0.633,-1.941 -1.711,-2.5179 -0.845,-0.4528 -1.619,-0.568 -2.291,-0.4809 -0.994,0.134 -1.766,0.7191 -2.182,1.3269 -0.363,0.5282 -0.467,1.1899 -0.367,1.802 0.09,0.5621 0.352,1.0789 0.731,1.4121 0.398,0.3488 0.856,0.45 1.261,0.3941 0.408,-0.0542 0.756,-0.2652 0.922,-0.5273 0.198,-0.3148 0.272,-0.6199 0.223,-0.9117 -0.032,-0.2043 -0.123,-0.4 -0.276,-0.593 -0.348,-0.4363 -0.755,-0.391 -0.791,-0.3863 -0.003,0 -0.005,0.0012 -0.007,0 l -0.071,0.0023 0.029,-0.066 c 0.181,-0.4012 0.482,-0.5683 0.785,-0.6062 0.542,-0.0719 1.093,0.2371 1.095,0.2371 0.767,0.364 1.126,1.014 1.238,1.7109 0.15,0.934 -0.127,1.957 -0.428,2.5602 -0.248,0.4918 -0.577,0.8597 -0.86,1.1238 l 0.081,0.1039 c 0,0 -0.022,0.0172 -0.053,0.041 z m -31.502,8.3832 c 0.557,-0.3961 1.035,-0.9769 1.295,-1.6031 0.149,-0.3258 0.217,-0.675 0.217,-1.0148 0,-0.345 -0.068,-0.6813 -0.178,-0.961 -0.391,-1.1961 -1.631,-1.5832 -1.714,-1.5672 l -0.007,-0.0019 c -0.109,-0.0121 -0.181,-0.0149 -0.254,-0.0172 -0.55,0.0023 -0.782,0.3543 -0.782,0.5101 0,0.029 0.008,0.0512 0.017,0.0661 0.135,0.2949 0.539,0.4429 0.826,0.5191 0.002,8e-4 0.003,8e-4 0.004,8e-4 0.003,0 0.004,-8e-4 0.004,-8e-4 0.162,0.0137 0.719,0.1199 1.104,0.8109 0.167,0.2368 0.247,0.5489 0.247,0.8801 -0.002,0.702 -0.347,1.5039 -0.998,2.127 -0.598,0.5199 -1.277,0.9019 -1.93,1.1847 0.702,-0.1718 1.457,-0.4457 2.149,-0.9328 z m -6.327,-1.1211 c 0.02,-0.0918 0.03,-0.18 0.03,-0.264 0,-0.2778 -0.096,-0.5559 -0.228,-0.7508 -0.301,-0.5082 -0.866,-0.6133 -1.016,-0.6121 l -0.01,0 c -0.358,0.0289 -0.439,0.2179 -0.437,0.2691 l -0.004,0 c 0.078,0.1067 0.284,0.1469 0.447,0.1528 l 0.008,0.0011 c 0.014,-0.0019 0.034,-0.0039 0.064,-0.0039 0.157,-0.0043 0.444,0.0578 0.7,0.3449 0.201,0.1891 0.292,0.4829 0.292,0.7969 0,0.3281 -0.101,0.6871 -0.31,1.0141 0.23,-0.2641 0.404,-0.6102 0.464,-0.9481 z m -1.228,-1.2019 c 0.002,0 0.006,-0.002 0.012,-0.002 -0.006,0 -0.01,0 -0.015,0 0,0 10e-4,0.002 0.003,0.002 z M 315.3,26.4262 c -0.327,-0.3731 -0.713,-1.0442 -0.773,-1.727 -0.045,-0.5121 0.099,-1.032 0.59,-1.4211 0.002,-0.0019 0.346,-0.3172 0.752,-0.3609 0.228,-0.0242 0.477,0.0398 0.68,0.291 l 0.033,0.041 -0.052,0.0098 c -10e-4,0.0012 -0.004,0.0012 -0.007,0.0012 -0.025,0.0027 -0.329,0.0418 -0.502,0.4117 -0.077,0.1621 -0.108,0.3172 -0.094,0.4652 0.017,0.2141 0.126,0.4149 0.327,0.6039 0.167,0.1551 0.458,0.243 0.764,0.209 0.304,-0.032 0.619,-0.1828 0.845,-0.4969 0.215,-0.3031 0.312,-0.7121 0.276,-1.1242 -0.038,-0.4488 -0.233,-0.8957 -0.592,-1.2039 -0.412,-0.3551 -1.078,-0.632 -1.824,-0.5508 -0.504,0.0547 -1.045,0.2707 -1.577,0.7379 -0.678,0.5961 -0.847,1.3801 -0.789,2.0719 0.055,0.6449 0.311,1.2082 0.532,1.4492 0.29,0.3207 0.757,0.7738 1.395,1.0758 l 0.073,-0.1649 c 0.196,0.0879 0.405,0.1528 0.608,0.2278 -0.217,-0.1309 -0.452,-0.3067 -0.665,-0.5457 z m 58.009,90.2148 c -0.453,-0.512 -0.985,-1.437 -1.067,-2.38 -0.06,-0.704 0.137,-1.423 0.813,-1.959 0.004,-0.002 0.477,-0.434 1.038,-0.496 0.313,-0.035 0.655,0.054 0.935,0.399 l 0.046,0.057 -0.071,0.015 c -0.002,0.002 -0.005,0.002 -0.009,0.002 -0.034,0.004 -0.454,0.058 -0.693,0.566 -0.106,0.225 -0.149,0.438 -0.13,0.642 0.024,0.295 0.173,0.573 0.452,0.831 0.229,0.214 0.631,0.336 1.053,0.289 0.419,-0.044 0.853,-0.252 1.164,-0.686 0.297,-0.417 0.43,-0.981 0.381,-1.547 -0.053,-0.619 -0.321,-1.236 -0.817,-1.661 -0.567,-0.489 -1.484,-0.871 -2.513,-0.758 -0.696,0.076 -1.442,0.373 -2.175,1.016 -0.935,0.821 -1.167,1.902 -1.085,2.859 0.074,0.886 0.428,1.663 0.73,1.995 0.531,0.586 1.485,1.5 2.856,1.807 l 0.024,-0.098 c 0.13,0.032 0.257,0.053 0.387,0.083 -0.374,-0.178 -0.884,-0.482 -1.319,-0.976 z m 1.375,-20.5148 c 0.046,0.0617 0.113,0.0898 0.179,0.0918 0.047,-0.002 0.09,-0.0141 0.129,-0.045 0.086,-0.0628 0.129,-0.1578 0.129,-0.2578 0,-0.057 -0.016,-0.1132 -0.047,-0.1683 l -0.277,0.2121 0,0 c -0.012,-0.0168 -0.031,-0.0231 -0.051,-0.0231 -0.014,0 -0.026,0.0039 -0.035,0.0121 -0.034,0.0262 -0.053,0.0622 -0.053,0.1012 0,0.032 0.009,0.0559 0.026,0.077 z m 66.923,-15.1321 c 0.362,0.5418 0.53,1.134 0.532,1.6661 -0.002,0.4867 -0.143,0.9328 -0.454,1.225 -0.371,0.4179 -0.775,0.5097 -1.005,0.5097 -0.006,0 -0.01,0 -0.015,0 -0.08,0 -0.136,-0.0078 -0.136,-0.0078 -0.002,0 -0.008,0 -0.018,0 -0.265,0.0149 -0.624,0.075 -0.78,0.2828 -0.022,0.0262 -0.038,0.0551 -0.038,0.1082 0,0.1809 0.203,0.536 0.78,0.5731 0.048,0.0078 0.052,0.0078 0.08,0.0078 0.275,0.0019 1.232,-0.1731 1.758,-1.0578 0.232,-0.3551 0.398,-0.8371 0.398,-1.32 0,-0.148 -0.018,-0.2992 -0.047,-0.4511 -0.113,-0.6141 -0.422,-1.2289 -0.84,-1.6922 -0.46,-0.5059 -0.999,-0.8719 -1.527,-1.152 0.47,0.3602 0.933,0.793 1.312,1.3082 z m 7.459,4.7489 c 0.421,0.8121 0.614,1.6629 0.614,2.4422 -0.002,1.0238 -0.332,1.9378 -0.991,2.4308 -0.605,0.5469 -1.179,0.6789 -1.565,0.6789 -0.003,0 -0.005,0 -0.009,0 -0.115,0.002 -0.217,-0.0109 -0.291,-0.025 -0.084,-0.0148 -0.135,-0.0297 -0.135,-0.025 -0.091,-0.0047 -0.195,-0.0078 -0.305,-0.0078 -0.45,-0.0019 -0.978,0.0731 -1.3,0.4039 -0.084,0.075 -0.139,0.193 -0.139,0.359 0,0.4262 0.389,1.084 1.403,1.2602 0.047,0.0168 0.188,0.0468 0.381,0.0429 0.71,0 2.199,-0.2601 3.21,-1.5949 0.579,-0.693 1.016,-1.7133 1.014,-2.7551 0,-0.1359 -0.007,-0.2691 -0.021,-0.407 -0.078,-1.1332 -0.514,-2.3 -1.177,-3.2149 -1.222,-1.6863 -2.914,-2.6832 -4.26,-3.3992 1.228,0.9129 2.633,2.1942 3.571,3.811 z m 10.807,9.1449 c 0.477,1.2383 0.695,2.4941 0.695,3.673 -0.002,2.3381 -0.854,4.3861 -2.353,5.2651 -1.045,0.752 -1.967,0.958 -2.646,0.958 -0.006,0 -0.011,0 -0.017,0 -0.322,0 -0.601,-0.05 -0.802,-0.102 -0.209,-0.052 -0.334,-0.106 -0.336,-0.102 -0.377,-0.058 -0.85,-0.125 -1.338,-0.125 -0.691,0 -1.405,0.134 -1.957,0.586 -0.26,0.182 -0.42,0.527 -0.42,0.966 0.002,0.923 0.712,2.193 2.555,2.728 0.125,0.071 0.723,0.213 1.514,0.207 1.545,0 3.932,-0.451 5.847,-2.465 1.43,-1.379 2.6,-3.596 2.601,-5.932 -0.004,-0.028 -0.001,-0.044 0.003,-0.053 0.006,-0.137 0.007,-0.273 0.007,-0.41 0.003,-2.0718 -0.587,-4.2261 -1.599,-6.014 -2.219,-3.893 -5.713,-6.2571 -8.219,-7.941 -0.57,-0.37 -1.097,-0.7 -1.578,-0.9961 -0.021,-0.011 -0.043,-0.0239 -0.064,-0.036 2.442,1.961 6.147,5.3621 8.107,9.793 z m 9.432,67.7071 c -4.705,1.94 -9.594,2.799 -14.485,2.799 -10.171,0 -20.353,-3.721 -28.966,-9.187 -0.923,-0.644 -1.95,-1.241 -3.022,-1.752 3.908,5.993 10.164,10.296 16.981,12.381 5.045,1.541 10.393,2.058 15.667,1.626 0.1,-0.062 0.196,-0.115 0.297,-0.182 l 0.099,0.149 c 0.665,-0.061 1.331,-0.132 1.993,-0.222 1.61,-0.558 3.236,-0.881 4.803,-0.94 8.276,-2.098 15.906,-6.613 21.297,-13.298 1.779,-2.181 3.256,-4.571 4.457,-7.093 -4.343,7.184 -11.324,12.668 -19.121,15.719 z m -26.494,9.173 c -0.006,0.063 -0.009,0.127 -0.01,0.193 0,0.338 0.076,0.753 0.235,1.246 0.325,1.028 1.353,1.56 2.091,1.56 0.002,0 0.004,0 0.006,0 0.508,-0.017 0.769,-0.192 0.773,-0.56 0,-0.098 -0.019,-0.216 -0.068,-0.354 -0.174,-0.618 -1.752,-1.535 -3.027,-2.085 z m -5.465,5.879 c -0.015,-1.213 -0.619,-2.127 -1.756,-2.128 -0.172,0 -0.356,0.018 -0.555,0.065 -0.193,0.177 -0.283,0.428 -0.284,0.759 -0.005,0.668 0.413,1.593 1.013,2.323 0.315,0.388 0.681,0.717 1.049,0.941 0.089,-0.179 0.181,-0.383 0.273,-0.612 0.176,-0.452 0.26,-0.914 0.26,-1.348 z m 65.194,-41.61 c -2.474,-0.008 -4.882,0.798 -5.698,2.222 0.312,0.407 0.838,0.598 1.519,0.6 1.173,0.002 2.73,-0.605 3.966,-1.524 0.505,-0.374 0.954,-0.797 1.31,-1.248 -0.362,-0.033 -0.729,-0.05 -1.097,-0.05 z m 4.43,7.252 c -0.521,0 -1.069,0.079 -1.634,0.244 -1.328,0.394 -2.627,1.369 -3.737,2.304 0.294,0.486 0.669,0.664 1.147,0.67 1.082,0.015 2.682,-1.107 3.952,-2.555 0.19,-0.211 0.372,-0.431 0.546,-0.654 -0.092,-0.006 -0.181,-0.008 -0.274,-0.009 z m 1.563,7.891 c -0.353,0 -0.722,0.107 -1.111,0.373 -0.747,0.51 -1.002,0.997 -1,1.367 0.004,0.622 0.768,1.199 1.826,1.2 0.711,-0.001 1.51,-0.262 2.186,-0.915 0.148,-0.142 0.285,-0.286 0.413,-0.433 -0.622,-0.903 -1.454,-1.617 -2.314,-1.592 z m 29.449,-95.1179 c 0.002,2.384 -1.534,3.668 -2.77,3.6719 -0.323,0 -0.63,-0.091 -0.874,-0.284 -1.201,-0.8379 -1.414,-2.4148 -1.537,-3.3289 -0.012,-0.0281 -0.004,-0.0379 -0.006,-0.0672 0,-0.0598 0.004,-0.1269 0.004,-0.2199 -0.006,-0.5051 -0.096,-1.6621 -1.637,-2.8789 -0.713,-0.677 -1.806,-1.0332 -3.071,-1.0332 -1.698,0 -3.697,0.6383 -5.413,1.9511 -2.883,2.4282 -4.865,5.7282 -6.153,8.4219 -0.644,1.3492 -1.115,2.543 -1.443,3.4012 -0.164,0.432 -0.293,0.7769 -0.389,1.0199 -0.05,0.1219 -0.089,0.218 -0.129,0.293 -0.066,0.066 0.004,0.148 -0.265,0.214 -0.004,0 -0.005,-0.0019 -0.008,-0.0019 -0.008,0.5418 -0.032,1.0848 -0.072,1.6258 0.334,-0.927 0.795,-1.884 1.488,-2.7778 0.748,-0.9582 1.8,-1.748 2.949,-2.1679 0.543,-0.225 1.127,-0.3211 1.693,-0.3211 0.7,0 1.374,0.1469 1.942,0.3941 2.163,0.857 2.754,2.8957 2.765,3.3727 0,0.0101 0.003,0.0211 0,0.0371 0.011,0.0769 0.014,0.184 0.014,0.284 0,1.1789 -0.757,1.8832 -1.443,1.889 -0.151,0.0039 -0.301,-0.039 -0.43,-0.1179 -0.717,-0.3969 -0.916,-1.2391 -1.035,-1.7059 -0.047,-0.1902 0.066,-0.7961 -0.984,-1.4883 -0.321,-0.2398 -0.744,-0.364 -1.237,-0.364 -0.927,0 -2.078,0.4421 -2.99,1.3121 -1.342,1.409 -2.179,3.2269 -2.689,4.6929 -0.256,0.734 -0.433,1.3793 -0.553,1.8411 -0.04,0.1589 -0.074,0.2871 -0.104,0.4011 0.512,-0.4511 1.159,-0.784 1.833,-0.9101 0.179,-0.0418 0.367,-0.0621 0.556,-0.0621 0.574,0 1.119,0.1832 1.536,0.4531 1.068,0.6422 1.277,1.739 1.281,2.1281 -0.002,0.0508 -0.002,0.0859 -0.016,0.1399 -0.036,0.721 -0.539,1.1531 -0.998,1.1539 -0.138,0 -0.278,-0.0438 -0.384,-0.1399 -0.401,-0.3191 -0.426,-0.8371 -0.452,-1.1101 l 0.004,0 -0.007,-0.018 c 0.003,-0.0637 0.009,-0.0727 0.009,-0.1277 -0.005,-0.1352 -0.028,-0.3903 -0.386,-0.711 -0.186,-0.198 -0.509,-0.318 -0.902,-0.318 -0.445,0 -0.966,0.1489 -1.427,0.4637 -0.855,0.6422 -1.484,1.5653 -1.903,2.3293 -0.209,0.3809 -0.367,0.7219 -0.474,0.9688 -0.057,0.123 -0.1,0.2242 -0.134,0.2972 -0.018,0.0368 -0.031,0.066 -0.048,0.0969 -0.038,0.0168 0.009,0.0551 -0.102,0.1008 -0.005,0.0031 -0.011,0.007 -0.019,0.0113 -0.025,0.011 -0.052,0.0188 -0.082,0.0207 -0.004,0.0012 -0.006,0.002 -0.01,0.002 -0.017,0 -0.033,-0.002 -0.048,-0.0039 -0.025,-0.0059 -0.047,-0.0231 -0.07,-0.0379 -0.682,1.2691 -1.487,2.4851 -2.419,3.6281 -4.784,6.1047 -12.444,9.6879 -20.132,9.7758 -5.762,0.1121 -11.469,-1.4231 -16.497,-4.175 1.79,1.334 3.512,2.7472 5.145,4.25 0.686,0.443 1.428,0.9031 2.23,1.3609 4.62,2.6403 11.092,5.2793 18.514,5.277 4.891,0 10.195,-1.143 15.661,-4.1918 5.458,-3.041 8.849,-4.2039 11.046,-4.2071 3.387,0 3.848,2.8051 4.405,5.5579 0.58,2.7863 1.251,5.5471 5.023,5.8661 l -0.016,0.216 c -3.918,-0.321 -4.662,-3.2689 -5.22,-6.036 -0.581,-2.7981 -0.985,-5.3848 -4.192,-5.384 -2.119,-0.0028 -5.496,1.1422 -10.939,4.1769 -5.497,3.0703 -10.843,4.2223 -15.768,4.2223 -8.185,-0.0012 -15.205,-3.1813 -19.889,-6.0621 3.729,3.5719 6.955,7.6289 9.436,12.2509 -0.007,-0.043 -0.019,-0.086 -0.025,-0.128 0.009,0.052 0.026,0.101 0.037,0.152 0.383,0.714 0.761,1.429 1.108,2.172 0.136,0.286 0.261,0.579 0.388,0.87 1.545,1.841 3.968,2.904 6.346,2.439 3.5,-0.236 5.959,-4.641 4.379,-7.917 1.741,3.183 -0.484,7.917 -4.309,8.403 -2.373,0.342 -4.653,-0.683 -6.169,-2.37 0.538,1.273 1.004,2.572 1.411,3.888 2.514,4.464 7.58,7.438 12.735,6.536 6.611,-0.34 11.068,-8.541 8.247,-14.518 2.981,5.889 -1.244,14.422 -8.185,15.004 -3.36,0.353 -6.877,-0.556 -9.473,-2.719 -1.25,-1.131 -2.352,-2.446 -3.195,-3.899 0.463,1.548 0.835,3.122 1.129,4.709 0.193,0.383 0.398,0.76 0.615,1.129 l 0.256,-0.033 c 0.027,0.21 0.068,0.41 0.103,0.614 1.52,2.416 3.491,4.565 5.635,6.38 4.363,3.365 10.145,4.611 15.528,3.834 11.044,-0.852 18.203,-14.733 13.217,-24.536 5.143,9.712 -1.776,23.918 -13.147,25.02 -5.524,0.713 -11.373,-0.649 -15.748,-4.125 -2.074,-1.81 -3.965,-3.91 -5.432,-6.251 1.076,5.62 4.84,8.903 8.201,10.271 2.483,1.009 3.504,2.347 3.504,3.723 -0.01,0.592 -0.197,1.171 -0.508,1.715 2.373,0.372 4.475,1.476 4.932,3.451 0.031,0.144 0.045,0.293 0.045,0.447 -0.022,0.945 -0.549,2.153 -1.337,3.314 2.79,0.552 4.68,3.211 4.685,6.017 0.002,1.308 -0.412,2.651 -1.33,3.824 0.494,0.809 0.816,1.712 0.916,2.417 0.02,0.18 0.031,0.351 0.031,0.521 -0.02,2.225 -1.709,3.973 -1.686,5.895 0,0.095 0.004,0.191 0.014,0.287 0.194,2.018 0.852,2.416 1.735,2.704 0.888,0.275 2.076,0.293 2.971,1.38 0.474,0.583 0.682,1.136 0.681,1.66 -0.061,1.91 -2.502,3.142 -2.443,4.681 0,0.168 0.027,0.34 0.085,0.524 0.325,1.017 1.209,1.188 2.157,1.353 0.89,0.138 1.955,0.307 1.959,1.497 -0.002,0.496 -0.178,1.131 -0.578,2.011 l -0.397,-0.182 -0.002,0.002 c 0.389,-0.85 0.54,-1.444 0.539,-1.831 0.005,-0.813 -0.617,-0.885 -1.594,-1.066 -0.922,-0.15 -2.089,-0.369 -2.5,-1.65 -0.074,-0.222 -0.107,-0.445 -0.107,-0.658 0.06,-1.924 2.502,-3.159 2.441,-4.681 -10e-4,-0.408 -0.15,-0.853 -0.58,-1.381 -0.754,-0.927 -1.768,-0.948 -2.76,-1.24 -0.996,-0.277 -1.89,-0.976 -2.045,-3.086 -0.009,-0.108 -0.014,-0.216 -0.014,-0.324 0.022,-2.164 1.706,-3.906 1.686,-5.895 0,-0.151 -0.009,-0.307 -0.027,-0.466 -0.07,-0.608 -0.357,-1.394 -0.784,-2.113 -0.112,0.123 -0.23,0.245 -0.354,0.363 -0.758,0.733 -1.673,1.039 -2.489,1.039 -1.185,-0.003 -2.244,-0.64 -2.262,-1.638 0,-0.579 0.38,-1.177 1.188,-1.729 0.451,-0.308 0.914,-0.45 1.359,-0.449 1.05,0.023 1.946,0.746 2.604,1.669 0.795,-1.069 1.146,-2.265 1.147,-3.438 -10e-4,-2.684 -1.858,-5.198 -4.527,-5.621 -1.396,1.889 -3.429,3.552 -5.011,3.595 -0.666,0.006 -1.273,-0.343 -1.623,-1.065 l -0.077,-0.153 0.132,-0.111 c 1.152,-0.977 2.532,-2.057 4.033,-2.505 0.607,-0.178 1.195,-0.261 1.759,-0.261 0.198,0 0.391,0.009 0.582,0.03 0.833,-1.172 1.391,-2.397 1.385,-3.24 0,-0.127 -0.012,-0.245 -0.036,-0.354 -0.359,-1.732 -2.404,-2.811 -4.761,-3.142 -1.274,1.8 -3.87,3.129 -5.779,3.151 -0.817,0.001 -1.553,-0.262 -1.963,-0.905 l -0.068,-0.104 0.058,-0.115 c 0.924,-1.755 3.528,-2.566 6.152,-2.575 0.462,0.004 0.929,0.028 1.387,0.083 0.344,-0.539 0.544,-1.101 0.542,-1.652 0,-1.131 -0.821,-2.324 -3.233,-3.316 -3.665,-1.487 -7.787,-5.187 -8.629,-11.555 l 0.067,-0.008 c -0.156,-0.275 -0.304,-0.556 -0.447,-0.836 0.777,4.371 0.942,8.855 0.591,13.267 -0.211,3.168 -0.757,6.335 -1.648,9.396 l 0.065,0.023 c -0.096,0.271 -0.212,0.534 -0.315,0.802 -1.415,4.512 -3.596,8.773 -6.609,12.442 -5.358,6.592 -12.843,11.069 -20.969,13.222 l 0,0.225 c -0.057,0 -0.113,0 -0.168,0 -0.301,0 -0.61,0.03 -0.914,0.051 -1.246,0.298 -2.508,0.535 -3.775,0.723 -2.544,0.808 -5.068,2.217 -7.212,4.106 -3.479,3.067 -5.953,7.366 -5.953,12.329 0,0.211 0.004,0.424 0.015,0.631 0.339,8.047 6.97,14.34 14.945,14.34 0.215,0 0.427,-0.002 0.64,-0.014 6.416,-0.273 11.43,-5.555 11.43,-11.911 0,-0.169 -0.004,-0.341 -0.011,-0.517 -0.216,-5.103 -4.424,-9.096 -9.485,-9.096 -0.138,0 -0.275,0.001 -0.414,0.007 -4.055,0.171 -7.235,3.52 -7.233,7.545 -0.002,0.109 0,0.217 0.007,0.322 0.136,3.228 2.796,5.752 5.991,5.752 0.086,0 0.172,-0.001 0.254,-0.006 l 0.029,0.437 c -0.098,0.006 -0.193,0.006 -0.283,0.006 -3.432,0 -6.282,-2.705 -6.43,-6.168 -0.005,-0.113 -0.007,-0.228 -0.007,-0.343 0,-4.259 3.361,-7.801 7.658,-7.983 0.14,-0.005 0.282,-0.008 0.428,-0.008 5.295,0 9.695,4.177 9.923,9.518 0.006,0.18 0.01,0.359 0.01,0.534 0,6.592 -5.196,12.066 -11.845,12.348 -0.221,0.012 -0.444,0.015 -0.662,0.015 -8.211,0 -15.032,-6.477 -15.382,-14.757 -0.011,-0.218 -0.015,-0.436 -0.015,-0.652 0.012,-7.548 5.532,-13.555 11.693,-16.192 -0.256,0.026 -0.513,0.046 -0.77,0.069 -2.439,1.563 -4.492,1.956 -6.285,1.955 -1.195,-0.002 -2.273,-0.166 -3.288,-0.259 -0.367,-0.029 -0.712,-0.048 -1.028,-0.048 -1.292,0.024 -2.03,0.264 -2.294,0.912 1.335,0.546 2.976,1.467 3.341,2.371 0.062,0.176 0.094,0.344 0.094,0.499 -0.002,0.672 -0.602,0.999 -1.213,0.999 -0.92,-0.004 -2.104,-0.62 -2.513,-1.862 -0.171,-0.524 -0.257,-0.98 -0.257,-1.383 0,-0.127 0.01,-0.25 0.029,-0.364 -0.395,-0.152 -0.735,-0.256 -0.956,-0.286 -0.419,-0.07 -0.768,-0.103 -1.054,-0.103 -1.023,0.041 -1.156,0.309 -1.192,0.896 -0.007,0.734 0.475,1.898 0.749,3.05 0.239,1.028 0.698,2.096 0.704,3.043 0.021,1.076 -0.705,1.945 -2.705,2.147 -0.06,0.009 -0.124,0.011 -0.182,0.011 -0.256,-0.007 -0.511,-0.068 -0.764,-0.171 -0.484,0.753 -1.082,1.093 -1.823,1.086 -0.462,-0.001 -0.962,-0.122 -1.529,-0.308 -1.203,-0.394 -2.46,-0.67 -3.57,-0.67 -2.033,0.033 -3.494,0.824 -3.523,3.616 0,0.031 0,0.062 0.003,0.095 -0.131,1.085 -0.883,1.453 -1.645,1.423 -0.842,-0.004 -1.822,-0.303 -2.588,-0.299 -0.791,0.036 -1.265,0.198 -1.383,1.423 l -0.436,-0.032 -0.002,0.002 c 0.063,-1.392 0.922,-1.867 1.821,-1.832 0.864,0.004 1.845,0.303 2.588,0.302 0.681,-0.031 1.06,-0.16 1.208,-1.012 -0.004,0.003 -0.004,-0.031 -0.004,-0.07 -0.004,-1.484 0.426,-2.518 1.159,-3.166 0.731,-0.647 1.725,-0.888 2.802,-0.888 1.181,0 2.477,0.288 3.706,0.691 0.548,0.181 1.009,0.286 1.393,0.286 0.578,-0.008 1.017,-0.211 1.427,-0.844 -1.229,-0.728 -2.254,-2.386 -2.283,-3.644 -0.002,-0.436 0.138,-0.852 0.482,-1.131 l 0.037,-0.031 0.049,-0.012 c 0.25,-0.063 0.486,-0.09 0.709,-0.09 1.428,0.003 2.191,1.221 2.193,2.568 0,0.49 -0.094,1.006 -0.287,1.506 -0.092,0.239 -0.187,0.457 -0.287,0.654 0.189,0.073 0.375,0.112 0.547,0.11 0.045,0 0.084,0 0.122,-0.007 1.938,-0.256 2.303,-0.857 2.325,-1.713 0.005,-0.804 -0.435,-1.868 -0.689,-2.944 -0.258,-1.111 -0.755,-2.256 -0.763,-3.149 -0.002,-0.369 0.097,-0.727 0.377,-0.977 0.278,-0.244 0.688,-0.356 1.254,-0.356 0.319,0 0.69,0.034 1.126,0.106 0.253,0.051 0.603,0.159 1,0.304 0.363,-0.857 1.372,-1.191 2.697,-1.194 0.332,0.001 0.69,0.02 1.067,0.05 1.035,0.093 2.095,0.256 3.249,0.256 1.55,-0.002 3.268,-0.29 5.314,-1.438 -5.097,0.324 -10.245,-0.239 -15.11,-1.738 -6.973,-2.157 -13.361,-6.63 -17.268,-12.836 -1.862,-0.84 -3.855,-1.397 -5.738,-1.397 -1.944,0 -3.762,0.581 -5.214,2.032 -1.637,1.231 -2.374,3.145 -2.376,5.189 0,2.147 0.821,4.433 2.272,6.166 l -0.168,0.141 c -1.485,-1.775 -2.322,-4.104 -2.322,-6.307 0,-2.094 0.759,-4.083 2.452,-5.354 1.485,-1.486 3.369,-2.085 5.356,-2.085 1.828,0.001 3.74,0.515 5.541,1.293 -0.383,-0.629 -0.75,-1.268 -1.08,-1.93 -3.699,-7.266 -4.713,-16.063 -1.83,-23.784 0.739,-2.097 1.773,-4.078 3.033,-5.903 1.193,-2.369 2.998,-4.246 5.142,-5.525 2.672,-2.141 5.758,-3.758 9.081,-4.641 7.937,-2.248 16.484,-0.483 23.728,3.113 -7.256,-3.576 -15.801,-5.309 -23.708,-3.043 -3.087,0.831 -5.963,2.296 -8.488,4.222 1.956,-1.031 4.151,-1.587 6.395,-1.587 1.884,0 3.804,0.391 5.636,1.215 4.081,1.836 6.503,5.838 6.503,10.017 0,1.49 -0.309,3.002 -0.955,4.444 -1.461,3.246 -4.662,5.167 -8.022,5.167 -1.216,0 -2.455,-0.251 -3.636,-0.786 -2.642,-1.188 -4.21,-3.777 -4.21,-6.48 0,-0.965 0.199,-1.943 0.619,-2.878 0.948,-2.108 3.024,-3.352 5.204,-3.352 0.789,0 1.593,0.163 2.361,0.507 1.719,0.772 2.741,2.46 2.741,4.219 0,0.63 -0.129,1.267 -0.404,1.875 -0.62,1.379 -1.977,2.194 -3.403,2.194 -0.516,0 -1.042,-0.106 -1.544,-0.336 -1.128,-0.506 -1.8,-1.612 -1.798,-2.772 -0.002,-0.411 0.084,-0.831 0.266,-1.232 0.408,-0.911 1.306,-1.448 2.247,-1.448 0.342,0 0.69,0.073 1.02,0.218 0.753,0.34 1.199,1.078 1.199,1.848 0,0.277 -0.056,0.556 -0.174,0.82 -0.277,0.613 -0.88,0.977 -1.515,0.976 -0.229,0.001 -0.463,-0.045 -0.686,-0.149 -0.507,-0.229 -0.812,-0.729 -0.812,-1.25 0,-0.186 0.037,-0.378 0.121,-0.561 0.189,-0.421 0.606,-0.67 1.041,-0.67 0.158,0 0.316,0.034 0.468,0.099 0.357,0.164 0.569,0.513 0.566,0.879 0,0.133 -0.026,0.264 -0.081,0.389 -0.136,0.296 -0.43,0.475 -0.738,0.475 -0.109,0 -0.227,-0.023 -0.339,-0.076 -0.251,-0.112 -0.405,-0.362 -0.405,-0.628 0,-0.093 0.019,-0.19 0.062,-0.282 0.1,-0.221 0.319,-0.351 0.545,-0.351 0.082,0 0.164,0.018 0.236,0.047 l -0.162,0.407 c -0.029,-0.011 -0.055,-0.015 -0.074,-0.015 -0.062,0 -0.121,0.036 -0.144,0.092 -0.018,0.037 -0.024,0.068 -0.024,0.102 0,0.095 0.055,0.187 0.151,0.229 0.05,0.028 0.099,0.037 0.154,0.037 0.141,0 0.277,-0.082 0.338,-0.219 0.031,-0.066 0.045,-0.136 0.045,-0.207 -0.002,-0.199 -0.116,-0.39 -0.311,-0.479 -0.093,-0.041 -0.19,-0.06 -0.287,-0.06 -0.271,0 -0.526,0.153 -0.641,0.411 -0.057,0.128 -0.082,0.253 -0.082,0.381 0,0.353 0.205,0.694 0.556,0.85 0.163,0.077 0.334,0.111 0.503,0.113 0.469,-0.002 0.912,-0.269 1.113,-0.718 0.093,-0.208 0.138,-0.426 0.139,-0.642 -0.001,-0.601 -0.35,-1.181 -0.94,-1.446 -0.275,-0.121 -0.56,-0.182 -0.842,-0.182 -0.774,0 -1.511,0.444 -1.848,1.192 -0.155,0.343 -0.227,0.699 -0.228,1.05 10e-4,0.991 0.575,1.938 1.542,2.373 0.443,0.203 0.906,0.296 1.363,0.297 1.26,-0.001 2.459,-0.72 3.004,-1.936 0.246,-0.549 0.365,-1.125 0.365,-1.695 0,-1.592 -0.924,-3.119 -2.482,-3.82 -0.709,-0.317 -1.454,-0.468 -2.182,-0.468 -2.014,0 -3.929,1.15 -4.805,3.092 -0.393,0.881 -0.58,1.797 -0.58,2.7 0,2.536 1.471,4.966 3.951,6.08 1.123,0.509 2.3,0.746 3.457,0.746 3.195,0 6.237,-1.825 7.623,-4.908 0.62,-1.383 0.915,-2.833 0.915,-4.263 0,-4.012 -2.324,-7.856 -6.245,-9.617 -1.774,-0.798 -3.63,-1.175 -5.455,-1.176 -5.035,0.001 -9.831,2.877 -12.015,7.738 l -0.364,-0.163 c -1.099,1.683 -2.002,3.496 -2.667,5.399 -2.843,7.69 -1.808,16.425 1.888,23.636 0.377,0.75 0.799,1.475 1.244,2.181 1.197,0.544 2.338,1.204 3.358,1.912 8.582,5.446 18.726,9.151 28.843,9.151 4.866,0 9.723,-0.853 14.402,-2.782 8.467,-3.312 15.966,-9.501 20.133,-17.618 1.698,-4.199 2.665,-8.707 2.954,-13.233 0.408,-5.342 0.054,-10.777 -1.233,-15.971 -0.221,-0.661 -0.405,-1.337 -0.549,-2.025 -0.586,-1.955 -1.311,-3.868 -2.187,-5.721 -5.869,-12.4928 -17.215,-20.9978 -29.416,-27.058 -3.289,-1.1258 -6.518,-2.6101 -9.618,-4.2558 -1.48,-0.5852 -2.966,-1.152 -4.462,-1.6883 -1.799,0.2742 -3.61,0.466 -5.423,0.6222 4.872,1.643 9.705,3.4989 14.335,5.7161 0.148,-0.1903 0.367,-0.3211 0.625,-0.3211 0.443,0 0.803,0.3621 0.803,0.805 0,0.0719 -0.024,0.1368 -0.04,0.2028 6.899,3.4472 13.302,7.7593 18.67,13.4582 0.225,-0.1352 0.487,-0.218 0.767,-0.218 0.821,0 1.487,0.666 1.487,1.4899 0,0.3339 -0.113,0.639 -0.3,0.889 1.605,1.8942 3.066,3.932 4.357,6.083 0.126,-0.058 0.262,-0.094 0.41,-0.094 0.545,0 0.988,0.443 0.988,0.989 0,0.336 -0.177,0.617 -0.435,0.797 2.117,3.886 3.692,8.085 4.603,12.396 0.294,0.03 0.528,0.269 0.528,0.572 0,0.222 -0.13,0.41 -0.315,0.507 0.681,3.675 0.875,7.417 0.51,11.107 0.375,0.068 0.664,0.381 0.664,0.774 0,0.444 -0.359,0.803 -0.803,0.803 -0.016,0 -0.033,-0.008 -0.05,-0.011 -0.558,3.917 -1.755,7.752 -3.699,11.357 -1.168,2.488 -2.758,4.737 -4.65,6.699 0.031,0.071 0.05,0.15 0.05,0.233 0,0.321 -0.26,0.58 -0.58,0.58 -0.085,0 -0.164,-0.019 -0.237,-0.051 -3.88,3.703 -8.886,6.241 -14.166,7.147 -0.957,0.188 -1.927,0.305 -2.902,0.366 -0.078,0.36 -0.385,0.637 -0.77,0.637 -0.367,0 -0.666,-0.254 -0.759,-0.59 -2.977,-0.007 -5.95,-0.587 -8.703,-1.69 -0.09,0.205 -0.293,0.348 -0.532,0.348 -0.32,0 -0.58,-0.26 -0.58,-0.582 0,-0.078 0.016,-0.153 0.045,-0.221 -2.906,-1.342 -5.509,-3.3 -7.527,-5.824 -1.436,1.103 -4.039,-0.022 -5.402,-2.26 -0.454,-0.743 -1.18,-2.639 -0.788,-4.295 0,0 1.321,3.005 4.277,3.081 0,0 0.666,-0.5 -0.636,-2.199 0,0 5.545,0.449 3.149,4.957 -0.161,0.301 -0.365,0.533 -0.596,0.713 2.028,2.517 4.635,4.465 7.543,5.794 0.093,-0.19 0.287,-0.326 0.515,-0.326 0.321,0 0.581,0.261 0.581,0.58 0,0.069 -0.016,0.132 -0.038,0.193 2.748,1.093 5.713,1.661 8.677,1.659 -0.009,-0.047 -0.029,-0.091 -0.029,-0.14 0,-0.444 0.36,-0.804 0.803,-0.804 0.444,0 0.803,0.36 0.803,0.804 0,0.03 -0.013,0.057 -0.016,0.085 0.963,-0.065 1.924,-0.184 2.868,-0.373 5.256,-0.926 10.219,-3.455 14.062,-7.141 -0.133,-0.107 -0.224,-0.263 -0.224,-0.448 0,-0.321 0.26,-0.583 0.582,-0.583 0.183,0 0.34,0.092 0.447,0.226 1.863,-1.95 3.428,-4.186 4.576,-6.657 1.924,-3.595 3.102,-7.417 3.644,-11.317 -0.312,-0.109 -0.54,-0.4 -0.54,-0.75 0,-0.414 0.318,-0.742 0.72,-0.785 0.35,-3.666 0.145,-7.38 -0.541,-11.025 -0.004,0 -0.007,0.002 -0.013,0.002 -0.323,0 -0.582,-0.261 -0.582,-0.58 0,-0.248 0.154,-0.456 0.373,-0.54 -0.924,-4.279 -2.504,-8.441 -4.621,-12.293 -0.088,0.026 -0.178,0.056 -0.274,0.056 -0.545,0 -0.988,-0.443 -0.988,-0.988 0,-0.284 0.123,-0.536 0.314,-0.717 -1.284,-2.126 -2.736,-4.1418 -4.332,-6.0118 -0.258,0.2149 -0.586,0.3496 -0.948,0.3496 -0.822,0 -1.489,-0.6668 -1.489,-1.4878 0,-0.4118 0.169,-0.786 0.439,-1.0559 -5.349,-5.6352 -11.722,-9.8961 -18.595,-13.2992 -0.145,0.1383 -0.338,0.225 -0.555,0.225 -0.443,0 -0.804,-0.359 -0.804,-0.8028 0,-0.0242 0.013,-0.0449 0.015,-0.0679 -4.977,-2.3653 -10.185,-4.3153 -15.438,-6.0321 -2.163,0.1539 -4.324,0.2289 -6.478,0.2309 3.787,1.3762 7.537,2.8379 11.215,4.4801 l 0.019,-0.027 10e-4,0 c 0.005,0.0051 0.011,0.0098 0.015,0.0141 0.002,0.0019 0.005,0.0019 0.006,0.0039 -0.006,-0.0059 -0.012,-0.0129 -0.02,-0.018 l 0.011,0 c 0.218,0.0981 1.118,0.4739 2.348,1.0918 0.184,0.0961 0.379,0.1992 0.583,0.3071 1.064,0.5109 2.119,1.0449 3.167,1.5949 0.032,-0.0477 0.071,-0.0848 0.1,-0.093 l 0.561,-0.25 -0.186,0.3691 c 0.502,0.2852 2.07,1.1641 4.153,2.5141 0.17,0.1141 0.356,0.2399 0.535,0.3621 7.929,4.811 15.265,11.127 18.754,19.9038 1.953,5.021 2.823,10.723 1.064,15.938 -1.381,4.671 -4.994,8.687 -9.611,10.248 0.118,1.165 -0.945,2.599 -2.518,3.267 -0.618,0.263 -2.147,0.604 -3.367,0.121 0,0 2.441,-0.673 2.832,-2.92 0,0 -0.309,-0.564 -1.752,0.236 0,0 0.965,-4.18 4.137,-1.846 0.414,0.304 0.619,0.7 0.666,1.133 4.605,-1.586 8.179,-5.61 9.529,-10.266 1.724,-5.198 0.824,-10.861 -1.145,-15.847 -2.957,-7.3279 -8.621,-12.9068 -15.064,-17.324 1.562,1.3449 3.105,2.991 4.299,5.0812 1.051,1.859 1.656,4.077 1.656,6.2328 0,0.153 -0.004,0.307 -0.008,0.46 l -0.001,0 c -0.004,2.486 -1.229,4.792 -2.728,6.244 -2.019,2.121 -4.536,2.595 -6.159,2.595 -0.854,-0.006 -1.431,-0.116 -1.68,-0.244 -1.952,-0.559 -2.828,-1.988 -2.826,-3.13 -0.002,-0.542 0.196,-1.032 0.591,-1.315 0.657,-0.534 1.481,-0.674 2.223,-0.676 0.528,0.002 1.023,0.071 1.403,0.131 0.171,0.033 0.478,0.192 1.09,0.197 0.593,-0.002 1.41,-0.171 2.41,-0.886 1.314,-0.757 2.156,-2.66 2.152,-4.8971 0,-1.125 -0.209,-2.3277 -0.664,-3.5039 -1.52,-3.43 -4.116,-6.2449 -6.337,-8.2308 -1.11,-0.993 -2.122,-1.7821 -2.862,-2.3403 -0.37,-0.2797 -0.67,-0.5019 -0.881,-0.6668 -0.008,-0.0082 -0.013,-0.0101 -0.021,-0.0171 -0.3,-0.1571 -0.602,-0.311 -0.903,-0.4668 0.584,0.4878 1.152,1.055 1.648,1.7378 0.709,0.9852 1.172,2.218 1.257,3.4352 0.015,0.143 0.025,0.2949 0.025,0.4449 -0.002,1.166 -0.477,2.2649 -1.11,3.0289 -1.127,1.4762 -2.754,1.761 -3.554,1.761 -0.231,-0.0051 -0.379,-0.018 -0.502,-0.0649 C 445.088,93.4902 444.51,92.677 444.51,92 c -0.002,-0.2578 0.086,-0.507 0.271,-0.675 0.464,-0.4629 1.119,-0.5238 1.603,-0.525 0.12,0 0.229,0.0031 0.325,0.0082 0.119,0.0109 0.191,0.0457 0.406,0.0488 0.293,-0.0031 0.744,-0.0871 1.295,-0.58 0.518,-0.377 0.834,-1.159 0.833,-2.0918 0,-0.7063 -0.177,-1.4922 -0.561,-2.229 -0.973,-1.673 -2.475,-2.9812 -3.737,-3.8832 -0.629,-0.4488 -1.199,-0.8 -1.612,-1.0441 -0.206,-0.1238 -0.372,-0.2219 -0.493,-0.2957 -0.099,-0.1031 -0.151,-0.0473 -0.221,-0.1711 -0.265,-0.116 -0.532,-0.2269 -0.797,-0.3422 0.11,0.1043 0.221,0.209 0.326,0.325 0.472,0.5242 0.815,1.202 0.942,1.902 0.038,0.175 0.056,0.3551 0.056,0.5343 -0.001,0.5797 -0.189,1.134 -0.466,1.554 -0.645,1.0558 -1.733,1.2589 -2.127,1.2609 -0.059,0 -0.102,-0.0039 -0.155,-0.018 -0.711,-0.0359 -1.138,-0.5402 -1.14,-1 -0.002,-0.1379 0.041,-0.2801 0.138,-0.389 0.327,-0.3969 0.843,-0.418 1.116,-0.4411 l 0.234,-0.016 0,0.02 c 0.144,-0.018 0.363,-0.0848 0.627,-0.375 0.205,-0.1848 0.326,-0.5141 0.326,-0.9168 0,-0.4403 -0.142,-0.954 -0.449,-1.4133 -0.637,-0.861 -1.554,-1.4977 -2.312,-1.9239 -0.38,-0.2109 -0.719,-0.371 -0.964,-0.4839 -0.124,-0.0559 -0.224,-0.1 -0.296,-0.1352 -0.037,-0.018 -0.067,-0.032 -0.098,-0.0488 -0.016,-0.036 -0.051,0.0019 -0.095,-0.0922 -0.007,-0.0129 -0.014,-0.0277 -0.022,-0.0508 -0.009,-0.023 -0.013,-0.0449 -0.016,-0.0629 0,-0.0031 0,-0.0051 0,-0.0082 0,-0.0019 0,-0.0051 0,-0.0058 0,-0.0071 0.003,-0.0071 0.003,-0.0133 -2.374,-0.9297 -4.769,-1.8078 -7.179,-2.6559 -0.419,-0.0058 -0.841,0.0031 -1.259,-0.0078 -2.149,-0.0652 -4.293,-0.2023 -6.434,-0.3871 9.185,6.8328 12.657,14.1578 12.658,20.257 0,3.9278 -1.439,7.3399 -3.706,9.7729 -2.268,2.429 -5.367,3.878 -8.681,3.878 -0.827,0 -1.666,-0.089 -2.511,-0.277 l 0.042,-0.186 c 0.831,0.184 1.657,0.272 2.469,0.272 3.258,0 6.306,-1.423 8.542,-3.819 2.234,-2.394 3.655,-5.76 3.655,-9.6409 0.001,-6.0769 -3.495,-13.4312 -12.833,-20.291 -3.748,-0.3371 -7.479,-0.8582 -11.178,-1.5519 4.752,8.9339 5.577,19.8968 1.961,29.3738 -2.826,7.215 -7.568,13.872 -13.766,18.551 -14.50225,14.25786 -35.66172,8.68291 -43.264,1.926 -0.169,0.132 -0.371,0.223 -0.601,0.223 -0.547,0 -0.988,-0.442 -0.988,-0.987 0,-0.177 0.059,-0.334 0.141,-0.479 -0.59,-0.541 -1.168,-1.101 -1.717,-1.697 -3.949,-4.047 -6.2,-9.258 -6.91,-14.702 -0.032,0.002 -0.063,0.009 -0.095,0.009 -0.821,0 -1.489,-0.666 -1.489,-1.489 0,-0.774 0.594,-1.403 1.349,-1.475 -0.165,-5.7011 1.309,-11.4648 4.244,-16.2699 -0.179,-0.1472 -0.3,-0.3621 -0.3,-0.6121 0,-0.4441 0.359,-0.8031 0.802,-0.8031 0.131,0 0.25,0.0383 0.36,0.0941 0.734,-1.055 1.541,-2.0539 2.424,-2.9851 -0.108,-0.1047 -0.174,-0.252 -0.174,-0.4137 0,-0.3203 0.259,-0.582 0.581,-0.582 0.162,0 0.309,0.068 0.414,0.1758 2.141,-2.0539 4.667,-3.734 7.567,-4.8688 -2.894,1.168 -5.4,2.8707 -7.518,4.941 0.069,0.0957 0.118,0.2078 0.118,0.334 0,0.3219 -0.26,0.5809 -0.581,0.5809 -0.124,0 -0.232,-0.0461 -0.325,-0.1121 -0.876,0.939 -1.674,1.9441 -2.397,3.0039 0.199,0.1461 0.336,0.3703 0.336,0.6351 0,0.4442 -0.361,0.8039 -0.805,0.8039 -0.139,0 -0.265,-0.0449 -0.38,-0.1109 -2.875,4.809 -4.277,10.548 -4.057,16.193 0.742,0.084 1.32,0.707 1.32,1.471 0,0.674 -0.451,1.237 -1.064,1.42 0.75,5.38 3.019,10.502 6.939,14.431 0.535,0.594 1.1,1.151 1.678,1.692 0.155,-0.101 0.329,-0.173 0.527,-0.173 0.545,0 0.989,0.442 0.989,0.988 0,0.152 -0.041,0.293 -0.104,0.42 12.002,9.803 31.341,9.179 42.831,-1.47 -3.264,2.438 -6.919,4.337 -10.923,5.462 -5.754,1.596 -11.969,1.676 -17.687,-0.114 -5.718,-1.794 -10.69,-5.774 -13.649,-10.987 -2.927,-5.257 -3.306,-11.665 -1.744,-17.3908 1.629,-5.7141 5.885,-10.8192 11.619,-12.7063 1.225,-0.4148 2.484,-0.6527 3.75,-0.7527 l 0.002,-0.1172 c 0.395,0.0082 0.772,0.034 1.145,0.0649 4.283,-0.0387 8.576,1.5652 11.906,4.248 4.379,3.9563 7.178,10.0422 6.079,15.9861 1.073,-5.949 -1.749,-12.008 -6.128,-15.9318 -2.984,-2.384 -6.737,-3.8961 -10.551,-4.1422 5.663,0.9231 8.396,4.3621 8.414,4.384 1.13,1.4949 1.68,3.2441 1.68,4.975 0,2.4652 -1.109,4.8949 -3.217,6.492 -1.181,0.898 -2.568,1.331 -3.945,1.331 -1.996,0 -3.976,-0.911 -5.279,-2.6328 -0.735,-0.964 -1.09,-2.1023 -1.088,-3.2273 -0.002,-1.602 0.72,-3.1828 2.087,-4.2207 0.766,-0.582 1.673,-0.8652 2.573,-0.8621 1.3,-0.0031 2.593,0.5898 3.441,1.7121 0.48,0.634 0.713,1.3797 0.713,2.116 0,1.0457 -0.47,2.0809 -1.368,2.7609 -0.507,0.386 -1.103,0.57 -1.695,0.57 -0.857,0 -1.705,-0.3891 -2.265,-1.1282 -0.319,-0.4187 -0.472,-0.9129 -0.472,-1.4007 0,-0.693 0.314,-1.3821 0.907,-1.8301 0.338,-0.2559 0.737,-0.3809 1.132,-0.3789 0.571,-0.002 1.14,0.2578 1.513,0.75 0.212,0.2828 0.319,0.616 0.317,0.9429 0.002,0.4688 -0.209,0.9309 -0.61,1.2368 -0.232,0.1773 -0.506,0.2613 -0.771,0.2582 -0.391,0.0031 -0.779,-0.177 -1.033,-0.5129 -0.149,-0.1922 -0.219,-0.4231 -0.219,-0.65 0,-0.3242 0.146,-0.6453 0.423,-0.8551 0.162,-0.1219 0.352,-0.1809 0.543,-0.1809 0.272,0 0.544,0.1227 0.721,0.3578 0.104,0.1422 0.157,0.3032 0.157,0.4672 0,0.2297 -0.104,0.459 -0.3,0.6067 -0.119,0.0922 -0.261,0.1351 -0.396,0.134 -0.199,0.0011 -0.397,-0.0899 -0.525,-0.2618 -0.08,-0.1 -0.118,-0.2261 -0.118,-0.3449 0,-0.173 0.08,-0.341 0.225,-0.4523 0.013,-0.009 0.027,-0.018 0.039,-0.027 -0.028,0.0141 -0.055,0.0301 -0.082,0.0512 -0.162,0.1238 -0.25,0.3121 -0.25,0.5051 0,0.1367 0.043,0.2707 0.131,0.3828 0.169,0.2262 0.426,0.341 0.684,0.3441 0.178,-0.0031 0.353,-0.0551 0.506,-0.1722 0.287,-0.2168 0.436,-0.5469 0.439,-0.8868 -0.003,-0.2359 -0.075,-0.473 -0.23,-0.68 -0.287,-0.3782 -0.723,-0.5739 -1.164,-0.5762 -0.303,0.0023 -0.608,0.0953 -0.868,0.291 -0.478,0.3641 -0.732,0.918 -0.732,1.4813 0,0.398 0.125,0.7957 0.382,1.1347 0.475,0.6281 1.192,0.9563 1.916,0.9563 0.501,0 1.001,-0.1551 1.43,-0.4813 0.784,-0.5929 1.194,-1.4949 1.194,-2.4117 0,-0.6441 -0.203,-1.2941 -0.623,-1.85 -0.764,-1.0102 -1.923,-1.5402 -3.092,-1.5402 -0.808,0 -1.618,0.2519 -2.306,0.7742 -1.257,0.9508 -1.917,2.3988 -1.917,3.8707 0,1.0332 0.327,2.0762 1,2.9633 1.219,1.6088 3.065,2.4558 4.93,2.4578 1.285,-0.002 2.577,-0.402 3.68,-1.239 1.994,-1.513 3.041,-3.8091 3.041,-6.145 0,-1.6391 -0.517,-3.2949 -1.586,-4.7078 0,0.0019 -0.834,-1.057 -2.576,-2.152 -1.743,-1.0953 -4.377,-2.2113 -7.952,-2.2851 l 0.006,-0.1922 c -1.252,0.1062 -2.494,0.3492 -3.701,0.7633 -11.802,4.0097 -15.42,19.6488 -9.666,29.8148 2.942,5.133 7.86,9.035 13.504,10.781 5.641,1.742 11.79,1.637 17.455,0.04 11.512,-3.264 20.198,-13.014 24.41,-23.903 3.588,-9.5199 2.627,-20.518 -2.306,-29.3418 -1.764,-0.3453 -3.522,-0.732 -5.268,-1.1563 1.682,2.3532 3.033,4.9153 3.883,7.7141 0.79,2.6051 1.167,5.3129 1.167,8.0312 -10e-4,7.5208 -2.882,15.1258 -7.88,20.8508 -4.996,5.727 -12.114,9.577 -20.576,9.577 -2.329,0 -4.757,-0.292 -7.272,-0.916 l 0.001,-0.006 c -1.395,-0.316 -2.368,-1.234 -2.902,-1.825 -0.321,-0.358 -0.675,-1.142 -0.753,-2.049 -0.084,-0.972 0.154,-2.089 1.116,-2.936 0.745,-0.651 1.511,-0.959 2.224,-1.036 0.002,0 0.002,0 0.002,0 1.058,-0.115 1.996,0.276 2.582,0.779 0.515,0.442 0.791,1.081 0.846,1.718 0.049,0.584 -0.086,1.171 -0.398,1.607 -0.327,0.459 -0.789,0.68 -1.231,0.728 -0.444,0.047 -0.868,-0.077 -1.121,-0.314 -0.29,-0.268 -0.454,-0.568 -0.481,-0.886 -0.018,-0.223 0.027,-0.455 0.139,-0.689 0.204,-0.433 0.535,-0.565 0.689,-0.604 -0.253,-0.274 -0.535,-0.337 -0.806,-0.31 -0.26,0.028 -0.508,0.145 -0.69,0.258 -0.183,0.111 -0.297,0.213 -0.3,0.216 -0.651,0.519 -0.837,1.199 -0.78,1.882 0.078,0.915 0.604,1.831 1.045,2.329 0.385,0.436 0.836,0.727 1.191,0.91 0.256,0.131 0.456,0.202 0.55,0.233 2.187,0.48 4.31,0.719 6.349,0.719 8.402,0 15.465,-3.819 20.431,-9.51 4.968,-5.691 7.834,-13.2539 7.833,-20.7258 0,-2.7011 -0.374,-5.3902 -1.158,-7.975 -0.862,-2.8472 -2.248,-5.4503 -3.979,-7.8363 -4.432,-1.0847 -8.801,-2.4238 -13.084,-4 -1.596,2.3281 -3.784,4.302 -6.294,5.6633 5.348,3.2367 6.991,6.6988 6.99,9.7168 -0.005,4.6199 -3.819,8.1172 -3.825,8.1262 l -0.129,-0.141 c 10e-4,-0.0012 0.232,-0.2141 0.586,-0.611 1.061,-1.1863 3.179,-3.991 3.177,-7.3742 -10e-4,-2.9539 -1.611,-6.384 -6.999,-9.6109 -2.242,1.1019 -4.588,1.5949 -6.932,1.5949 -5.695,-0.0031 -11.369,-2.8899 -15.486,-6.9231 l 0.132,-0.1339 c 4.088,4.0031 9.724,6.8671 15.354,6.866 2.277,0 4.555,-0.4739 6.732,-1.5231 -1.683,-0.989 -3.722,-1.959 -6.187,-2.8898 -8.014,-3.0219 -12.924,-8.5449 -16.227,-15.2641 -1.043,-2.1211 -1.92,-4.3648 -2.691,-6.684 -2.092,5.3942 -5.4,10.3012 -9.205,14.5649 -5.492,6.1933 -12.051,11.298 -18.898,15.8453 0.043,0.0617 0.087,0.1109 0.13,0.1797 1.004,1.6011 -0.993,3.3601 -3.342,3.4183 -0.671,0.02 -2.22,-0.2261 -3.176,-1.1261 0,0 2.518,0.2761 3.708,-1.6731 0,0 -0.079,-0.639 -1.718,-0.423 0,0 2.329,-3.3629 4.39,-0.3879 6.74,-4.7031 13.163,-9.9512 18.463,-16.218 3.841,-4.5062 7.088,-9.6629 8.978,-15.2422 -1.254,-1.2238 -2.476,-2.4758 -3.668,-3.7578 -0.356,5.3141 -1.838,10.209 -4.977,14.1688 -3.654,4.6113 -9.547,7.9433 -18.478,9.1961 l -0.027,-0.1891 c 8.897,-1.2508 14.736,-4.559 18.355,-9.1258 3.145,-3.9652 4.617,-8.8859 4.95,-14.241 -0.495,-0.5371 -0.987,-1.0742 -1.471,-1.6191 -1.782,5.3871 -5.995,10.1359 -13.862,13.398 0.389,1.027 -0.875,2.0719 -2.367,2.109 -0.458,0.0121 -1.513,-0.1539 -2.166,-0.766 0,0 1.717,0.1851 2.527,-1.143 0,0 -0.053,-0.4348 -1.169,-0.2871 0,0 1.66,-2.409 3.086,-0.1348 0.009,0.0149 0.009,0.0301 0.017,0.0438 7.879,-3.2707 12.047,-8.009 13.787,-13.386 -1.061,-1.1988 -2.103,-2.4117 -3.113,-3.648 -3.727,-4.6637 -7.104,-9.6617 -9.968,-14.9359 0.009,0.4152 0.017,0.8281 0.017,1.2429 10e-4,1.9571 -0.123,3.9102 -0.383,5.834 2.65,3.3223 4.918,7.4633 4.173,11.909 -0.586,4.7383 -4.152,8.6141 -8.44,10.3672 -4.259,1.759 -9.877,0.7859 -12.594,-3.1571 -0.016,-0.0218 -0.03,-0.046 -0.045,-0.0679 l -0.371,0.1699 0,0.0012 c -0.75,-1.627 -2.87,-3.077 -5.009,-3.0711 -0.718,0.0019 -1.439,0.159 -2.117,0.5219 -1.504,0.7992 -2.359,2.3382 -2.361,3.9289 0.002,0.705 0.168,1.4203 0.522,2.0851 0.634,1.1879 1.849,1.8652 3.106,1.8652 0.558,0 1.121,-0.1312 1.649,-0.414 0.935,-0.4961 1.467,-1.4543 1.467,-2.4453 0,-0.436 -0.102,-0.8809 -0.324,-1.2977 -0.39,-0.7332 -1.14,-1.148 -1.918,-1.148 -0.344,0 -0.691,0.0808 -1.018,0.2527 -0.572,0.3043 -0.897,0.8902 -0.899,1.4953 0.002,0.268 0.064,0.5418 0.199,0.793 l -0.383,0.2058 c -0.174,-0.316 -0.252,-0.6621 -0.252,-0.9988 0,-0.7633 0.41,-1.498 1.13,-1.8832 0.389,-0.2058 0.809,-0.3058 1.223,-0.3039 0.932,-0.0019 1.836,0.5008 2.305,1.3801 0.255,0.4848 0.377,1 0.377,1.5047 0,1.1472 -0.617,2.257 -1.701,2.832 -0.59,0.318 -1.229,0.466 -1.855,0.466 -1.411,0 -2.78,-0.7629 -3.492,-2.0969 -0.39,-0.7289 -0.573,-1.5171 -0.573,-2.2921 0,-1.7469 0.941,-3.436 2.591,-4.3157 0.747,-0.398 1.542,-0.5711 2.324,-0.5711 1.903,0.0059 3.725,1.018 4.794,2.3711 -1.889,-3.7621 -0.032,-9.034 4.035,-10.3672 l -0.01,-0.1441 c 0.19,-0.0129 0.367,-0.0168 0.545,-0.0199 3.775,-1.034 7.291,2.5422 7.223,6.1312 1.197,-1.4882 2.172,-3.0972 2.967,-4.7882 -0.381,-0.075 -0.659,-0.1891 -0.785,-0.2899 -0.624,-0.3351 -0.909,-0.8969 -0.909,-1.3762 0.001,-0.3437 0.149,-0.6707 0.456,-0.8078 0.185,-0.0871 0.39,-0.125 0.587,-0.125 0.4,0.0031 0.764,0.141 1.002,0.2328 0.111,0.0532 0.24,0.159 0.551,0.1903 0.613,-1.675 1.068,-3.416 1.388,-5.1961 -0.322,-0.6692 -0.699,-1.2781 -1.062,-1.7899 -0.082,-0.1152 -0.156,-0.2093 -0.236,-0.3132 0.072,0.221 0.129,0.4562 0.162,0.7062 0.013,0.116 0.021,0.234 0.021,0.35 0,0.4008 -0.084,0.8109 -0.25,1.1727 l 0,0 c 0,0.0011 0,0.0031 -0.002,0.0043 0,7e-4 0,0.0027 0,0.0027 l -10e-4,0 c -0.221,0.5281 -0.672,0.9 -1.114,1.0801 0,0 0,0 -10e-4,0.0011 -0.001,0 -0.004,8e-4 -0.006,0.0028 l -10e-4,-0.002 c -0.267,0.1192 -0.529,0.1641 -0.765,0.1641 -0.295,0 -0.55,-0.068 -0.743,-0.143 -0.095,-0.039 -0.175,-0.0801 -0.24,-0.118 l -0.119,-0.0918 -0.002,0.0028 c -0.01,-0.009 -0.017,-0.0168 -0.027,-0.0258 l -0.002,-0.0031 0,0 c -0.258,-0.2172 -0.375,-0.486 -0.375,-0.7239 0.002,-0.2492 0.12,-0.4863 0.363,-0.5593 l 0,-8e-4 c 0.002,-0.0012 0.004,0 0.006,-0.0012 0.002,-8e-4 0.004,-0.0019 0.006,-0.0027 l 0,0.0019 c 0.068,-0.0179 0.136,-0.0289 0.201,-0.0289 0.289,8e-4 0.518,0.1438 0.659,0.227 l 10e-4,0 0.045,0.034 c 0.047,0.0367 0.136,0.125 0.371,0.1277 0.065,0 0.139,-0.007 0.226,-0.0258 l 0.008,-0.0031 0.008,-8e-4 c 0.181,-0.0222 0.394,-0.1722 0.559,-0.423 0.165,-0.2512 0.279,-0.595 0.287,-0.9672 -0.02,-0.7559 -0.289,-1.4961 -0.557,-2.052 -0.132,-0.2808 -0.265,-0.5148 -0.367,-0.6851 -0.05,-0.0867 -0.092,-0.1567 -0.123,-0.209 l -0.039,-0.0727 -0.017,-0.0371 -0.016,-0.0789 10e-4,-0.0031 c -0.31,-0.325 -0.616,-0.6531 -0.93,-0.977 0.099,0.2071 0.187,0.4391 0.226,0.702 0.01,0.0781 0.015,0.1559 0.015,0.2371 0,0.227 -0.046,0.459 -0.136,0.6688 l 0,0 c 0,0.0011 0,0.0031 0,0.0031 -0.002,0.0019 -0.002,0.0031 -0.002,0.0039 l -0.002,0 c -0.131,0.325 -0.397,0.548 -0.66,0.664 -0.002,0.0012 -0.004,0.002 -0.006,0.0032 l 0,-0.0012 c -0.168,0.077 -0.334,0.1051 -0.483,0.1051 -0.174,0 -0.326,-0.0379 -0.438,-0.0821 l -0.146,-0.0668 -0.074,-0.057 -0.003,0.002 c -0.005,-0.0043 -0.007,-0.009 -0.012,-0.0133 l -0.016,-0.0129 0.004,-0.002 c -0.16,-0.1359 -0.243,-0.3101 -0.243,-0.4679 10e-4,-0.1602 0.077,-0.3262 0.259,-0.3871 l -0.001,-0.0039 0.009,-0.002 c 0.001,0 0.001,-0.0019 0.003,-0.0019 l 0,0.0019 0.141,-0.0211 c 0.191,0.0012 0.331,0.0902 0.412,0.1352 l 0,0 0.034,0.025 c 0.024,0.016 0.048,0.048 0.151,0.05 l 0.114,-0.016 0.009,-0.002 0.008,0 c 0.069,-0.0082 0.172,-0.077 0.254,-0.2082 0.082,-0.127 0.139,-0.309 0.141,-0.5039 -0.018,-0.4102 -0.171,-0.8152 -0.324,-1.1199 -0.078,-0.1543 -0.153,-0.2832 -0.211,-0.3782 l -0.072,-0.116 -0.025,-0.048 -0.014,-0.027 -0.009,-0.0418 0,-0.005 -0.005,-0.0301 0.011,-0.0352 0.004,-0.039 0.014,-0.027 c -0.852,-0.884 -1.698,-1.775 -2.505,-2.7137 -2.722,2.6778 -6.229,4.2578 -9.665,4.691 0.295,1.2579 1.014,2.345 1.74,3.1719 0.473,0.5371 0.946,0.9641 1.3,1.2559 0.355,0.2922 0.588,0.4472 0.588,0.448 l -0.106,0.1582 c -0.004,-0.007 -3.018,-2.0082 -3.711,-5.0113 -0.582,0.0641 -1.163,0.1031 -1.736,0.1031 -1.504,-8e-4 -2.954,-0.2441 -4.289,-0.7058 -1.132,-0.1731 -1.907,-0.9153 -2.321,-1.3731 -0.234,-0.2582 -0.49,-0.8289 -0.547,-1.4871 -0.062,-0.7039 0.112,-1.5148 0.811,-2.1289 0.539,-0.4719 1.095,-0.6969 1.613,-0.7519 l 0.001,0 c 0.766,-0.084 1.448,0.2 1.873,0.564 0.374,0.3219 0.573,0.7848 0.613,1.2477 0.036,0.423 -0.061,0.848 -0.288,1.1672 -0.237,0.332 -0.572,0.491 -0.893,0.5269 -0.322,0.0332 -0.63,-0.057 -0.814,-0.2281 -0.21,-0.1957 -0.328,-0.4129 -0.349,-0.643 -0.012,-0.1597 0.021,-0.3297 0.101,-0.5 0.148,-0.3137 0.389,-0.4097 0.5,-0.4367 -0.184,-0.2012 -0.389,-0.2473 -0.586,-0.2262 -0.187,0.0192 -0.367,0.1051 -0.5,0.1871 -0.133,0.0821 -0.215,0.1551 -0.217,0.1579 -0.472,0.3769 -0.607,0.8691 -0.565,1.364 0.056,0.6641 0.437,1.3289 0.757,1.6891 0.279,0.3179 0.607,0.5289 0.865,0.6621 0.177,0.0887 0.315,0.141 0.387,0.166 1.207,0.3707 2.507,0.557 3.848,0.557 0.56,0 1.128,-0.0453 1.698,-0.1082 -0.062,-0.3258 -0.107,-0.6578 -0.107,-1.0039 0,-1.525 0.678,-3.2312 2.568,-4.9941 1.475,-1.377 2.707,-2.7121 3.748,-4.007 -0.933,-1.934 -1.593,-4.0239 -1.818,-6.1641 -2.346,0.7633 -4.989,0.609 -7.234,-0.177 -0.487,0.7411 -1.867,0.809 -2.983,0.1313 -0.391,-0.236 -1.188,-0.9481 -1.407,-1.81603 0,0 1.345,1.08283 2.743,0.40473 0,0 0.19,-0.39496 -0.828,-0.87504 0,0 2.697,-1.12891 2.668,1.55434 -0.002,0.2148 -0.066,0.389 -0.157,0.5457 2.403,0.591 5.009,0.4691 7.14,-0.5059 -0.074,-1.29688 0.011,-2.60508 0.302,-3.90391 0.091,-0.41992 0.207,-0.82695 0.334,-1.23007 -1.271,0.47109 -2.639,0.75312 -4.109,0.7539 -0.838,0 -1.707,-0.08984 -2.607,-0.28203 l 0.041,-0.18672 c 0.886,0.18906 1.742,0.27695 2.566,0.27695 1.498,7.9e-4 2.891,-0.29492 4.183,-0.79218 C 327.857,3.39219 328.949,1.59688 330.288,0 l 1.475,0 c -0.229,0.242188 -0.449,0.490234 -0.664,0.742969 0.211,0.419921 0.436,0.858981 0.674,1.316011 0.077,-0.51601 0.163,-1.03203 0.26,-1.546871 C 331.957,0.333984 331.877,0.167188 331.796,0 l 0.21,0 0.02,0.0421875 L 332.02,0 l 2.572,0 c 0.023,1.68711 0.166,3.28516 0.42,4.80391 0.38,0.68125 0.776,1.37812 1.2,2.09297 C 335.791,4.6082 335.494,2.30195 335.307,0 l 6.045,0 c 0.722,0.585938 1.437,1.18008 2.135,1.79219 C 343.174,1.16719 342.87,0.573047 342.574,0 l 0.215,0 c 0.352,0.676953 0.715,1.39492 1.09,2.15 l 0.211,0.19297 C 343.915,1.57891 343.747,0.791016 343.582,0 l 0.193,0 c 0.182,0.871875 0.369,1.73203 0.563,2.57305 1.063,0.96484 2.095,1.96289 3.092,2.98984 2.707,1.80508 5.894,3.31719 9.002,3.31406 0.947,0 1.886,-0.1457 2.803,-0.45976 -3.538,-3.26016 -7.391,-6.1 -10.905,-8.4031275 L 348.309,0 l 0.339,0 c 3.488,2.29922 7.294,5.11094 10.794,8.34805 2.24,-0.83086 4.337,-2.71993 6.07,-6.19805 l 0.172,0.08516 c -1.721,3.46172 -3.829,5.38984 -6.082,6.25781 2.212,2.06093 4.289,4.29023 6.08,6.66213 2.103,-1.4879 4.159,-3.0711 6.256,-4.5719 5.632,-3.84218 12.5,-5.91523 19.319,-5.45234 6.633,0.4332 13.931,1.55508 19.747,-2.53984 -5.775,4.15 -13.143,3.09218 -19.754,2.71484 -6.799,-0.39688 -13.559,1.71133 -19.119,5.57034 -2.056,1.498 -4.096,3.0988 -6.2,4.614 0.469,0.636 0.926,1.2789 1.351,1.9328 0.892,1.3809 1.784,2.6512 2.675,3.834 3.92,-1.08 7.798,-2.3781 11.606,-3.6968 5.456,-1.8793 10.968,-3.6223 16.601,-4.9403 0.926,-0.1988 1.859,-0.398 2.797,-0.5847 0.549,-0.368 1.087,-0.727 1.607,-1.0633 5.282,-3.4219 9.393,-5.23167 17.208,-5.22971 3.355,0 7.392,0.33203 12.503,1.00898 l -0.025,0.18906 c -5.106,-0.67734 -9.136,-1.0082 -12.478,-1.0082 -7.788,0.00195 -11.831,1.78711 -17.104,5.19997 -0.399,0.2582 -0.807,0.5282 -1.222,0.8051 4.589,-0.9012 9.303,-1.4922 13.968,-0.4832 6.287,1.034 8.588,7.793 13.902,9.9613 5.366,2.1868 11.392,1.2688 16.981,0.3137 -5.578,1.043 -11.573,2.0902 -17.095,-0.0457 -5.529,-2.2203 -7.913,-8.8453 -13.919,-9.659 -5.184,-1.0383 -10.536,-0.0222 -15.692,1.1637 -1.544,1.0512 -3.238,2.2121 -5.161,3.4793 4.606,-0.6262 9.298,-0.716 13.882,0.0969 2.705,0.5558 5.637,1.3621 7.477,3.5871 1.605,1.9019 1.037,4.391 -0.076,6.3929 0.01,0.0059 0.017,0.0071 0.025,0.0141 0.699,0.45 0.235,1.5207 -0.688,1.9828 -0.263,0.134 -0.924,0.3262 -1.472,0.1461 0,0 1.051,-0.3621 1.159,-1.3582 0,0 -0.15,-0.2367 -0.761,0.1543 0,0 0.303,-1.8203 1.722,-0.9473 1.091,-2.0109 1.622,-4.4847 0.021,-6.3289 -1.83,-2.1718 -4.746,-2.948 -7.438,-3.4691 -4.789,-0.8008 -9.697,-0.6168 -14.484,0.1441 -3.955,2.5801 -8.879,5.5821 -15.499,8.984 -0.954,0.4891 -1.894,0.909 -2.822,1.2832 3.067,2.6727 6.041,4.0668 8.817,4.0637 3.031,-0.002 5.849,-1.6348 8.344,-5.0629 1.832,-2.5199 3.344,-3.4051 4.693,-3.4059 1.443,0.002 2.637,1.0141 3.781,2 1.144,0.9918 2.244,1.9571 3.448,1.9528 0.65,0 1.343,-0.2719 2.123,-0.9848 l 0.129,0.1391 c -0.801,0.7367 -1.547,1.0359 -2.252,1.0359 -1.311,-0.0031 -2.43,-1.0141 -3.573,-1.9992 -1.144,-0.991 -2.308,-1.957 -3.656,-1.9527 -1.255,-0.002 -2.719,0.8257 -4.539,3.3277 -2.514,3.4582 -5.394,5.141 -8.498,5.1402 -2.865,-0.0031 -5.901,-1.4379 -9.016,-4.173 -3.301,1.2988 -6.443,1.882 -9.416,1.882 -1.053,0 -2.085,-0.0742 -3.094,-0.2129 0.239,0.1348 0.471,0.2789 0.714,0.4098 12.042,6.614 26.406,7.6851 39.87,5.5332 -0.043,-0.1582 -0.085,-0.3172 -0.117,-0.5012 -0.304,-1.868 2.219,-2.714 4.408,-1.8578 0.625,0.2438 1.956,1.0688 2.491,2.2699 0,0 -2.215,-1.2281 -4.067,0.1059 0,0 -0.174,0.618 1.419,1.0551 0,0 -3.264,2.0828 -4.132,-1.0602 -13.43,2.3352 -27.867,1.4883 -40.148,-5.0289 -0.695,-0.3629 -1.378,-0.7469 -2.055,-1.141 0.475,2.0211 0.784,4.0762 0.896,6.1461 5.274,2.8101 10.124,4.1508 14.429,5.4781 3.912,1.2039 7.379,2.4059 10.293,4.693 0.833,0.0437 1.672,0.0707 2.523,0.0707 3.398,0 6.941,-0.3469 10.633,-1.0969 8.06,-1.641 13.978,-2.198 18.441,-2.198 9.382,0 12.348,2.4679 15.137,2.4589 1.955,0.002 3.902,-1.189 8.05,-5.339 1.024,-1.0219 1.842,-1.4188 2.548,-1.4188 1.003,0.0039 1.707,0.7879 2.394,1.5371 0.69,0.7559 1.362,1.4778 2.25,1.475 0.748,0.002 1.705,-0.5082 3.009,-2.0132 l 0.143,0.125 c -1.316,1.521 -2.31,2.0761 -3.152,2.0789 -1.002,-0.0047 -1.705,-0.7899 -2.393,-1.536 -0.687,-0.7578 -1.361,-1.4797 -2.251,-1.4758 -0.63,0 -1.406,0.3551 -2.414,1.3649 -4.15,4.1461 -6.132,5.3902 -8.184,5.3922 -2.901,-0.0071 -5.778,-2.4582 -15.137,-2.4582 -4.447,0 -10.353,0.5539 -18.404,2.1941 -3.702,0.7539 -7.259,1.1008 -10.67,1.1008 -0.766,0 -1.521,-0.0219 -2.27,-0.057 2.75,2.2461 4.995,5.5093 6.633,10.7421 0.102,0.3211 0.189,0.643 0.264,0.9649 2.691,1.543 5.269,3.2633 7.649,5.232 2.81,0.5633 5.518,0.9461 8.124,1.1832 0.026,-0.0242 0.047,-0.023 0.055,-0.0449 0.219,-0.1203 1.507,-0.5852 2.24,-1.5652 0.172,-0.2559 0.256,-0.5539 0.256,-0.802 0,-0.2281 -0.07,-0.4039 -0.166,-0.4898 -0.194,-0.2082 -0.318,-0.2102 -0.387,-0.2141 -0.028,0 -0.015,0.002 -0.085,0.0051 -0.014,0.0019 -0.032,0 -0.053,-0.0051 -0.18,-0.016 -0.491,-0.0391 -0.713,-0.3039 -0.071,-0.073 -0.102,-0.182 -0.102,-0.284 0.003,-0.3351 0.311,-0.6691 0.811,-0.7012 0.01,-0.005 0.035,-0.005 0.074,-0.005 0.268,0.0011 0.961,0.1332 1.386,0.8129 0.175,0.2621 0.294,0.6132 0.296,0.9871 0,0.1172 -0.012,0.234 -0.037,0.3492 -0.082,0.4359 -0.301,0.8617 -0.6,1.1918 -0.602,0.6519 -1.361,0.9441 -1.874,1.1441 -0.017,0.0051 -0.029,0.0098 -0.046,0.016 1.077,0.0829 2.134,0.1368 3.174,0.17 0,-0.0039 0.002,-0.011 0.003,-0.0141 0,0 0,0 0.008,-0.0148 l 0,0 0.004,0.0027 0,0 -0.004,-0.0027 c 0.003,-0.0071 0.006,-0.011 0.01,-0.0172 0.002,-0.0051 0.006,-0.0098 0.014,-0.018 0.061,-0.1031 0.107,-0.0449 0.123,-0.0809 0.375,-0.1179 2.869,-0.4402 4.57,-1.916 0.563,-0.5359 0.857,-1.25 0.856,-1.8039 0,-0.2613 -0.065,-0.4832 -0.179,-0.6453 -0.409,-0.65 -0.712,-0.5789 -0.868,-0.6238 -0.283,-0.0891 -0.828,-0.2301 -1.087,-0.7332 -0.044,-0.0719 -0.069,-0.1727 -0.069,-0.2739 0.009,-0.4761 0.483,-0.9441 1.22,-0.948 0.09,0 0.184,0.0062 0.282,0.0191 -0.028,-0.0011 -0.021,0 -0.021,0 0.331,0.0161 1.607,0.436 2.124,1.8539 0.129,0.325 0.204,0.7122 0.204,1.1122 0,0.398 -0.075,0.8097 -0.253,1.191 -0.291,0.7019 -0.816,1.3398 -1.441,1.7847 -1.039,0.7313 -2.181,1.0051 -3.096,1.1633 0.477,0 0.947,-0.009 1.415,-0.0203 0.07,-0.0918 0.126,-0.0418 0.153,-0.0769 0.626,-0.1239 5.147,-0.1551 8.508,-2.4231 1.278,-0.9519 1.991,-2.359 1.987,-3.4457 0,-0.348 -0.073,-0.6621 -0.213,-0.925 -0.572,-1.2742 -1.278,-1.2703 -1.469,-1.3551 -0.48,-0.207 -1.351,-0.5679 -1.662,-1.4109 -0.039,-0.0902 -0.059,-0.2012 -0.059,-0.309 0.012,-0.6922 0.741,-1.3871 1.845,-1.393 0.245,0 0.512,0.036 0.793,0.1118 0.421,0.0421 2.597,1.0222 3.171,3.5632 0.1,0.3907 0.154,0.827 0.154,1.277 0,0.8789 -0.211,1.8187 -0.717,2.6289 -0.653,1.148 -1.694,2.1359 -2.859,2.7699 -0.078,0.0422 -0.158,0.0719 -0.236,0.111 5.782,-0.959 10.61,-2.5528 14.351,-4.1508 2.957,-1.2633 5.239,-2.525 6.778,-3.4723 0.769,-0.4707 1.351,-0.866 1.744,-1.141 l -0.002,-0.0047 0,0 c 0,0 0.05,-0.0312 0.124,-0.0812 0.016,-0.011 0.031,-0.0231 0.046,-0.034 0.09,-0.0649 0.207,-0.1539 0.344,-0.2739 0.289,-0.2601 0.644,-0.648 0.9,-1.1621 0.295,-0.5851 0.568,-1.5988 0.42,-2.5039 -0.111,-0.6769 -0.448,-1.2922 -1.187,-1.6441 -0.004,-8e-4 -0.135,-0.0738 -0.333,-0.1399 -0.199,-0.0679 -0.461,-0.1222 -0.711,-0.0879 -0.263,0.0348 -0.513,0.1649 -0.685,0.4887 0.154,0.0012 0.497,0.052 0.795,0.4242 0.16,0.202 0.26,0.4161 0.297,0.6368 0.048,0.314 -0.032,0.6453 -0.24,0.9722 -0.181,0.2891 -0.551,0.509 -0.979,0.5668 -0.428,0.0571 -0.916,-0.048 -1.334,-0.4168 -0.399,-0.3519 -0.668,-0.8902 -0.762,-1.4679 -0.102,-0.6301 0.002,-1.3153 0.381,-1.8653 0.43,-0.625 1.219,-1.2238 2.242,-1.3609 0,0 0,0 10e-4,0 0.691,-0.091 1.486,0.0289 2.343,0.4871 1.109,0.5961 1.603,1.6238 1.76,2.5879 0.144,0.898 10e-4,1.741 -0.215,2.164 -0.407,0.7899 -1.242,2.125 -2.817,2.6731 -1.71,1.243 -10.203,6.966 -23.871,9.0941 -2.086,0.877 -4.197,0.9547 -5.729,1.011 -0.32,0.0058 -0.616,0.0078 -0.892,0.0078 -1.166,0.0031 -1.935,-0.041 -2.01,-0.041 l -0.023,0 c -0.017,-0.0028 -0.051,0.0062 -0.127,-0.0508 -0.021,-0.0152 -0.037,-0.034 -0.049,-0.0563 -0.012,-0.0179 -0.019,-0.0539 -0.025,-0.0879 -0.517,0.0102 -1.034,0.0219 -1.563,0.0219 -0.353,0 -0.712,-0.0078 -1.07,-0.014 -0.166,0.0191 -0.324,0.0363 -0.447,0.048 -0.145,0.0141 -0.257,0.0231 -0.334,0.0281 -0.037,0.0032 -0.067,0.0051 -0.086,0.0059 l -0.015,0.0031 -10e-4,-0.0039 c -0.024,8e-4 -0.054,8e-4 -0.091,-0.0019 -0.014,-0.0051 -0.027,-0.011 -0.038,-0.0172 l -0.002,0 c 0,0 -0.022,-0.0098 -0.046,-0.0321 -0.026,-0.0207 -0.026,-0.0359 -0.037,-0.0539 -1.186,-0.039 -2.398,-0.107 -3.633,-0.2101 -0.054,0.0172 -0.114,0.0383 -0.157,0.0523 -0.077,0.0227 -0.138,0.0438 -0.179,0.0547 -0.014,0.0051 -0.027,0.0082 -0.035,0.0113 -0.004,8e-4 -0.008,0.0028 -0.012,0.0047 l 0,0 c -0.041,0.016 -0.088,0.0203 -0.135,0.009 -0.072,-0.0187 -0.127,-0.0707 -0.151,-0.1387 -0.009,-0.0191 -0.009,-0.0351 -0.011,-0.0523 -2.488,-0.2277 -5.07,-0.5899 -7.744,-1.1129 0.185,0.1559 0.362,0.3211 0.545,0.482 0.806,0.2102 1.615,0.416 2.431,0.6032 13.858,2.807 27.843,5.832 41.184,10.7668 8.766,-1.427 17.238,-4.4059 24.518,-9.5989 l -0.031,-0.0711 0.001,0 c 0,0 0.594,-0.3511 1.37,-1.039 0.775,-0.6918 1.72,-1.7321 2.408,-3.1028 0.788,-1.564 1.515,-4.2683 1.121,-6.6882 -0.293,-1.8079 -1.199,-3.4508 -3.17,-4.3899 -0.01,-0.007 -0.362,-0.1992 -0.891,-0.375 -0.532,-0.1781 -1.229,-0.3269 -1.899,-0.2351 -0.701,0.0941 -1.37,0.439 -1.829,1.307 0.412,0.0031 1.328,0.1379 2.123,1.132 0.425,0.5399 0.693,1.111 0.791,1.702 0.133,0.839 -0.082,1.7199 -0.637,2.5961 -0.486,0.7718 -1.472,1.3578 -2.618,1.5148 -1.14,0.1523 -2.445,-0.1309 -3.56,-1.1148 -1.067,-0.9399 -1.785,-2.377 -2.035,-3.9211 -0.273,-1.6848 0.008,-3.5141 1.016,-4.9821 1.149,-1.6699 3.258,-3.2687 5.986,-3.6308 0.002,0 0.004,0 0.006,0 1.844,-0.2481 3.966,0.073 6.258,1.2961 2.961,1.5918 4.284,4.3379 4.698,6.9109 0.386,2.4 0.003,4.6551 -0.571,5.7809 -1.172,2.2699 -3.629,6.2511 -8.476,7.4601 l -0.059,-0.1422 c -7.163,5.1813 -15.518,8.2082 -24.189,9.7133 1.88,0.7008 3.749,1.4387 5.601,2.2219 3.254,1.368 6.508,2.8969 9.691,4.5941 2.946,0.8129 5.926,1.2977 8.891,1.2969 4.152,0 8.276,-0.9351 12.261,-3.216 0.761,-0.432 1.444,-0.9602 2.067,-1.5469 -1.978,-1.298 -3.504,-3.3 -4.155,-5.7691 -0.279,-1.0559 -0.412,-2.118 -0.412,-3.1629 0,-5.482 3.668,-10.4891 9.218,-11.9531 1.314,-0.3469 2.636,-0.5129 3.939,-0.5129 6.826,0 13.065,4.5679 14.888,11.4789 0.434,1.6429 0.639,3.291 0.639,4.9121 0,6.7238 -3.565,12.9777 -9.309,16.4308 3.454,-1.6828 6.53,-4.1179 8.866,-7.166 1.404,-1.68 2.515,-3.5328 3.367,-5.4898 0.078,-0.191 0.162,-0.3891 0.258,-0.5961 0.494,-1.2242 0.882,-2.4879 1.171,-3.775 0.032,-0.1781 0.063,-0.3629 0.1,-0.557 0.049,-0.2442 0.104,-0.5082 0.164,-0.7801 1.803,-10.6219 -3.002,-22.5039 -12.894,-27.6711 8.433,4.2812 13.312,13.4891 13.56,22.7613 0.066,-0.2722 0.149,-0.6062 0.248,-0.989 -0.004,-0.1922 -0.012,-0.3981 -0.012,-0.5801 0,-3.2821 0.473,-4.9571 0.559,-6.852 0.002,-0.0359 0.002,-0.0769 0.002,-0.1222 0.004,-0.9887 -0.486,-2.784 -0.488,-4.2879 0,-0.1828 0.006,-0.3641 0.023,-0.5399 -0.999,-0.7441 -1.552,-2.0449 -1.765,-3.1812 -0.062,-0.325 -0.096,-0.6387 -0.096,-0.9367 -0.008,-1.2942 0.635,-2.311 1.897,-3.0383 1.345,-0.7508 3.673,-1.1489 3.624,-2.7758 0,-0.0262 -0.002,-0.059 -0.002,-0.0949 -0.087,-2.1883 -1.712,-4.4692 -1.733,-6.243 0,-0.1293 0.009,-0.2562 0.03,-0.3863 0.283,-1.7867 1.383,-2.1129 2.864,-3.0219 l 0.232,0.3742 c -1.576,0.9727 -2.402,1.1488 -2.662,2.7199 -0.019,0.1028 -0.026,0.2039 -0.027,0.3141 -0.018,1.525 1.615,3.8668 1.734,6.2297 0.002,0.0383 0.002,0.0711 0.002,0.1082 -0.049,2.1168 -2.694,2.4469 -3.841,3.1551 -1.167,0.6918 -1.673,1.5117 -1.681,2.659 0,0.266 0.032,0.5488 0.089,0.855 0.193,1.0059 0.65,2.086 1.415,2.7629 0.145,-0.6199 0.461,-1.1402 1.073,-1.4129 0.23,-0.1011 0.459,-0.148 0.677,-0.1472 0.91,0.0101 1.559,0.7761 1.567,1.5172 0,0.6199 -0.53,1.1539 -1.537,1.157 -0.039,0 -0.086,0 -0.139,-0.007 -0.488,-0.0211 -0.921,-0.145 -1.299,-0.343 -0.006,0.0898 -0.008,0.1808 -0.008,0.2758 -0.002,1.4242 0.485,3.191 0.489,4.2879 0,0.0472 0,0.0941 -0.002,0.141 -0.082,1.7332 -0.452,3.2082 -0.538,5.7582 0.122,-0.4321 0.252,-0.8871 0.399,-1.3789 0.921,-2.8813 2.229,-6.975 5.432,-10.2821 1.594,-1.6382 3.734,-2.9031 5.966,-3.4511 0.733,-0.2129 1.494,-0.311 2.244,-0.311 1.659,0 3.262,0.4731 4.512,1.1871 3.668,1.9129 4.461,5.636 4.467,6.6539 0,0.0809 -0.004,0.1461 -0.018,0.2141 z M 442.9,80.2211 c 0.004,0.0019 0.008,0.0039 0.012,0.007 l -10e-4,0 c -0.005,-0.0019 -0.008,-0.0039 -0.011,-0.007 z m -0.112,-0.034 c 0.019,0 0.048,8e-4 0.108,0.0309 -0.035,-0.0211 -0.074,-0.0328 -0.117,-0.0328 10e-4,0.0019 0.006,0.0019 0.009,0.0019 z M 317.169,23.4781 c -0.069,0.5489 -0.667,0.3719 -0.391,0.7231 0.277,0.3488 0.727,-0.2883 0.672,-0.6883 -0.055,-0.402 -0.278,-1.0938 -1.194,-1.293 0,0 1.011,0.4801 0.913,1.2582 z m -2.646,2.5168 c 0,0 -1.727,-1.6519 -0.121,-3.4539 0,0 1.219,-1.2781 2.784,-0.184 0,0 1.041,0.845 0.388,1.8492 -0.65,1.0028 -1.178,0.1067 -1.178,0.1067 0,0 -0.251,-0.352 0.342,-0.7699 0,0 0.375,-0.3938 -0.173,-0.7168 -0.545,-0.325 -1.258,-0.2211 -1.754,0.2957 -0.498,0.5152 -0.991,1.5293 -0.288,2.873 z m 61.361,86.5841 c -0.097,0.755 -0.92,0.511 -0.538,0.995 0.381,0.482 1.002,-0.396 0.925,-0.947 -0.076,-0.554 -0.383,-1.507 -1.646,-1.781 0,0 1.395,0.659 1.259,1.733 z m -3.648,3.469 c 0,0 -2.381,-2.277 -0.166,-4.762 0,0 1.68,-1.759 3.836,-0.252 0,0 1.435,1.163 0.536,2.547 -0.897,1.383 -1.624,0.148 -1.624,0.148 0,0 -0.346,-0.485 0.473,-1.062 0,0 0.516,-0.541 -0.238,-0.988 -0.754,-0.445 -1.736,-0.303 -2.421,0.406 -0.685,0.712 -1.364,2.11 -0.396,3.963 z M 412.297,2.02812 c 0,0 0.141,0.24805 0.767,-0.11796 0,0 -0.386,1.84296 -1.799,0.84687 -0.679,-0.47695 -0.169,-1.52891 0.772,-1.951171 0.27,-0.121875 0.937,-0.285937 1.477,-0.082812 0,0 -1.067,0.316013 -1.217,1.305073"
       id="path1010"
       style="fill:#231f20;fill-opacity:1;fill-rule:nonzero;stroke:none" /></g></svg>